<?xml version="1.0" standalone="no"?>
<!DOCTYPE svg PUBLIC "-//W3C//DTD SVG 1.1//EN" "http://www.w3.org/Graphics/SVG/1.1/DTD/svg11.dtd" >
<svg xmlns="http://www.w3.org/2000/svg">
<metadata></metadata>
<defs>
<font id="mf_be_yourselfregular" horiz-adv-x="919" >
<font-face units-per-em="2048" ascent="1536" descent="-512" />
<missing-glyph horiz-adv-x="342" />
<glyph horiz-adv-x="2048" />
<glyph horiz-adv-x="2048" />
<glyph unicode="&#xd;" horiz-adv-x="342" />
<glyph unicode=" "  horiz-adv-x="342" />
<glyph unicode="&#x09;" horiz-adv-x="342" />
<glyph unicode="&#xa0;" horiz-adv-x="342" />
<glyph unicode="!" horiz-adv-x="339" d="M55 109v8q2 16 10.5 36.5t30.5 41.5q39 35 84 34q41 0 72 -29.5t31 -72.5q0 -49 -41 -80q-31 -43 -82 -43q-47 0 -74 31q-31 27 -31 74zM57 710q2 89 6.5 181t8.5 180q4 82 7 157t3 132q0 43 29.5 72.5t72.5 29.5q41 0 72 -29.5t31 -72.5q0 -59 -3 -136t-8 -163 q-4 -84 -8 -173t-6 -174t0 -165t10 -146q4 -41 -22.5 -74.5t-67.5 -37.5h-12q-39 0 -67.5 24.5t-32.5 65.5q-8 72 -11.5 156t-1.5 173z" />
<glyph unicode="&#x22;" horiz-adv-x="712" d="M61 1106q0 57 1 85t3.5 47t6.5 39.5t10 61.5q6 43 40 68t77 18q41 -6 66.5 -39.5t19.5 -76.5q-6 -37 -9.5 -51.5t-5.5 -27.5t-3 -36t-1 -74q0 -68 2 -108.5t5 -62t7.5 -30t8.5 -14.5q10 -18 12 -42.5t-3 -49.5t-17.5 -45t-30.5 -31q-25 -16 -55 -12q-27 2 -49.5 14.5 t-34.5 36.5q-31 45 -39 154q-4 43 -7.5 80t-3.5 96zM410 1243q0 12 2 27.5t8 58.5q4 43 36.5 68.5t75.5 21.5q41 -4 68 -36.5t23 -75.5q-4 -37 -6.5 -46.5t-2.5 -16.5t1 -24.5t3 -68.5q4 -135 5.5 -197.5t7.5 -72.5q23 -37 12.5 -78t-45.5 -64q-23 -14 -45 -14 q-27 0 -54.5 12.5t-41.5 34.5q-16 23 -21.5 60.5t-13.5 93.5q-6 41 -5 92t-1 110q-2 57 -4 80t-2 35z" />
<glyph unicode="#" horiz-adv-x="1212" d="M37 598q6 43 40 68.5t75 21.5q80 -12 155 -12q4 31 8 62.5t9 62.5v2q-43 2 -90.5 4t-100.5 6q-41 2 -70.5 34t-25.5 73q2 43 33.5 71.5t74.5 24.5q57 -4 107.5 -5t95.5 -3q10 94 18.5 186t12.5 184q2 43 32.5 72t73.5 27q41 -2 71 -33t28 -74q-4 -92 -12.5 -184 t-18.5 -185q53 0 97 1.5t83 3.5q10 94 17.5 187t7.5 204q0 43 29.5 72.5t72.5 29.5t73 -29.5t30 -72.5q0 -104 -6.5 -195.5t-16.5 -179.5q4 2 12 2q10 2 19.5 2t19.5 2q41 4 75 -22.5t38 -69.5q4 -41 -23.5 -75t-68.5 -38q-10 0 -18.5 -1t-18.5 -3l-62 -6q-4 -16 -5 -34.5 t-5 -37.5q-2 -8 -3 -16t-3 -18q88 6 184 6q41 0 72 -30t31 -73t-31 -72.5t-72 -29.5q-55 0 -108 -2t-105 -6q-10 -92 -21 -197.5t-22 -232.5q-4 -41 -32.5 -68t-69.5 -27h-6q-43 4 -71 36t-25 73q10 117 20 214t21 185q-43 -4 -85 -6t-85 -6q-10 -98 -16.5 -196.5 t-6.5 -196.5q-2 -43 -31.5 -73t-70.5 -30h-2q-41 0 -72 30t-29 73q0 98 5 196.5t16 196.5q-39 2 -79 5t-81 9q-41 4 -66.5 38t-21.5 75zM514 678q43 4 87 7t87 7l12 80q2 6 2 13.5t3 13.5q-27 0 -55.5 -1t-63.5 -1h-58q0 -14 -2 -21z" />
<glyph unicode="$" horiz-adv-x="905" d="M61 526q10 41 46 63.5t77 12.5t63.5 -46t12.5 -77q-37 -150 62 -205q2 10 2 20.5t2 20.5q12 111 22 211.5t19 204.5q-53 25 -102.5 52.5t-90.5 66.5q-123 121 -63 297q35 96 100 161.5t145 100.5v6q-4 41 23 74t70 37q39 4 68.5 -18.5t39.5 -59.5q57 -4 100 -21 q121 -41 168 -147q16 -39 23.5 -101.5t-23.5 -154.5q-12 -41 -50 -59.5t-79 -3.5q-41 14 -59.5 51t-3.5 78q14 43 12 70.5t-11 43t-21.5 21.5t-20.5 10q-12 4 -19 4q6 -104 7.5 -198.5t-2.5 -184.5q49 -25 95 -55.5t83 -71.5q68 -74 80 -166q16 -100 -27 -213 q-33 -88 -92 -155q-53 -63 -129 -101q-39 -20 -82 -31q-2 -6 -2 -11t-2 -11q-4 -41 -33 -66.5t-68 -25.5h-10q-43 4 -69.5 37.5t-22.5 74.5v2q-2 2 -6 3q-66 20 -118 62t-85 101q-70 129 -29 297zM297 1026.5q6 -17.5 20 -29.5q20 -20 58 -41q2 53 1 108.5t-5 115.5 q-41 -35 -68 -101q-12 -35 -6 -52.5zM530 299q27 20 48.5 51t37.5 72q29 72 19 109.5t-31 60.5q-10 10 -19.5 18t-21.5 17q-6 -82 -14 -162t-19 -166z" />
<glyph unicode="%" horiz-adv-x="1198" d="M68 1130q16 59 54 118t93 106q121 104 248 104q49 0 94 -16q31 -12 49.5 -41t14.5 -64q-4 -27 -15 -43q39 -102 -2 -207q-20 -53 -58 -100t-84 -82t-96.5 -56.5t-97.5 -21.5q-41 0 -82 21q-78 45 -109.5 118.5t-8.5 163.5zM213 100q55 166 137 352.5t187 391.5 q80 156 167 309.5t168 282.5q23 35 65 45t77 -13t44 -64.5t-14 -76.5q-39 -63 -90 -149t-108.5 -189.5t-117.5 -220.5t-117.5 -239.5t-111 -247.5t-93.5 -246q-10 -33 -37 -51.5t-60 -18.5q-18 0 -33 6q-41 12 -59 50t-4 79zM263 1049.5q3 -9.5 11 -15.5q10 4 26.5 12.5 t39.5 24.5q53 41 74 92q14 41 -8 74q-47 -23 -88.5 -68t-53.5 -90q-4 -20 -1 -29.5zM578 160q-4 43 1 85t13 70q14 53 34.5 101.5t49.5 89.5q51 72 102 93.5t88 21.5q63 0 121 -46q8 -6 21 -22l61 -88q47 -45 63.5 -103.5t-6.5 -119.5q-12 -33 -30.5 -61.5t-40 -51.5 t-43 -40t-37.5 -28q-53 -35 -108.5 -55t-104.5 -20q-51 0 -92 22q-23 12 -53.5 46t-38.5 106zM780 193q18 4 43.5 16.5t50.5 30.5q31 23 44.5 42t15.5 29q2 0 -6 4q-8 6 -21 23l-47 70q-10 -12 -25.5 -36t-31.5 -65q-12 -35 -17.5 -64.5t-5.5 -49.5z" />
<glyph unicode="&#x26;" horiz-adv-x="911" d="M23 227q-2 39 2 85t14 100q18 92 44 173t38 115q10 25 19.5 49.5t19.5 49.5q-23 59 -42.5 118.5t-37.5 118.5q-12 47 -18.5 93.5t-2.5 89.5q6 113 68 182q14 18 37.5 36.5t55.5 32t75 18.5t96 -1q72 -8 106.5 -37t51.5 -57q18 -33 21 -68t-2 -68.5t-17 -65.5t-25 -58 q-45 -96 -80.5 -178.5t-66.5 -157.5q33 -86 70.5 -168t80.5 -168q4 -6 8.5 -13.5t8.5 -17.5q0 -4 4 -8q45 47 80 97t55 104q4 8 4 12q6 41 40 66.5t77 21.5q41 -6 66.5 -40t19.5 -77q-2 -25 -16 -61q-39 -98 -101.5 -175t-116.5 -130q-4 0 -4 -4q39 -57 60.5 -70.5 t25.5 -15.5q41 10 76 -13.5t45 -64.5t-13.5 -77t-64.5 -46q-10 -2 -20 -3t-23 -1q-29 0 -61.5 9t-71.5 36q-57 41 -110 112q0 2 -2 4q-35 -23 -70 -42t-70 -33q-51 -25 -93 -31t-73.5 -1t-56 17.5t-41.5 28.5q-68 59 -69 182zM226.5 260q0.5 -43 4.5 -57q12 0 41 14 q29 12 58.5 28.5t58.5 39.5q-8 16 -14 29.5t-13 23.5q-4 10 -7 17t-7 14q-18 37 -36.5 73.5t-35.5 71.5q-8 -29 -16 -59.5t-16 -63.5q-18 -88 -17.5 -131zM262.5 1197q-2.5 -48 13.5 -103q2 -2 2.5 -4.5t2.5 -4.5q14 33 29.5 66t31.5 68q10 25 15 40t10 25q-8 2 -27 2 q-16 0 -31.5 -4t-25.5 -14q-18 -23 -20.5 -71z" />
<glyph unicode="'" horiz-adv-x="342" d="M63.5 931q-0.5 58 3 115.5t6.5 121t-1 155.5q-4 43 25.5 73.5t70.5 35.5q43 2 73.5 -27t34.5 -72q6 -84 3 -147.5t-7 -119.5t-4 -114.5t11 -132.5q6 -43 -20 -76.5t-66 -40.5h-15q-39 0 -67.5 25t-34.5 64q-12 82 -12.5 140z" />
<glyph unicode="(" horiz-adv-x="700" d="M18 532q-8 98 16.5 200t78.5 210q49 98 126.5 209t192.5 246q29 33 70 36t73 -26q33 -29 37 -70t-24 -73q-102 -121 -174 -221.5t-116 -187.5t-62.5 -163t-14.5 -147q6 -78 38 -159t86 -168t131 -184t171 -206q29 -31 26 -73t-36 -70q-31 -25 -68 -25q-23 0 -42 8t-35 27 q-119 137 -200 241.5t-134 194.5q-66 111 -99.5 207t-40.5 194z" />
<glyph unicode=")" horiz-adv-x="702" d="M25.5 1326q-0.5 42 27.5 73q29 33 71 34t73 -28q135 -123 220 -213t138 -168q133 -186 135 -375q4 -92 -20.5 -193.5t-79.5 -230.5q-47 -111 -118 -246t-171 -317q-14 -27 -37.5 -40t-52.5 -13q-25 0 -49 12q-37 20 -49.5 61.5t10.5 77.5q86 156 154.5 286t115.5 238.5 t70.5 197.5t21.5 163q-2 63 -23.5 124.5t-70.5 133.5t-131 157t-201 195q-33 29 -33.5 71z" />
<glyph unicode="+" horiz-adv-x="864" d="M25 623q4 43 36.5 69.5t73.5 22.5q90 -10 166 -13q0 66 2 129.5t6 129.5q2 43 34 71.5t75 24.5q41 -4 69.5 -36t26.5 -73q-4 -61 -6 -123.5t-4 -126.5q57 2 113.5 6.5t115.5 10.5q43 4 76 -22.5t37 -67.5q4 -43 -21.5 -76t-68.5 -37q-66 -8 -126.5 -12t-121.5 -6 q2 -41 4 -81t6 -79q4 -41 -22.5 -74t-69.5 -37h-10q-39 0 -68 25.5t-33 66.5q-8 86 -12 183q-45 2 -91 5t-95 9q-43 4 -70 37t-22 74z" />
<glyph unicode="," horiz-adv-x="458" d="M53 199q12 41 50 60.5t79 4.5q6 -2 37 -15t66 -42q104 -82 123 -219q23 -160 -58 -246q-20 -23 -41.5 -36t-42 -19t-37 -8.5t-24.5 -2.5h-4q-43 2 -72 34t-27 73t30 68.5t69 29.5q4 4 6 23.5t-2 54.5q-10 57 -49 88q-8 6 -14.5 9t-10.5 7q-6 4 -12 7q-41 14 -60.5 51 t-5.5 78z" />
<glyph unicode="-" horiz-adv-x="931" d="M75.5 536q-16.5 39 0.5 78q16 41 55 57.5t78 0.5q4 -2 18.5 -6t45 -7.5t79.5 -5.5t123 0q92 4 168 11.5t105 13.5q41 8 75.5 -16.5t42.5 -65.5t-15.5 -77t-66.5 -44q-41 -8 -123.5 -15t-179.5 -11q-20 0 -40 -1.5t-38 -1.5q-29 0 -56.5 1.5t-51.5 3.5q-102 6 -162 30 q-41 16 -57.5 55z" />
<glyph unicode="." horiz-adv-x="309" d="M47 102q0 41 33 72q14 14 36.5 27.5t51.5 13.5q41 0 67.5 -25.5t26.5 -64.5q0 -53 -47 -80q-29 -33 -74 -33q-29 0 -52 15.5t-34 40.5q-8 14 -8 34z" />
<glyph unicode="/" horiz-adv-x="593" d="M31 123q61 156 110 299t89 288.5t73 300t62 332.5q8 41 41.5 67t76.5 17q41 -6 65.5 -40.5t18.5 -75.5q-31 -182 -64.5 -343t-74.5 -312.5t-92 -300t-115 -308.5q-12 -31 -37.5 -48t-56.5 -17q-23 0 -39 8q-39 16 -56.5 54t-0.5 79z" />
<glyph unicode="0" horiz-adv-x="958" d="M20 727q-2 129 25 250t80 219q63 117 152.5 182.5t197.5 69.5q41 4 72 -23.5t35 -68.5q82 -29 153 -92q94 -88 147.5 -227.5t57.5 -305.5q4 -158 -47 -323q-20 -66 -60 -148t-106 -147q-109 -113 -250 -113q-125 0 -225 90q-78 72 -133 193q-45 98 -70.5 214.5 t-28.5 229.5zM225 729q2 -72 19.5 -170t60.5 -190q12 -29 29.5 -57.5t39 -52t47 -39t56.5 -15.5q55 0 105 51q37 39 66.5 95.5t49 121t29.5 131t8 121.5q-4 125 -40 227.5t-99 161.5q-72 66 -160 60q-32 -2 -61 18q-68 -66 -110 -188.5t-40 -274.5z" />
<glyph unicode="1" horiz-adv-x="505" d="M28.5 976q-16.5 38 0.5 79q82 199 139 286q35 57 65 82q41 35 76 37t53 -4q23 -6 51.5 -27.5t47.5 -72.5q14 -39 20 -109q10 -113 0 -301q-10 -168 -35.5 -385t-62.5 -459q-6 -39 -35.5 -62.5t-66.5 -23.5h-17q-41 6 -65.5 41t-18.5 76q33 211 56.5 404.5t33.5 349.5 q12 154 13 235q-14 -29 -30.5 -63.5t-33.5 -81.5q-16 -39 -55 -55.5t-80 0.5q-39 16 -55.5 54z" />
<glyph unicode="2" horiz-adv-x="972" d="M25 167q-2 38 18 87q25 53 78 115q43 53 112.5 117.5t174.5 156.5q82 68 141 147.5t92 159.5q27 66 31 124.5t-19 94.5q-25 47 -96 64q-49 12 -116.5 5t-149.5 -30q-41 -12 -78 8.5t-49 61.5t8.5 78t60.5 49q217 61 369 29q78 -16 137.5 -58.5t94.5 -107.5 q43 -80 43 -177.5t-39 -202t-115 -209t-182 -194.5q-162 -137 -236 -217q-27 -29 -41 -47t-22 -31q16 -4 51 -9t94 -7q80 -4 190.5 1t264.5 18q43 4 74.5 -25t35.5 -70q4 -43 -23.5 -74.5t-70.5 -35.5q-129 -10 -231.5 -15.5t-182.5 -5.5q-35 0 -63.5 1t-54.5 3 q-43 2 -87 9.5t-83 22.5t-71 40t-48 63q-10 23 -12 61z" />
<glyph unicode="3" horiz-adv-x="827" d="M32 104.5q-5 40.5 21 75.5q27 35 68 40t76 -19q59 -47 132.5 -59.5t137.5 14.5q37 16 76 54t49 118q4 33 3 70.5t-22 62.5q-12 14 -30.5 23.5t-41 14.5t-46 7t-43.5 4q-16 2 -29.5 3t-28.5 3q-47 10 -68.5 32.5t-29.5 45.5q-6 20 -4 56t45 77q74 72 131 149.5t88 151.5 q27 59 32 106.5t-11 73.5q-18 33 -86 43q-35 6 -105 1t-182 -35q-41 -12 -78 8t-47 61q-12 41 8.5 78t61.5 49q225 61 370 41q104 -16 158.5 -59t77.5 -84q84 -145 -10 -365q-55 -125 -156 -248q4 -2 10 -3t10 -3q106 -31 164 -104q86 -109 62 -289q-18 -121 -86 -209 q-61 -84 -164 -125q-41 -16 -83 -24.5t-85 -8.5q-37 0 -74 7q-127 18 -231 98q-35 27 -40 67.5z" />
<glyph unicode="4" horiz-adv-x="1009" d="M40 660.5q3 46.5 18.5 91.5t40 87t48.5 76q66 96 178.5 219t276.5 283q16 12 25 17q10 6 20 8t23 4h2h4h2h2h2q2 -2 4 -2h2h2h4q2 -2 4 -2h2h2q2 0 3 -2h4l2 -2h2h2q0 -2 2 -2l2 -2h2l2 -2h2q2 0 2 -2h2l2 -3q2 0 2 -2q2 0 2 -2h2l2 -2l2 -2l2 -2l2 -2h3v-2l2 -2h2v-2 q8 -10 12 -18v-2q2 0 2 -3v-2q2 0 2 -2v-2l2 -2v-2v-2q2 -2 2 -4t2 -4q0 -4 1 -9t1 -9v-2v-3v-2q-2 -63 -4 -129.5t-4 -138.5q-4 -111 -8 -225.5t-6 -231.5q35 2 71.5 2h71.5q43 0 72.5 -29.5t29.5 -72.5t-29.5 -72.5t-72.5 -29.5h-70.5t-70.5 -2q0 -78 4 -152t10 -139 q4 -43 -22.5 -76t-69.5 -37h-10q-39 0 -69 25.5t-34 66.5q-6 72 -10 149t-4 159h-31q-55 0 -104 2t-92 8q-92 8 -152 37q-86 37 -117 114q-18 45 -15 91.5zM244 647q4 -4 29.5 -13.5t97.5 -15.5q76 -6 178 -6q2 119 6 237t8 232v6q-78 -80 -136 -148.5t-99 -123.5 q-61 -84 -72.5 -122t-11.5 -46z" />
<glyph unicode="5" horiz-adv-x="888" d="M33 143q12 41 49 62.5t78 11.5q145 -39 257.5 -14.5t172.5 110.5q41 59 44 129t-32 123q-47 68 -145.5 87.5t-231.5 -13.5q-49 -12 -92 9.5t-65 68.5q-27 55 -25 153q2 45 7 87t11 73q12 82 35 146q14 49 29.5 76.5t36.5 43.5q39 31 91 51.5t113.5 35t131 23.5t141.5 15 q27 2 54.5 5.5t37.5 5.5q41 12 78 -9.5t49 -62.5q10 -41 -10.5 -78t-61.5 -47q-20 -6 -48.5 -10t-78.5 -8q-49 -4 -106 -11.5t-113 -17.5q-59 -10 -91 -21.5t-48 -21.5q-8 -20 -19.5 -62.5t-21.5 -101.5q-12 -86 -12 -127q164 25 289 -10q74 -23 133 -64t100 -100 q37 -53 53.5 -114.5t15.5 -125t-21.5 -126t-59.5 -117.5q-94 -133 -258 -183q-84 -24 -178 -24q-96 0 -216 28q-41 10 -62 47t-11 78z" />
<glyph unicode="6" horiz-adv-x="849" d="M23 563q-4 145 25.5 288.5t86.5 262.5q70 135 164 217q109 96 250 113q41 4 74.5 -23.5t38.5 -68.5q4 -41 -23 -75t-70 -38q-47 -4 -86 -25.5t-69.5 -52.5t-54 -67.5t-40.5 -71.5q-35 -68 -55 -148q104 27 197 19q137 -16 235 -111q47 -47 80 -111.5t43 -138.5 q12 -70 4 -140t-37 -132q-53 -119 -155 -180q-101 -64 -232 -64h-15t-17 2q-88 2 -162 62q-63 49 -107 131q-72 141 -75 352zM227 567q4 -150 45 -245t107 -99q49 -4 86 6.5t63.5 27.5t43 39.5t26.5 45.5q16 37 21.5 78t-1 81t-23.5 74.5t-44 61.5q-33 33 -73 44t-82 9 t-84 -15t-76 -30q-4 0 -5.5 -1t-3.5 -1q-4 -39 0 -76z" />
<glyph unicode="7" horiz-adv-x="892" d="M20 1278q-6 41 21 74.5t68 40.5q47 6 95 14t95 16q92 16 173 28.5t148.5 12.5t120 -15t86.5 -56q23 -29 36.5 -78t-15.5 -125q-51 -141 -113.5 -264t-128.5 -252q-72 -135 -143.5 -278.5t-130.5 -311.5q-10 -31 -37.5 -49.5t-58.5 -18.5q-16 0 -35 7q-41 16 -58.5 53 t-3.5 78q66 180 138.5 327.5t146.5 288.5q66 123 125 240.5t106 246.5q-12 2 -33.5 3.5t-56.5 -3.5q-51 -4 -109.5 -14t-121.5 -20q-49 -10 -99.5 -18.5t-99.5 -14.5q-41 -6 -74.5 20.5t-40.5 67.5z" />
<glyph unicode="8" d="M20 397q-2 80 22 148.5t71 120.5q16 16 34.5 32.5t45.5 32.5q-4 6 -9.5 12.5t-9.5 14.5q-37 57 -57.5 125.5t-22.5 134.5q-2 160 72 256q43 55 108 84q27 12 56 18q27 55 90 60q147 6 256 -97q63 -61 100 -145q33 -80 37 -170q4 -82 -29 -168q-27 -72 -75 -133 q27 -16 49 -37q63 -55 100 -128.5t41 -151.5q4 -72 -27.5 -147t-89.5 -134q-63 -66 -146 -100.5t-179 -34.5q-102 0 -191 41q-78 37 -137 104q-49 55 -77.5 125t-31.5 137zM225 403q2 -25 14.5 -61.5t43.5 -71.5q68 -76 174 -75q68 0 110.5 23t67.5 48q33 35 46 71t13 58 q-2 35 -18.5 69t-46 61.5t-71.5 46t-93 24.5q-23 -12 -43 -12q-109 -2 -158 -56q-25 -29 -32 -62.5t-7 -62.5zM299 1022q0 -29 10 -72t37 -82q23 -37 46.5 -50t39.5 -17h33q37 2 74 39q35 37 53 88t16 90q-2 49 -21.5 96t-51.5 76q-8 10 -17.5 16t-19.5 11q-31 -31 -72 -33 q-27 0 -50.5 -5t-41 -21.5t-26.5 -48.5t-9 -87z" />
<glyph unicode="9" horiz-adv-x="860" d="M37 826.5q-14 97.5 6 205.5q16 100 60 186.5t106 141.5q88 78 190.5 84t200.5 -66q100 -72 159.5 -195.5t71.5 -287.5q10 -141 -15 -285.5t-85 -269.5q-78 -168 -194.5 -258t-251.5 -90q-53 0 -103 14q-41 10 -62.5 47t-10.5 78q10 41 47 62.5t77 11.5q90 -25 166 33 q86 61 146 188q10 18 18 45q-66 -10 -124 -10t-111 14q-152 41 -232 176q-45 78 -59 175.5zM239 863q7 -62 33 -107q37 -63 109 -82q90 -25 240 20q10 80 8 158t-19.5 146.5t-49.5 124t-79 89.5q-34 27 -67 27q-35 0 -68 -31q-35 -33 -62.5 -90t-39.5 -123q-12 -70 -5 -132z " />
<glyph unicode=":" horiz-adv-x="339" d="M59 184q-12 41 8.5 78t61.5 47q25 8 49.5 3t44.5 -21q2 -2 4 -3t4 -3q20 -16 34 -44t3 -67q0 -2 -4 -18q-10 -35 -37.5 -54.5t-60.5 -19.5q-12 0 -29 4q-63 20 -74 84q-2 4 -2 7t-2 7zM61 881v12q2 16 10.5 35.5t30.5 40.5q39 37 84 37q43 0 73 -31t30 -72q0 -51 -41 -82 q-31 -43 -82 -43q-45 0 -76 31q-29 29 -29 72z" />
<glyph unicode=";" horiz-adv-x="446" d="M41 881v12q2 16 10 35.5t31 40.5q39 37 84 37q43 0 72.5 -31t29.5 -72q0 -51 -41 -82q-31 -43 -82 -43q-45 0 -75 31q-29 29 -29 72zM59 199q12 41 50 60.5t79 4.5q6 -2 37 -15t66 -42q104 -82 123 -219q23 -160 -58 -246q-20 -23 -41.5 -36t-42 -19t-37 -8.5t-24.5 -2.5 h-4q-43 2 -72 34t-26 73q2 41 29.5 68.5t68.5 29.5q4 4 6 23.5t-2 54.5q-10 57 -49 88q-8 6 -14.5 9t-10.5 7q-6 4 -12 7q-41 14 -60.5 51t-5.5 78z" />
<glyph unicode="&#x3c;" horiz-adv-x="962" d="M25 692q8 53 50 94t111 88q55 37 127 79t158 91q49 29 101.5 59t105.5 60q37 23 77 11.5t62 -46.5q23 -37 11.5 -77.5t-46.5 -63.5q-55 -33 -107 -62.5t-102 -58.5q-74 -41 -136 -76.5t-111 -68.5q-68 -43 -86 -62q10 -6 27.5 -16t45.5 -20q45 -18 100.5 -36t116.5 -36 q82 -23 163 -48.5t149 -60.5q39 -18 52 -58t-5 -79q-12 -27 -37.5 -42t-54.5 -15q-18 0 -43 10q-57 29 -131 51.5t-150 44.5q-80 23 -153.5 47.5t-133.5 53.5q-76 37 -114 82q-59 70 -47 155z" />
<glyph unicode="=" horiz-adv-x="1040" d="M70 592q4 41 37.5 67.5t76.5 20.5q78 -10 144.5 -13t128 -2t122 5t126.5 10q41 4 80.5 6t84.5 6q43 2 75 -26.5t34 -69.5q4 -43 -24.5 -75t-71.5 -34q-43 -4 -83 -6t-79 -6q-76 -6 -146.5 -10t-146.5 -4q-61 0 -126.5 3t-143.5 13q-41 6 -66.5 40t-21.5 75zM72 920 q10 41 47 62.5t78 10.5q135 -35 252.5 -30.5t240.5 16.5l90 8t92 8q41 2 73 -26.5t34 -71.5q4 -41 -25.5 -72.5t-70.5 -33.5q-43 -2 -85 -6.5t-87 -8.5q-66 -8 -131.5 -13t-137.5 -5q-70 0 -143.5 7t-153.5 30q-41 10 -62.5 47t-10.5 78z" />
<glyph unicode="&#x3e;" horiz-adv-x="995" d="M77.5 260q12.5 41 47.5 64q66 39 139.5 70.5t147.5 62.5q111 47 210 95t140 103q-6 6 -22.5 17.5t-49.5 27.5q-41 20 -93 40t-110 42q-86 33 -177 71t-181 85q-37 20 -50 60t7 77q20 39 61 51.5t78 -8.5q80 -43 167 -77.5t167 -65.5q68 -27 128.5 -50.5t111.5 -50.5 q47 -25 96 -62.5t68 -98.5q10 -29 8 -72t-37 -96q-31 -47 -78 -86t-105.5 -71t-125 -61.5t-136.5 -58.5q-68 -29 -135 -58.5t-125 -64.5q-28 -14 -51 -14q-57 0 -90 51q-23 37 -10.5 78z" />
<glyph unicode="?" horiz-adv-x="880" d="M39 987q70 217 211 342q57 51 122.5 84t137.5 43q37 6 78 6t79 -8t69.5 -25.5t49.5 -44.5q96 -133 41 -284q-23 -57 -60.5 -112.5t-84.5 -117.5q-37 -49 -76 -102t-73.5 -113.5t-62.5 -129t-44 -150.5q-8 -37 -37 -59.5t-63 -22.5q-14 0 -21 2q-41 8 -65.5 43t-14.5 76 q16 90 49 173t80 167q41 72 83 130t81 111q45 59 72.5 99.5t40 68t11.5 48t-13 40.5q-16 6 -57.5 6t-94.5 -22q-80 -33 -141.5 -112t-99.5 -197q-14 -41 -51.5 -60.5t-78.5 -5.5q-41 12 -60 49t-7 78zM229 66q0 45 35 79q16 16 40.5 32t57.5 16q43 0 73 -30t30 -73 q0 -29 -14.5 -52.5t-36.5 -37.5q-33 -37 -82 -37q-31 0 -56.5 16.5t-37.5 45.5q-8 16 -9 41z" />
<glyph unicode="@" horiz-adv-x="1228" d="M56 547q-1 139 26 274q20 111 56 205t83 170q59 92 134 147.5t161 77.5q152 35 291 -53q111 -70 197 -213q57 -92 97 -202.5t60 -221.5q8 -45 12.5 -95t0 -99.5t-17.5 -94.5t-42 -77q-82 -98 -201 -70q-35 8 -63.5 24.5t-52.5 32.5q-53 -59 -113 -94q-74 -45 -128 -45 t-89 14t-73 53t-54 123q-10 55 -10 126t14 163q25 156 76 242q23 37 47.5 58.5t49 32.5t46 13t37.5 0q61 -6 114.5 -54t90.5 -134q27 -66 41 -140.5t14 -154.5q12 -6 22.5 -13t20.5 -14q10 -8 26.5 -18t26.5 -14l2 2q2 4 6.5 20.5t4.5 48.5q2 70 -17 160q-20 100 -58 192.5 t-87 163.5q-119 168 -246 138q-96 -23 -170 -139.5t-108 -297.5q-23 -115 -21 -234.5t25 -223.5q23 -106 65.5 -183t102.5 -116q152 -102 409 57q37 23 78 13.5t64 -46.5q23 -35 12.5 -76t-45.5 -63q-117 -72 -212 -101.5t-175 -29.5q-78 0 -140.5 22.5t-107.5 53.5 q-182 127 -252 424q-29 127 -30 266zM536 487.5q7 -53.5 13 -67.5q16 4 43 22q37 27 65 62q-2 6 -2 22q4 59 -5 115.5t-25 103.5q-10 27 -18.5 44.5t-16.5 27.5q-10 -16 -21.5 -53t-21.5 -102q-18 -121 -11 -174.5z" />
<glyph unicode="A" horiz-adv-x="1136" d="M24 102q0 39 27 70q35 39 65.5 95.5t59.5 121.5q-37 4 -62.5 29.5t-29.5 62.5q-1 5 -1 11q1 36 25 65q28 33 68 37q16 2 34.5 3t37.5 5q27 94 49 190.5t39.5 187.5t31 170t23.5 138q12 70 19 111q4 12 5 21.5t5 17.5q14 61 69 80q18 7 36 7q9 0 19 -2q28 -5 48 -26 q23 -18 30 -41.5t15 -58.5q4 -23 9 -52.5t13 -66.5q23 -104 52.5 -254t70.5 -307q23 4 45.5 8t44.5 8q10 2 20 2q30 -1 56 -19q35 -24 43 -65q2 -10 2 -20q-1 -29 -19 -55q-24 -34 -65 -44q-18 -4 -36.5 -7t-36.5 -7q29 -90 54 -160.5t50 -126.5q37 -78 59.5 -101.5 t28.5 -27.5q40 -4 68 -34q26 -28 26 -66v-6q-2 -41 -31.5 -69.5t-70.5 -28.5h-4q-78 2 -148 71q-49 49 -90 131q-35 66 -69.5 156t-69.5 207q0 4 -1 6t-1 4q-6 0 -8 -2q-59 -12 -114.5 -25.5t-108.5 -23.5q-88 -256 -203 -387q-29 -31 -71 -34h-8q-37 0 -65 26 q-35 31 -35 75zM473 647q27 6 53.5 12.5t55.5 12.5q-14 57 -27.5 113.5t-24.5 111.5q-12 -61 -26.5 -123.5t-30.5 -126.5z" />
<glyph unicode="B" horiz-adv-x="1120" d="M41 94q14 38 50 56q23 11 47 12q14 0 28 -4q18 115 28.5 251t15.5 269t6 253t1 204q-16 -4 -29.5 -5.5t-29.5 -5.5q-8 -1 -16 -1q-32 -1 -60 19q-35 24 -41 66q-2 11 -2 21q1 31 19 56q24 34 67 42q33 4 63.5 9t59.5 10q30 26 63 26h2q5 1 10 1q11 0 19 -3q12 -4 25 -10 q102 9 183 9q47 0 87 -3q199 -14 264 -129q13 -23 23 -61q4 -17 5 -38q0 -26 -7 -57q-14 -55 -56 -127q-33 -53 -72.5 -103t-80.5 -97q88 -2 159 -23q88 -25 133.5 -66.5t63.5 -78.5q28 -56 27 -118q0 -43 -13 -89q-29 -94 -106 -184q-72 -80 -162 -140q-47 -31 -100 -56.5 t-107 -41.5q-61 -20 -123.5 -29.5t-124.5 -9.5q-135 0 -258 45q-41 14 -58 52q-9 21 -9 43q0 17 6 36zM369 123q137 2 257.5 61.5t196.5 145.5q47 55 61 98q8 25 7 42q0 13 -4 22q-14 27 -70 43q-31 8 -90 13q-20 2 -44 2q-48 0 -114 -7q-33 -4 -56.5 2t-39.5 16t-26.5 22.5 t-14.5 20.5q-14 27 -13 52.5t8 47t18.5 39t17.5 27.5q16 23 37.5 48.5t46.5 55.5q35 41 69.5 84t63.5 84q29 45 36 66.5t7 28.5q-6 4 -32.5 13t-92.5 13q-25 3 -52 3q-14 0 -29 -1q-44 -2 -95 -6v-207t-5 -267t-16.5 -289.5t-31.5 -272.5z" />
<glyph unicode="C" horiz-adv-x="997" d="M31 547q6 88 21.5 174t41.5 168q49 147 127 272q80 123 175.5 198t191.5 85q17 2 34 2q78 0 144 -47q35 -29 61.5 -69t42.5 -93q6 -17 6 -34q0 -23 -11 -45q-19 -38 -60 -50q-16 -5 -31 -5q-25 1 -48 13q-38 20 -50 60q-10 29 -19.5 42t-13.5 17t-11 6t-20 0 q-39 -4 -98 -51t-119 -139q-70 -106 -109.5 -239.5t-49.5 -279.5q-2 -29 -2 -56q0 -88 20 -150q26 -82 82 -105q22 -9 48 -9q56 0 128 40q139 72 276 248q27 35 68 39q5 1 10 1q35 0 66 -24q35 -28 39 -68q1 -5 1 -10q0 -35 -24 -65q-82 -104 -168 -180t-172 -121 q-123 -64 -227 -64q-61 0 -119 23q-129 51 -188 190q-45 108 -45 258q0 33 2 68z" />
<glyph unicode="D" horiz-adv-x="1058" d="M33 70q-1 8 -1 16q0 32 20 60q24 34 65 40q14 4 26.5 5.5t26.5 5.5q-10 20 -10 43v88q2 37 4 84t6 102q4 78 8 165t6 165q0 57 -2 95t-5 60.5t-5 33.5t-4 16q-8 20 -8 40q0 21 8 39q16 38 55 54q21 8 41 8t39 -8q39 -16 55 -56q31 -75 31 -222v-18q-2 -160 -14 -384 q-4 -53 -6 -98.5t-4 -79.5v-68q160 66 271.5 172.5t160.5 241.5q32 90 32 177q-1 31 -5 61q-16 116 -87 198q-77 90 -203 118q-58 13 -122 13q-78 0 -166 -18q-11 -2 -21 -2q-29 0 -55 17q-35 23 -45 64q-2 10 -2 21q-1 30 17 56q24 36 65 44q109 23 208 23q103 0 195 -25 q174 -51 285 -176q108 -127 133 -301q7 -49 8 -98q0 -121 -45 -240q-41 -113 -113.5 -211t-173.5 -178q-227 -174 -550 -227q-6 -2 -19 -2q-37 0 -65.5 23.5t-34.5 62.5z" />
<glyph unicode="E" horiz-adv-x="952" d="M31 670q-1 7 -1 14q0 28 13 52q16 30 49 44q10 117 16 240q4 76 5 157q0 50 -2 101q0 70 45 108q31 29 65.5 35t61.5 6q23 0 49 -2t55 -6q67 -8 145 -11h18q69 0 136 19q16 5 31 5q24 0 47 -12q37 -19 49 -60q5 -16 5 -31q0 -25 -12 -48q-20 -38 -61 -50 q-95 -29 -184 -29h-21q-100 4 -178 15q-10 0 -22 1t-23 3q0 -115 -5 -219.5t-13 -202.5h137q90 0 176 2t127 12q13 3 25 3q28 0 53 -16q37 -22 47 -63q3 -13 3 -25q1 -28 -15 -52q-22 -36 -64 -46q-59 -16 -152 -18t-200 -2h-153q-7 -113 -7 -214q0 -3 1 -5q0 -98 18 -195 q8 -2 22.5 -3t42.5 -1q37 2 81 6t94 11q68 8 142 15t150 7q43 -2 73 -31.5t30 -72.5q0 -41 -31 -71t-72 -30q-66 0 -134 -6t-136 -14q-57 -8 -110.5 -13.5t-100.5 -5.5q-12 0 -23.5 1t-21.5 1q-74 6 -119 33q-70 39 -86 121q-22 115 -24 231q0 18 -1 37q0 99 7 203 q-37 25 -47 72z" />
<glyph unicode="F" horiz-adv-x="989" d="M29 750q10 42 46 64q24 15 51 15q13 0 26 -4q4 0 8 -1t8 -1q-8 88 -21.5 181.5t-31.5 193.5q-4 27 -7.5 44.5t-5.5 33.5v12q0 63 39 98q14 12 39 24q19 9 46 8q10 0 20 -1q25 -4 55 -12q10 -4 20.5 -5t22.5 -5q75 -18 158 -17q25 0 51 1q111 7 215 42q16 5 32 5 q24 0 46 -11q37 -18 51 -59q6 -17 6 -34q1 -23 -11 -44q-20 -37 -61 -51q-125 -41 -255 -51q-38 -3 -75 -2q-90 0 -177 16q18 -104 31.5 -202.5t21.5 -190.5q84 -5 187 -5h35q124 1 267 15q5 1 11 1q35 0 64 -24q34 -26 38 -67q1 -5 1 -11q0 -35 -24 -64q-26 -34 -69 -38 q-176 -18 -332 -18q-90 0 -166 6q1 -47 1 -93q0 -93 -5 -179q-8 -130 -31 -259q-6 -39 -34.5 -62.5t-65.5 -23.5h-18q-41 8 -66 43q-20 27 -20 58q0 9 2 18q34 194 34 408q0 55 -2 110q-49 6 -78 15q-40 10 -64 46q-16 25 -17 51q0 13 4 26z" />
<glyph unicode="G" horiz-adv-x="1320" d="M33 553q12 174 47 325.5t90 268.5t127 188q86 86 182 95q10 1 20 1q56 0 113 -28q59 -31 109 -92q90 -115 145 -330q3 -14 3 -27q0 -26 -13 -51q-20 -37 -61 -47q-13 -3 -26 -3q-27 0 -52 15q-37 21 -47 62q-23 84 -47.5 141t-47 92t-43 49.5t-34.5 12.5q-25 -2 -64 -42 t-80 -124q-47 -98 -76.5 -231.5t-39.5 -286.5q-1 -21 -1 -42t1 -43q2 -44 14 -86t35.5 -80t64.5 -63q60 -39 142 -39h8q88 2 170 48q27 14 68.5 48.5t64.5 94.5q-49 4 -94 12t-84 21q-41 14 -61 51q-12 23 -12 47q0 15 5 31q14 41 51 61q22 11 46 11q16 0 32 -5 q47 -16 112 -23q50 -5 104 -5h32q68 2 127 11t94 25q21 8 42 8q19 0 38 -7q39 -15 55 -54q8 -21 8 -42q0 -19 -7 -38q-15 -39 -54 -55q-53 -23 -111.5 -34t-109.5 -15q-16 -88 -68 -162q-33 -49 -79 -90t-101 -72q-131 -71 -272 -71h-4q-137 0 -252 69q-109 72 -164 195 q-47 107 -47 251q0 27 2 54z" />
<glyph unicode="H" horiz-adv-x="1048" d="M39 571q4 35 24.5 57.5t51.5 33.5q1 32 1 64q0 146 -16 285q-18 169 -59 355q-3 12 -3 24q0 28 16 53q24 36 65 46q12 3 24 3q29 0 53 -16q36 -24 46 -65q42 -195 62 -374q16 -142 16 -291q0 -38 -1 -76q55 10 107.5 26.5t105.5 32.5q23 8 44.5 14.5t44.5 14.5 q2 72 10 141.5t22 136.5q45 193 131 342q20 36 62 48q15 4 28 5q26 0 50 -14q37 -23 48 -63q4 -14 4 -29q0 -25 -13 -49q-59 -104 -93 -224t-43 -249q20 2 40 3t42 1q43 0 73 -31t30 -71q0 -43 -30 -73t-73 -30q-41 0 -78 -6q12 -137 53 -267t113 -245q16 -24 16 -51 q1 -12 -3 -26q-10 -42 -47 -64q-23 -14 -54 -15q-27 0 -49 12.5t-37 36.5q-78 123 -126 268.5t-66 301.5q-10 -4 -17.5 -6t-17.5 -6q-66 -23 -136.5 -42.5t-152.5 -29.5q-8 -92 -21.5 -185.5t-31.5 -195.5q-6 -39 -35 -62.5t-65 -23.5q-4 0 -9.5 1t-9.5 1q-41 8 -65 43 q-18 26 -19 56q0 10 2 20q33 186 49 350q-31 14 -49 42q-15 23 -15 50q0 6 1 12z" />
<glyph unicode="I" horiz-adv-x="792" d="M29 1327q0 41 29.5 72t72.5 31h531q43 0 72.5 -31t29.5 -72q0 -43 -29.5 -72.5t-72.5 -29.5h-205q14 -111 21 -243t9 -272q1 -56 1 -111q0 -83 -2 -166q-3 -138 -9 -261q35 6 71 14.5t75 20.5q15 4 30 4q25 -1 49 -13q38 -20 48 -61q4 -15 4 -30q0 -25 -12 -47 q-20 -36 -62 -50q-92 -29 -175 -41t-165 -12q-102 0 -221 23q-41 10 -65 44q-18 26 -17 56q0 10 2 20q10 42 45 66q25 17 53 17q11 0 23 -3q29 -6 56.5 -9t53.5 -7q8 121 12 262q2 90 2 180q0 50 -1 102q-2 142 -9.5 276t-21.5 241h-121q-43 0 -72.5 29.5t-29.5 72.5z" />
<glyph unicode="J" horiz-adv-x="989" d="M52 544q-1 18 -1 35q0 54 12 109q10 41 46 64q25 15 52 15q12 0 25 -3q41 -10 64 -46q17 -25 17 -53q0 -12 -3 -24q-7 -34 -7 -68q0 -13 1 -27q4 -48 18.5 -94t35 -87t42.5 -72q35 -51 66 -72.5t45 -23.5q12 0 22 14q8 8 21.5 27.5t29 56.5t30 93t24.5 138q17 135 17 306 v20q-1 182 -21 405h-31q-61 1 -122 1h-61q-91 -1 -169 -15q-4 -2 -17 -2q-37 0 -65.5 23.5t-34.5 62.5q-2 10 -2 20q0 30 18 56q25 35 68 43q92 16 190 17h66q66 0 131 -1q52 -1 102 -1h51q74 1 140 9q6 1 11 1q36 0 66 -23q34 -27 38 -68q1 -6 1 -11q0 -36 -24 -65 q-26 -34 -67 -38q-23 -2 -42.5 -3t-41.5 -3q20 -229 21 -418v-18q0 -178 -19 -324q-41 -313 -162 -434q-45 -45 -88 -59.5t-78 -14.5h-23q-45 4 -83.5 24.5t-71.5 47t-58.5 56.5t-42.5 54q-35 45 -64.5 104.5t-48 127t-23.5 138.5z" />
<glyph unicode="K" horiz-adv-x="1191" d="M37 1386q-1 6 -1 11q0 36 24 65q26 33 67 37q6 1 11 1q36 0 65 -24q33 -26 37 -67q4 -29 7 -58.5t7 -58.5q10 -92 19.5 -185t17.5 -189q39 23 94 58.5t125 91.5t157 138t191 195q29 33 71 34h3q40 0 72 -28q33 -30 33 -75q0 -39 -27 -68q-141 -154 -254 -254.5t-199 -163 t-147.5 -95t-98.5 -51.5q12 -66 58 -149q66 -119 176 -207q33 -27 82 -57.5t113 -52.5q62 -23 138 -30q21 -2 44 -2q56 0 118 13q10 2 21 2q30 1 56 -17q36 -24 46 -65q2 -10 2 -20q1 -29 -17 -55q-24 -34 -65 -46q-80 -18 -159 -18q-135 0 -263.5 48t-242.5 140 q-35 27 -64.5 56.5t-58.5 60.5q-12 -113 -37 -213q-10 -35 -36.5 -55.5t-61.5 -20.5q-18 0 -27 2q-41 10 -63 47q-15 25 -14 52q0 13 3 26q31 113 39 250q5 78 5 160q0 61 -3 125q-6 148 -20 299t-31 297z" />
<glyph unicode="L" horiz-adv-x="901" d="M38 824q5 216 28 536q4 42 36 70q28 25 64 24h10q42 -2 70 -34q25 -28 24 -64v-10q-20 -308 -26 -520q-2 -79 -3 -149q0 -115 7 -200q4 -74 12 -122t17.5 -77.5t18.5 -45t17 -21.5q16 -14 49 -14q14 0 32 3q58 9 134 25q55 10 118 22.5t134 20.5q5 1 11 1q36 -1 65 -25 q33 -28 37 -68q1 -5 1 -11q0 -35 -24 -63q-26 -34 -69 -39q-63 -6 -119.5 -17t-110.5 -21q-53 -12 -101 -20.5t-93 -10.5h-15q-111 0 -184 61q-59 53 -92 149.5t-43 260.5q-7 95 -7 223q0 64 2 136z" />
<glyph unicode="M" horiz-adv-x="1574" d="M20 47q-3 12 -3 24q1 28 17 53q24 36 64 46q43 8 79 46t61 73q70 104 131 295q27 86 49 175t39.5 172t30 154.5t20.5 122.5q6 45 12 74q2 16 6 27q10 37 29.5 54t38.5 23q20 7 38 7q34 0 62 -25h2q27 -23 32 -50.5t5 -37.5v-12t-2 -19q0 -37 -6 -94q-4 -53 -8 -121.5 t-7 -145.5t-4 -159v-54q0 -54 1 -108q4 -115 15 -187.5t23.5 -113.5t22.5 -57t14 -19q37 4 72 65.5t61 170.5q29 123 42.5 268.5t23.5 280.5q8 102 14 176t16.5 125t26 84t39.5 53q33 31 79 31h11q12 -2 27.5 -6t32 -16.5t32 -32t25.5 -52.5q6 -20 11 -47.5t10 -64.5 q6 -59 9 -137t7 -170q4 -143 12 -296t31 -282q23 -131 57 -193q6 -12 18.5 -27.5t26.5 -19.5q41 -4 67 -38q22 -28 22 -61q0 -6 -1 -13q-4 -41 -33.5 -65.5t-68.5 -24.5h-12q-43 6 -98.5 37.5t-100.5 115.5q-53 96 -80 254q-8 43 -14 90t-10 94q-4 -29 -10.5 -57.5 t-12.5 -54.5q-37 -156 -98 -248q-53 -80 -111.5 -108.5t-103.5 -32.5q-10 -1 -20 -1q-80 0 -142 58q-76 72 -109 240q-4 23 -8 48t-8 54q-49 -125 -106 -211q-115 -176 -267 -207q-12 -3 -24 -3q-29 0 -53 16q-36 24 -44 65z" />
<glyph unicode="N" horiz-adv-x="1130" d="M43 133q41 127 61.5 240.5t28.5 227.5q7 101 7 208v27q-1 120 -3 262q-2 57 -3 117.5t-1 125.5q-2 41 29 72t71 31h3q41 0 70.5 -30t31.5 -71q0 -53 4 -122.5t12 -150.5t20.5 -167t31.5 -172q41 -197 98 -327t125 -183q39 -30 83 -30q16 0 33 4q4 0 12.5 5t20.5 27 q25 45 37 140q12 98 12 216.5t-4 241.5q-4 117 -5 217v18q0 88 8 160q10 80 34.5 136.5t71.5 87.5q26 17 55 17q11 -1 22 -3q42 -8 66 -43q17 -26 17 -56q0 -10 -2 -19q-8 -40 -39 -64q-4 -6 -12.5 -35t-12.5 -106q-3 -53 -3 -113v-30q1 -77 5 -163q4 -127 4 -252.5 t-14 -236.5q-18 -131 -60 -207q-35 -72 -82 -100.5t-83 -38.5q-20 -4 -41 -6t-41 -2q-115 0 -209 73q-109 84 -191 273q-2 4 -2 6t-2 6q-12 -66 -29.5 -133.5t-39.5 -138.5q-12 -40 -50 -60q-24 -12 -48 -13q-15 0 -31 5q-41 14 -61 51q-11 22 -11 44q0 17 6 34z" />
<glyph unicode="O" horiz-adv-x="944" d="M29 562q-1 25 -1 48.5t1 44.5q6 141 39.5 276.5t91.5 242.5q33 59 70.5 107t82.5 83q101 82 221 82h11q37 0 65 -25q49 -14 99 -47q72 -51 116 -137q53 -97 76 -238q11 -63 15 -131q2 -32 2 -64q0 -36 -3 -73q-4 -72 -15 -139.5t-30 -132.5q-41 -139 -104 -240 q-66 -104 -154 -160q-88 -57 -194 -57h-25q-98 6 -175 66.5t-124 169.5q-23 53 -37 109t-20 110.5t-8 104.5zM233 647q-1 -24 -1 -47q0 -72 10 -135q12 -84 39 -146q18 -41 36.5 -63.5t36 -32.5t31.5 -13t21 -3h10q103 0 178 121q47 78 78 184t39 229q2 32 2 62 q-1 83 -13 161q-16 104 -55 175q-18 33 -35.5 51t-33 26.5t-28.5 9.5t-20 1q-20 0 -34 6q-53 -16 -91 -62.5t-63 -93.5q-47 -86 -74.5 -197.5t-32.5 -232.5z" />
<glyph unicode="P" horiz-adv-x="905" d="M42 1256q12 40 50 63q203 113 371 135q38 5 73 5q122 0 212 -62q87 -58 120 -156q24 -62 24 -132q0 -32 -5 -65q-12 -92 -58.5 -183t-117.5 -173q-76 -82 -173.5 -146.5t-213.5 -107.5q-2 -94 -8.5 -183t-22.5 -177q-6 -39 -35 -62.5t-65 -23.5q-12 0 -19 2q-42 8 -66 43 q-20 28 -19 60q0 8 1 16q31 177 31 366q0 36 -1 72q-7 227 -26 489q-2 29 10.5 51.5t32.5 38.5q-25 2 -47 15.5t-37 36.5q-15 24 -15 49q0 15 4 29zM203 1145q39 -2 65.5 -28.5t30.5 -65.5q8 -102 13 -200.5t10 -195.5q84 39 148.5 90.5t109.5 106.5t71.5 111.5t32.5 107.5 q2 16 2 37.5t-4 43.5t-16.5 42t-32.5 35q-25 16 -61 21q-20 3 -45 3q-19 0 -40 -2q-125 -16 -284 -106z" />
<glyph unicode="Q" horiz-adv-x="1216" d="M35 684q8 141 45 268t98 230q70 119 168 188q108 76 233 76h13q35 0 61 -23q168 -37 269 -213q49 -86 74 -198q24 -103 24 -216v-18q0 -141 -33 -266q-35 -141 -100 -246q-18 -33 -47 -67q10 -29 19 -53.5t20 -45.5q10 -18 16 -25t8 -9q4 0 31 8t86 51q27 21 59 21 q8 0 17 -2q42 -7 67 -42q21 -28 21 -59q0 -8 -1 -17q-7 -40 -42 -65q-47 -35 -108.5 -67.5t-129.5 -32.5q-35 0 -61 8q-86 27 -137 125q-10 16 -16.5 31.5t-14.5 31.5q-104 -55 -228 -55h-2q-102 0 -192 57q-39 25 -70.5 61t-58.5 81q-53 92 -75 217q-16 87 -16 181 q0 42 3 85zM242 698q18 1 35 1q99 0 182 -29q115 -37 198 -123q51 -55 86 -117q39 84 55.5 176t16.5 172v18q0 86 -17 164q-20 87 -55 150q-66 117 -170 117q-23 0 -38 8q-63 -16 -108.5 -63.5t-74.5 -94.5q-47 -78 -74.5 -176t-35.5 -203zM244 496q12 -113 57 -193 q18 -33 37.5 -51.5t38 -28.5t36 -13t31.5 -3h2q45 0 83 12t73 35q-23 51 -50.5 96t-68.5 78t-99 52q-52 16 -124 16h-16z" />
<glyph unicode="R" horiz-adv-x="1089" d="M35 1264q-5 16 -5 31q0 23 12 47q19 38 60 51q291 94 494 94q44 0 84 -4q115 -10 192 -60q82 -47 121 -135q24 -57 25 -122q0 -44 -12 -91q-12 -51 -38 -102t-61 -105q-70 -98 -173 -187t-230 -159q6 -23 27.5 -60.5t64.5 -84.5q18 -20 52 -50t81 -57.5t106.5 -48 t129.5 -22.5q41 -2 70.5 -33t29.5 -72q-2 -41 -31.5 -70.5t-70.5 -29.5h-2q-123 2 -246 53q-104 45 -197 123q-53 47 -96 96q-4 -43 -7 -86t-7 -88q-4 -41 -33 -67.5t-70 -26.5h-8q-43 4 -71 37q-24 29 -24 64q0 5 1 10q12 143 21 272q10 129 12 253q1 39 0 78q0 85 -4 171 q-6 125 -21 258q-4 23 3 43t19 37q-16 -4 -33.5 -10.5t-35.5 -12.5q-16 -5 -32 -5q-24 -1 -46 11q-37 18 -51 60zM348 1249q27 -10 44.5 -31.5t21.5 -50.5q16 -119 21 -228t5 -218q96 57 171 124.5t128 139.5q47 66 65 126q9 31 9 56q0 23 -8 41t-25.5 31.5t-39 22t-43 12.5 t-38.5 6q-24 2 -54 2q-29 0 -67 -2q-74 -4 -190 -31z" />
<glyph unicode="S" horiz-adv-x="839" d="M23 512v5q-1 41 27 69q30 30 71 30h6q39 0 67 -26q30 -28 33 -72q2 -82 23.5 -139t53.5 -94t72 -53.5t81 -18.5h8q47 1 89 23q46 24 50 73q1 8 1 15q0 66 -48 129q-33 39 -77 76.5t-91 76.5q-57 47 -112.5 95.5t-100.5 107.5q-96 127 -96 273q0 20 2 40q16 135 88 217 q78 90 197 95h14q67 0 133 -34q72 -38 131 -112q121 -147 164 -407q1 -8 1 -17q0 -33 -20 -60q-24 -34 -67 -42q-8 -1 -16 -1q-32 -1 -60 19q-35 24 -41 66q-23 129 -56.5 202.5t-64.5 110.5q-29 35 -57.5 53.5t-54.5 16.5q-35 0 -57.5 -35t-28.5 -92q-1 -11 -1 -22 q0 -35 10 -66q13 -41 44 -81t76 -81t102 -86q53 -43 105.5 -89t93.5 -99q92 -117 92 -252q0 -18 -2 -37q-12 -133 -127 -215q-45 -31 -101.5 -48.5t-115.5 -17.5h-14q-82 4 -157 38t-132 93q-131 137 -137 373z" />
<glyph unicode="T" horiz-adv-x="966" d="M16 1300q6 41 40 67q29 23 64 23q5 0 11 -1q90 -13 171 -15q31 -1 61 0q48 0 94 2q29 15 59 15h4q16 0 31 -9q76 10 141.5 22.5t124.5 27.5q13 3 25 3q28 1 53 -15q37 -22 47 -64q3 -13 3 -25q1 -27 -15 -52q-22 -36 -64 -46q-59 -14 -123.5 -26.5t-136.5 -22.5 q-10 -156 -10 -302q0 -37 1 -73q3 -180 11 -367q4 -92 6 -183t4 -185q0 -43 -29.5 -74t-72.5 -31t-72.5 30t-29.5 73q-2 92 -4 182t-7 180q-8 176 -11 358q-1 42 -1 84q0 142 8 291h-34q-123 0 -261 19q-42 4 -68 38q-22 27 -21 60q0 8 1 16z" />
<glyph unicode="U" horiz-adv-x="1245" d="M31 1317v6q1 39 27 69q28 32 69 35h6q39 -1 69 -27q32 -28 34 -69q4 -45 5 -97t5 -108q2 -78 6 -162.5t10 -171.5t15.5 -171t25.5 -160q6 -31 18.5 -78t31 -91t44 -76t56.5 -32q43 0 85 69t74 196q74 279 95 845q3 41 33 71q28 28 68 28h5q37 -2 69 -30q30 -26 29 -71v-6 v-66.5t1 -121t4.5 -158.5t11.5 -182q14 -170 34.5 -277.5t42 -171t40 -90t28.5 -33.5q8 -6 11 -6h10q13 3 25 3q27 1 52 -15q36 -22 46 -64q3 -13 3 -25q0 -27 -16 -51q-22 -36 -63 -46q-29 -6 -56 -7q-78 0 -141 52q-98 82 -156 295q-39 -127 -98 -209t-123.5 -107.5 t-111.5 -25.5q-27 0 -57.5 5t-63.5 21.5t-65.5 46t-61.5 76.5q-68 104 -105 293q-16 80 -26 169t-17.5 179t-11.5 179t-6 169q-2 55 -4 106.5t-6 92.5z" />
<glyph unicode="V" horiz-adv-x="995" d="M49 1125.5q0 95.5 17 168.5q8 42 44 66q25 17 53 17q11 0 23 -3q40 -10 64 -46q16 -25 17 -53q0 -12 -3 -24q-9 -51 -9 -128q0 -53 4 -119q11 -160 48 -357q16 -86 37 -169t43 -148q8 -25 15.5 -44.5t13.5 -35.5q20 35 43 82q33 66 65.5 148.5t67.5 176.5 q37 100 67.5 199.5t53 191t38 172t21.5 142.5q4 40 36 68q28 24 64 25q5 0 11 -1q41 -4 69 -36q24 -28 24 -64q0 -5 -1 -11q-8 -90 -29.5 -194.5t-51.5 -213t-64.5 -214t-67.5 -195.5q-39 -104 -78 -193t-74 -157q-45 -78 -75 -117q-6 -6 -16.5 -18t-27 -24.5t-37.5 -21.5 t-46 -9h-7q-66 6 -110 65q-37 47 -67.5 128t-55.5 167t-41 163t-23 116q-10 51 -23 134t-22.5 177t-9.5 189.5z" />
<glyph unicode="W" horiz-adv-x="1265" d="M40 1365q8 42 42 67q27 19 58 19q9 1 19 -1q42 -8 66 -43q33 -47 55.5 -135t38.5 -240q10 -72 16.5 -148.5t12.5 -154.5q14 78 28.5 153.5t31.5 143.5q16 66 30.5 114t30.5 85q23 47 47 75q29 35 57.5 45.5t51.5 10.5q66 0 116 -47q78 -78 97.5 -268.5t23.5 -495.5v-13 q10 61 21.5 126t21.5 130q14 92 29.5 181.5t32 167t33 143.5t34.5 111q16 41 54 57q19 8 38.5 8t40.5 -8q39 -16 55 -55q8 -20 9 -40q0 -19 -8 -38q-16 -39 -30.5 -99.5t-29 -134t-28 -157.5t-27.5 -168q-23 -127 -44.5 -252t-45.5 -223q-14 -57 -26.5 -100.5t-28.5 -74.5 q-16 -43 -43 -71q-29 -29 -55.5 -39t-49.5 -10q-10 0 -26.5 3t-35 14t-36 32.5t-29.5 58.5q-14 43 -20 121q-6 66 -8.5 150t-2.5 176q-2 106 -4 210.5t-10 196.5q-4 35 -7 62.5t-7 50.5q-10 -29 -17.5 -63.5t-17.5 -75.5q-23 -100 -43.5 -216t-36.5 -225 q-14 -86 -27.5 -163.5t-25.5 -137.5q-8 -35 -14.5 -59.5t-12.5 -42.5q-8 -27 -20 -47q-25 -37 -55 -46.5t-44 -9.5q-68 0 -100 66q-4 10 -8 21.5t-8 27.5q-4 20 -8.5 46t-8.5 63q-8 61 -13 144t-11 175q-8 121 -17.5 249t-23.5 241q-10 84 -19.5 138t-17.5 85t-14.5 43 t-8.5 14q-19 27 -19 58q0 9 2 19z" />
<glyph unicode="X" horiz-adv-x="1198" d="M40 67q-1 7 -1 13q0 34 22 61q20 27 46 54.5t55 62.5q66 74 148.5 174t178.5 240q-16 33 -30.5 63.5t-30.5 61.5q-63 131 -129 252.5t-168 234.5q-26 29 -26 66q1 4 1 9q4 42 33 71q29 26 66 26h9q42 -4 71 -35q117 -129 189.5 -264t137.5 -270l6 -13q61 102 124 221 t124 261q16 39 56 54q19 7 38 7q21 0 41 -8q39 -16 53 -56q7 -19 7 -38q0 -21 -8 -41q-80 -186 -163 -338t-163 -277q70 -125 163 -247.5t238 -243.5q33 -29 37 -70q1 -5 1 -10q0 -35 -25 -65q-31 -37 -78 -37q-39 0 -66 24q-106 88 -194 186.5t-164 211.5 q-10 16 -19.5 31.5t-19.5 31.5q-84 -113 -155.5 -198t-129.5 -150q-29 -31 -52 -58.5t-40 -50.5q-33 -39 -82 -39q-31 0 -63 23q-33 27 -38 69z" />
<glyph unicode="Y" horiz-adv-x="788" d="M21 1042q2 150 18 338q4 41 37 69q29 25 65 25q6 0 11 -1q41 -4 68 -37q25 -29 25 -64q0 -5 -1 -10q-19 -196 -19 -346q0 -115 11 -203q10 -80 24 -115.5t23 -46.5q8 4 22 15.5t37 38.5q55 66 107 176q55 123 85.5 260t30.5 266q0 43 31 72.5t72 29.5q43 0 72.5 -29.5 t29.5 -72.5q0 -96 -2 -185t-9 -181.5t-22.5 -191.5t-42 -216t-66.5 -256t-98 -309q-10 -33 -36.5 -51.5t-59.5 -18.5q-12 0 -33 4q-41 14 -59 52q-10 21 -10 44q0 17 6 35q37 115 67.5 212t53.5 183q-39 -37 -78 -55q-51 -28 -103 -28h-4q-53 1 -100 32q-109 70 -139 303 q-14 99 -14 229v33z" />
<glyph unicode="Z" horiz-adv-x="1073" d="M92 467q27 47 64 100.5t86 114.5q88 109 190.5 217.5t192.5 200.5q29 29 55.5 56.5t50.5 53.5q-61 -12 -126.5 -22t-129.5 -14q-15 -1 -30 -1q-165 0 -244 84q-27 29 -27 68v5q2 42 35 71q29 28 69 28q2 -1 4 -1q42 -2 70 -33l5 -3t17.5 -6.5t35 -6.5t57.5 -1 q55 2 118.5 13.5t123.5 21.5q111 23 179 29q9 1 18 1q57 0 98 -34q43 -39 43 -96q0 -27 -13.5 -55.5t-45.5 -67.5t-84 -95.5t-132 -138.5q-92 -94 -189.5 -196.5t-181.5 -206.5q-59 -72 -94 -125t-52 -89t-22.5 -57.5t-5.5 -31.5q0 -23 3 -34t8 -15q4 -2 21 -8.5t69 -8.5 q47 0 109.5 5.5t135.5 13.5q72 8 154 16t174 12h6q39 -1 68 -27q31 -28 35 -71v-5q0 -38 -27 -68q-29 -32 -72 -33q-88 -4 -166.5 -11.5t-150.5 -15.5q-74 -8 -138.5 -14t-119.5 -6h-12q-47 2 -109.5 13t-114.5 56q-77 71 -77 198q0 99 69 220z" />
<glyph unicode="[" horiz-adv-x="935" d="M23 541q2 121 6 239.5t10 218t13 171t14 98.5q8 29 32.5 65.5t77.5 65.5q57 31 148 43q74 12 156.5 13t158.5 1h59q43 0 73 -29.5t30 -72.5t-30 -73t-73 -30h-59h-129t-125 -6q-66 -8 -91.5 -18t-29.5 -15q-4 -20 -9 -80.5t-11 -149.5t-10.5 -200.5t-4.5 -232.5 q-2 -213 6.5 -344t19.5 -204t21.5 -98.5t12.5 -27.5q23 -25 47 -36t55 -11t73 8t97 25q59 16 125 31.5t137 15.5q41 0 72 -30t31 -73t-31 -72.5t-72 -29.5q-51 0 -103 -12.5t-104 -26.5q-53 -16 -109.5 -28.5t-113.5 -12.5h-6q-147 4 -248 113q-12 14 -26.5 35.5t-27.5 59.5 t-24.5 95.5t-19.5 141.5q-18 186 -18 473z" />
<glyph unicode="]" horiz-adv-x="972" d="M23 -297q-10 41 13 77t64 46q94 23 194.5 16.5t192.5 -16.5q41 -4 78 -8t68 -4q23 0 35 1t20 3q8 41 16.5 116.5t15.5 175t12 216t7 241.5q4 133 1 248t-11 207q-10 129 -23.5 177t-17.5 54q-35 33 -88 29t-147 -29q-63 -16 -127 -28.5t-129 -1.5q-43 6 -69 39.5 t-19 76.5q6 41 39.5 67t76.5 19q35 -4 80 5.5t96 21.5q49 12 100.5 23.5t104.5 11.5h2q137 0 228 -90q14 -12 27.5 -34t25.5 -57.5t23.5 -92t19.5 -140.5q8 -96 12 -217t2 -262q-2 -127 -7 -256t-13 -241.5t-18.5 -202t-22.5 -138.5q-18 -74 -82 -112q-45 -27 -113 -33 q-10 -2 -22.5 -2h-24.5q-41 0 -86 4t-92 8q-80 10 -166 15.5t-156 -11.5q-41 -10 -75.5 13.5t-44.5 64.5z" />
<glyph unicode="_" horiz-adv-x="1202" d="M77.5 -387q-16.5 39 0.5 78q16 41 55 57t78 0q4 -2 49 -6t111.5 -7t146.5 -5t154 0q45 2 99 5t103.5 6t88 6t53.5 7q41 8 75.5 -16.5t43.5 -65.5q8 -41 -15.5 -76.5t-66.5 -44.5q-20 -4 -63.5 -8t-96.5 -7t-110.5 -6t-104.5 -5h-50t-86 -1t-87 -1h-49q-29 0 -56.5 1 t-52.5 3q-102 6 -162 31q-41 16 -57.5 55z" />
<glyph unicode="`" horiz-adv-x="499" d="M45 1372q-16 41 0 79t57 54t79 0t55 -57q25 -61 74.5 -120.5t115.5 -106.5q35 -25 42 -67t-17 -77q-16 -23 -38.5 -33t-45.5 -10q-33 0 -60 19q-23 14 -56.5 42.5t-70.5 68.5t-73.5 92.5t-61.5 115.5z" />
<glyph unicode="a" d="M29 442q18 242 116 412q53 92 121 144.5t142 60.5q9 1 18 1q37 0 84 -12q59 -16 121 -81q43 -47 76.5 -114t62.5 -155q4 -15 4 -29q0 -23 -9 -43q-15 -34 -48 -51q37 -7 59 -37q19 -25 20 -57q0 -6 -1 -12q-3 -36 -3 -67q0 -58 10 -100q15 -62 27 -85q31 -10 52.5 -35.5 t21.5 -60.5v-5q1 -40 -27 -69q-30 -31 -71 -31h-9q-62 0 -110 52q-12 14 -23.5 30.5t-21.5 36.5q-12 -16 -29 -29q-55 -51 -121.5 -77.5t-134.5 -26.5q-10 0 -21 1t-22 1q-70 10 -126 46t-95 95q-66 96 -66 236q0 29 3 61zM231 424q-2 -21 -2 -40q0 -78 33 -126 q27 -43 78 -49q10 -2 20 -2q26 0 54 11q39 15 73.5 51t62.5 92.5t42 134.5q10 49 57 73q-27 4 -47 22.5t-29 47.5q-35 113 -73.5 165t-67.5 52h-2q-20 -2 -51 -29.5t-60.5 -81t-54 -133.5t-33.5 -188z" />
<glyph unicode="b" horiz-adv-x="798" d="M29 117q6 37 34.5 61.5t65.5 24.5q0 98 2 190t6 185q4 195 6 382v42q0 167 -14 344q-1 5 -1 11q0 35 24 63q28 32 71 36q5 1 11 1q36 -1 64 -25q32 -28 36 -70q8 -96 11 -187.5t3 -183.5q35 16 68 25.5t63 13.5q20 2 39 3q93 0 164 -58q57 -51 84 -131q25 -68 25 -152 q0 -80 -19.5 -165t-56.5 -165q-80 -178 -223 -278q-133 -92 -293 -92q-47 0 -86 8q-41 6 -67 41q-19 26 -19 55q0 10 2 21zM334 229q39 20 71.5 49t57 60t41 59.5t26.5 51.5q27 59 41.5 121.5t14.5 119.5q0 53 -12.5 85t-24.5 44q-12 9 -32 9q-17 0 -40 -7q-49 -14 -112 -57 q-4 -4 -9.5 -5t-9.5 -5q-2 -45 -3 -90.5t-1 -92.5q-4 -84 -5 -169t-3 -173z" />
<glyph unicode="c" horiz-adv-x="651" d="M31 526q10 92 32.5 170t57.5 138q68 123 176 161q37 13 74 13q28 0 55 -8q63 -18 111 -68q28 -29 28 -69q0 -45 -33 -75q-29 -28 -69 -28h-5q-42 2 -71 33q-10 10 -15 10t-10 -2q-12 -4 -30.5 -21.5t-37 -53.5t-35.5 -90t-26 -132q-2 -25 -3 -50q0 -34 6 -68 q8 -58 30 -105q18 -37 35.5 -53.5t28.5 -16.5q6 0 17 9t25.5 35t29 69t24.5 108q6 44 41 68q28 20 60 19q8 0 16 -1q41 -6 67 -41q21 -28 20 -61q0 -8 -1 -15q-31 -190 -109 -292q-39 -53 -96 -82q-41 -21 -92 -21q-20 0 -29 2q-66 8 -123 56.5t-98 125.5q-34 72 -48 158 q-7 47 -8 97q0 40 5 81z" />
<glyph unicode="d" horiz-adv-x="833" d="M41 494q-4 31 -4 60q0 32 5 64q9 60 36.5 111t71.5 88q84 73 202 73q14 0 29 -1q80 -6 160 -39q-2 102 -6.5 214t-16.5 245q-1 6 -1 11q-1 36 23 64q26 32 68 37q6 1 11 1q36 0 65 -24q33 -26 37 -69q18 -186 21 -335.5t3 -278.5q0 -127 3.5 -251t21.5 -263 q33 -31 39 -74v-10q-1 -35 -25 -64q-28 -33 -69 -37q-18 -2 -34.5 -2h-33.5q-43 0 -83 4.5t-79 12.5q-102 23 -184 73q-156 94 -225 261q-27 63 -35 129zM242 570q-1 -11 -2 -23q0 -52 24 -105q8 -18 26.5 -50t53.5 -65.5t88 -61t129 -40.5q-12 109 -15 205t-5 193 q-86 49 -155 59q-17 2 -32 2q-45 0 -71 -22q-35 -30 -41 -92z" />
<glyph unicode="e" horiz-adv-x="819" d="M16 537q0 59 47 90q25 184 130 307q55 66 125.5 102.5t148.5 40.5h17q64 1 116 -25q59 -30 94 -85t34.5 -125t-36.5 -137q-59 -117 -203 -185q-96 -47 -227 -69q2 -10 2 -21.5t2 -23.5q14 -106 48 -157.5t65 -55.5q18 -2 46 12t56.5 49t58 91t52.5 138q12 41 49 61 q23 13 48 13q15 0 30 -4q41 -10 61 -47q13 -23 13 -47q0 -15 -5 -31q-55 -205 -165 -322q-53 -59 -115 -88.5t-125 -29.5h-18q-123 10 -207 125q-72 100 -95 268q-6 39 -6 78q-37 29 -41 78zM279 662q98 23 154 60.5t79 78.5q12 26 12 41q0 10 -4 16q-10 14 -41 14h-4 q-70 -4 -127 -69q-45 -53 -69 -141z" />
<glyph unicode="f" horiz-adv-x="815" d="M23 440q-2 10 -2 19q0 30 19 57q26 35 66 43q27 4 57 7t62 7q-8 76 -20 154t-23 150q-16 102 -30 187q-10 66 -10 119q0 16 1 31q4 98 56 162q53 66 139 78q17 2 33 2q79 0 149 -49q90 -61 121 -164q6 -17 6 -34q0 -23 -11 -45q-20 -38 -61 -50q-17 -6 -33 -6 q-23 0 -44 12q-37 19 -52 60q-12 41 -37.5 57t-41.5 14q-6 -2 -11 -6q-2 -2 -5 -10t-3 -27v-15q0 -46 10 -114q11 -80 25 -170q12 -74 24.5 -153.5t20.5 -159.5q61 10 120.5 22.5t108.5 32.5q20 8 39 8q21 0 40 -9q39 -17 55 -58q8 -19 8 -38q0 -20 -9 -40q-16 -39 -57 -55 q-68 -27 -143.5 -42.5t-151.5 -25.5q-4 -98 -20 -168q-33 -125 -103 -192q-33 -29 -71 -29q-43 0 -74 31q-29 29 -29 71.5t31 71.5q18 18 36.5 62.5t22.5 130.5q-55 -6 -90 -13q-6 -2 -18 -2q-37 0 -65.5 24.5t-34.5 61.5z" />
<glyph unicode="g" horiz-adv-x="774" d="M26 374q-1 18 -1 35q0 63 16 130q37 152 141 284q90 115 211 178q101 53 202 53q35 0 71 -7q41 -8 66 -43q18 -26 18 -56q0 -10 -2 -20q-10 -53 -60 -76q-10 -195 -13 -351.5t-5 -285.5q-2 -123 -4 -221t-13 -174q-8 -63 -30.5 -134t-81.5 -124q-66 -59 -185 -76 q-18 -2 -37.5 -3t-42.5 -1q-33 0 -72.5 3t-86.5 7q-41 4 -67 38q-24 30 -24 64q0 6 1 11q4 43 37 69q28 24 64 24q5 0 11 -1q35 -4 76 -7q31 -2 59 -2h19q37 1 66.5 7t46.5 20q27 23 38 89.5t15 166.5q-137 18 -232 74q-113 68 -166 182q-29 68 -35 147zM232 395 q2 -47 18 -84q29 -63 89 -93t126 -40v41q2 121 4 268.5t12 329.5q-41 -23 -75.5 -54.5t-63.5 -66.5q-37 -47 -62.5 -99t-37.5 -103q-11 -43 -11 -83q0 -8 1 -16z" />
<glyph unicode="h" horiz-adv-x="948" d="M40 1436q15 39 54 55q22 9 43 9q19 0 37 -7q39 -14 55 -53q83 -188 101 -386q13 -138 12 -286q0 -64 -2 -129q51 84 96 143q90 121 160 156q27 14 50.5 16t42 -1t32.5 -9t20 -12q29 -18 44.5 -48t21.5 -64q5 -26 5 -53q0 -9 -1 -19q-2 -38 -6 -74q-6 -55 -13.5 -109.5 t-15.5 -107.5q-10 -61 -17 -117.5t-11 -103.5q-4 -33 -3 -53.5t3 -30.5q16 4 40 14q20 8 40 8q18 0 38 -7q40 -15 56 -54q8 -20 8 -41q0 -19 -6 -38q-14 -40 -54 -57q-68 -29 -125 -32h-12q-41 0 -68.5 11t-43.5 26q-29 20 -45.5 49.5t-24.5 61.5t-9 63.5t-1 58.5 q2 59 11 129t21 143q6 41 12.5 84t12.5 86q-33 -43 -65.5 -96t-65.5 -112q-76 -135 -115 -236.5t-39 -142.5q-2 -41 -31.5 -71t-70.5 -30h-4q-43 2 -72 33q-26 28 -26 66v8q2 88 6 170t8 162q8 141 13 269q2 58 2 114q0 67 -3 131q-6 116 -26.5 223.5t-65.5 210.5 q-10 22 -10 44q0 18 7 36z" />
<glyph unicode="i" horiz-adv-x="307" d="M23 638q2 114 12 200q5 42 37 68q28 22 64 23q6 0 11 -1q41 -4 68 -37q24 -29 24 -65q0 -5 -1 -11q-8 -75 -12 -177q-2 -48 -1 -95q0 -55 2 -111q4 -135 15.5 -197.5t17.5 -72.5q16 -25 16 -53q0 -12 -4 -25q-10 -41 -45 -64q-23 -14 -55 -14q-57 0 -86 47 q-31 45 -45 154q-6 41 -10 92t-6 111q-3 77 -3 153q0 37 1 75zM51 1154q-5 15 -5 30q0 24 13 47q4 6 7.5 12t5.5 10v17q0 43 29.5 72.5t72.5 29.5t72.5 -29.5t29.5 -72.5q0 -18 -1 -35.5t-5 -34.5q-4 -18 -12 -32.5t-18 -34.5q-31 -53 -90 -54q-25 1 -50 13q-37 22 -49 62z " />
<glyph unicode="j" horiz-adv-x="395" d="M-139 -391q12 41 50 61q21 11 44 11q17 0 35 -7q35 -10 49 -4t20 11q8 8 22.5 27.5t30 58t28 102t18.5 158.5q4 71 4 152q0 100 -6 215q-13 208 -52 466q-1 8 -1 15q0 32 21 60q26 34 66 40q8 1 16 1q33 0 61 -20q34 -26 40 -67q61 -405 61 -702q0 -93 -6 -175 q-25 -367 -169 -487q-55 -47 -127 -60q-10 -2 -20.5 -2h-20.5q-45 0 -101 17q-41 14 -60 51q-10 20 -10 42q0 18 7 36zM63 1221q-8 20 -8 40q0 19 9 39q16 37 57 54q19 8 38 8l40 -8q39 -17 55 -56q22 -62 22 -139v-18q-2 -41 -31.5 -70t-70.5 -29h-4q-43 2 -72 33 q-26 29 -26 68v6q0 53 -9 72z" />
<glyph unicode="k" horiz-adv-x="903" d="M27 76q4 35 5 71.5t5 75.5q10 166 22.5 343t16.5 339q2 86 2 155.5t-4 123.5q-4 70 -9.5 97.5t-9.5 33.5q-19 27 -19 57q0 8 2 16q6 40 36 66q30 24 65 24q5 0 11 -1q40 -4 69 -39q23 -29 37 -79t20 -134q4 -57 6 -131q1 -28 1 -60q0 -50 -2 -108q0 -31 -1 -63t-4 -66 q27 20 53.5 41.5t55.5 46.5q123 109 200 207t97 176q10 40 47 62q24 14 51 15q13 0 27 -4q41 -11 63 -47q15 -25 14 -51q0 -13 -3 -26q-59 -227 -363 -488q-37 -31 -70.5 -58.5t-64.5 -49.5q57 -35 122.5 -83.5t124 -113t103.5 -145t62 -179.5q2 -10 2 -20q-1 -30 -19 -56 q-24 -34 -65 -42q-4 0 -9.5 -1t-9.5 -1q-37 0 -65.5 24.5t-34.5 61.5q-31 184 -238 329q-27 16 -51 31.5t-47 28.5q-4 -66 -8 -127.5t-8 -118.5q-4 -39 -6.5 -75t-4.5 -71q-4 -41 -32.5 -68.5t-69.5 -27.5h-6q-43 4 -71 36q-25 28 -25 63v10z" />
<glyph unicode="l" horiz-adv-x="286" d="M28 458v110q0 148 3 302q4 135 4 274.5t-6 285.5v10q-1 38 25 64q30 30 71 34h6q39 0 67 -26q30 -28 35 -72q7 -150 7 -292v-32q0 -126 -4 -248q-4 -182 -4 -357v-43q0 -196 30 -394q1 -8 1 -16q-1 -33 -21 -61q-26 -34 -66 -40h-14q-39 0 -67.5 24.5t-35.5 63.5 q-29 211 -31 413z" />
<glyph unicode="m" horiz-adv-x="1363" d="M23 975q0 43 30.5 72.5t71.5 29.5q63 0 113 -49q12 -14 26.5 -36.5t26.5 -57.5t23.5 -88t19.5 -129q16 47 30.5 85t28.5 70q16 39 30.5 68t29.5 51q6 8 16 22.5t26.5 29t38 24.5t50.5 10q57 -4 92 -45q10 -10 18 -25.5t17 -31.5q10 -23 18 -53.5t14 -71.5q4 -20 7.5 -43 t7.5 -47q2 4 4 9t4 11q74 172 164 230q51 35 104 35q24 0 49 -7q23 -4 53.5 -23.5t51.5 -70.5q16 -43 18 -104q2 -22 2 -45q0 -31 -3 -63q-5 -58 -9 -124q-6 -68 -11 -138q-4 -50 -4 -93q0 -18 1 -35q4 -78 15 -107.5t17 -35.5q4 -4 8.5 -7.5t20.5 -3.5q43 0 73 -29.5 t30 -72.5q0 -41 -30 -71.5t-73 -30.5q-109 0 -178 75q-41 45 -62.5 111t-25.5 164q-2 29 -2 58q0 44 4 88q6 74 12 147q4 45 7 86t3 75q-25 -37 -58.5 -116.5t-70.5 -222.5q-20 -74 -35.5 -145t-25.5 -126t-17 -88l-6 -33q-4 -41 -36 -67q-27 -22 -61 -22q-5 0 -11 1 q-41 4 -67.5 33t-26.5 70v32q0 33 -1 86.5t-3 123t-7 143.5q-4 90 -9 155.5t-11 114.5q-18 -51 -43 -123t-57 -170q-25 -78 -45.5 -149.5t-37 -127t-26.5 -89.5l-10 -35q-10 -35 -36.5 -55.5t-61.5 -20.5h-17q-39 8 -63 38q-23 28 -23 65v6l2 32q2 33 3 86.5t2 123t1 143.5 q-2 113 -8 189.5t-14 125.5t-15.5 75.5t-13.5 37.5q-29 10 -49 35.5t-20 60.5z" />
<glyph unicode="n" horiz-adv-x="888" d="M34 950q12 41 52 62q23 12 47 12q15 0 30 -4q40 -12 60 -49q53 -92 80 -199q98 238 223 287q32 13 63 13q55 0 105 -40q76 -61 99 -217q7 -50 7 -107q0 -98 -20 -214q-11 -73 -11 -132q0 -36 4 -68q11 -83 50 -118q33 -29 36 -71v-8q0 -37 -25 -66q-29 -31 -71 -34h-8 q-37 0 -67 26q-29 25 -55.5 64.5t-45 100t-22.5 144.5q-1 15 -1 30q0 73 16 164q15 96 15 172q0 43 -5 80q-2 23 -5 40.5t-7 27.5q-16 -18 -40 -58t-51 -108q-45 -111 -82.5 -263.5t-66.5 -340.5q-6 -39 -35 -62.5t-65 -23.5h-13q-41 4 -67 34q-23 26 -24 61q0 5 1 11 q6 131 7 243v22q0 99 -8 185q-9 95 -30.5 175t-58.5 151q-15 24 -15 50q0 14 4 28z" />
<glyph unicode="o" horiz-adv-x="710" d="M26 374q-2 29 -2 58q0 54 7 109q12 92 40.5 173t71.5 144q47 74 115 119q72 51 164 51h4q20 0 48 -6t57.5 -24.5t58 -53.5t51.5 -92q23 -59 36 -133t13 -158q-4 -205 -69 -356q-31 -68 -68 -109t-75 -62.5t-72.5 -28.5t-59.5 -7q-35 0 -76 10q-80 23 -139 84 q-47 53 -76 135q-23 66 -29 147zM228 402q3 -52 15.5 -94t33 -68.5t47.5 -34.5q8 -2 22 -2q20 0 37.5 15t33 40t27 55.5t19.5 61.5q16 69 20 149q1 23 1 45q0 55 -7 107q-12 78 -29.5 110.5t-25.5 36.5q-31 0 -60.5 -24.5t-55 -66.5t-45 -98t-28.5 -120q-6 -43 -6 -82 q0 -16 1 -30z" />
<glyph unicode="p" horiz-adv-x="794" d="M32 886q13 40 48 62q98 55 179 76q74 18 134 18h11q65 -2 112 -20t78 -37q100 -61 151 -184q37 -88 37 -188q0 -26 -2 -52q-6 -88 -36.5 -171t-84.5 -157q-119 -166 -323 -253l-4 -3q6 -94 14 -180t19 -164q1 -7 1 -15q0 -32 -22 -60q-27 -33 -68 -39h-14 q-37 0 -66.5 24.5t-33.5 63.5q-16 119 -26.5 255t-15.5 283.5t-6 303t-1 311.5q-43 6 -70 49q-15 24 -15 49q0 14 4 28zM317 827q0 -160 1 -316.5t6 -309.5q63 37 110 84t78 97t46.5 100.5t19.5 95.5q1 15 1 29q0 61 -21 112q-26 63 -73 94q-41 25 -94 25q-34 0 -74 -11z " />
<glyph unicode="q" horiz-adv-x="892" d="M16 348q-1 20 -1 41q0 129 55 258q68 168 200 275q154 121 353 131h10q35 0 63 -25q31 -29 33 -72q2 -33 -14.5 -59.5t-44.5 -38.5q0 -66 -2 -145.5t-6 -167.5q-4 -137 -8 -285q-4 -102 -4 -196q0 -42 1 -82q2 -57 3 -105.5t5 -87.5q29 59 61 141t68 187q14 41 52 59 q22 10 45 10q17 0 35 -6q41 -16 59 -53q10 -21 10 -43q0 -17 -6 -35q-96 -279 -170 -409q-35 -70 -74 -109q-31 -31 -59.5 -42t-50.5 -11q-8 0 -14.5 1t-10.5 1q-23 4 -52.5 21.5t-51.5 64.5q-10 18 -17.5 41.5t-11.5 54.5q-10 47 -15 108.5t-7 141.5q-2 16 -2.5 31.5 t-0.5 31.5q-16 -4 -33.5 -4h-33.5q-100 0 -163.5 37t-94.5 72q-92 100 -105 268zM221 369q2 -47 14 -86t37 -66q38 -42 105 -42q32 0 69 9q2 92 4.5 184.5t6.5 182.5q4 70 5 134.5t3 119.5q-47 -25 -81 -55.5t-59.5 -63.5t-42 -63.5t-24.5 -53.5q-20 -49 -30 -101 q-7 -43 -7 -83v-16z" />
<glyph unicode="r" horiz-adv-x="798" d="M34 1050q12 40 48 62q25 15 51 15q13 1 27 -3q41 -12 63 -49q2 -6 8.5 -17t13.5 -32.5t16 -56.5t20 -88q33 96 65 141q33 47 70 55t53 6q27 -4 47.5 -16t33.5 -27.5t22.5 -32t13.5 -24.5q12 -23 23.5 -51.5t21.5 -57.5q12 -35 25.5 -70.5t29.5 -66.5q20 -37 31.5 -50 t15.5 -15q35 -23 44 -65q3 -12 3 -24q0 -28 -16 -53q-23 -35 -65 -44q-12 -3 -23 -3q-29 0 -53 17q-59 39 -98.5 109.5t-67.5 146.5q-14 -47 -27.5 -111.5t-28.5 -155.5q-16 -109 -26 -196.5t-15 -134.5q0 -2 1 -2t1 -2q0 -31 -2 -52.5t-14 -42.5q-12 -25 -35.5 -38 t-52.5 -13q-63 0 -92 55q-10 20 -11 41t1 46v12q-2 53 -10.5 155.5t-22.5 225.5q-10 82 -19.5 152.5t-19.5 127.5q-16 90 -26.5 118t-12.5 32q-15 25 -15 51q0 13 4 26z" />
<glyph unicode="s" horiz-adv-x="765" d="M51 223q-3 18 -3 39t3 44q6 46 33 102q18 39 58 53q18 6 35 6q22 0 44 -10q39 -19 53 -59q6 -18 7 -34q0 -23 -11 -45q-16 -32 -16 -55q0 -16 8 -28q20 -26 72 -40q32 -8 65 -9q20 0 39 3q41 4 62.5 17.5t25.5 25.5q6 14 4 27.5t-15 29t-41 38t-77 55.5q-43 29 -88 62.5 t-86 74.5q-98 106 -104 240v9q0 119 53 204q66 96 170 106h13q107 0 186 -96q76 -90 94 -254q1 -8 1 -15q0 -32 -22 -60q-26 -34 -67 -40q-6 -1 -11 -1q-36 0 -66 24q-34 27 -38 68q-8 68 -24.5 102.5t-26.5 48.5q-10 12 -16.5 15t-8.5 3q-4 0 -19 -24q-13 -22 -13 -69v-13 q4 -63 53 -109.5t135 -105.5q45 -31 89 -63.5t77 -73.5q58 -74 58 -158q0 -46 -17 -94q-27 -76 -107 -127q-61 -37 -145 -49q-35 -6 -66 -6q-70 0 -133 18q-113 35 -172 115q-12 18 -25.5 44.5t-19.5 63.5z" />
<glyph unicode="t" horiz-adv-x="931" d="M16 862q8 42 43 66q25 17 53 17q11 0 23 -3q2 0 38 -6t91 -12v150.5t1 122.5t2 84t1 36q2 43 33 71q29 27 68 27h6q43 -3 71 -33q27 -28 27 -66v-5t-1 -34t-2 -87t-1 -127t2 -154q78 0 127 7.5t78 16.5t40 18.5t13 11.5q27 33 68 38q6 1 13 1q34 0 62 -23q36 -27 40 -67 q1 -6 0 -12q0 -34 -23 -64q-100 -131 -410 -131h-4q4 -92 10.5 -170t16.5 -142q8 -57 16 -95t14 -60q16 18 34 44.5t36 63.5q37 70 52.5 118t15.5 66q0 43 29.5 73t72.5 30t72.5 -30t29.5 -73t-13 -91t-30.5 -91t-36 -77.5t-28.5 -51.5q-23 -41 -47.5 -74.5t-48.5 -60.5 q-72 -80 -150 -84h-4q-61 0 -108 47q-39 39 -65 112.5t-44 194.5q-10 72 -17.5 163t-11.5 200q-74 8 -121 16t-51 8q-42 8 -66 44q-18 27 -18 56q0 11 2 21z" />
<glyph unicode="u" horiz-adv-x="886" d="M37 936q1 44 33 72q28 25 65 24h10q41 -2 70 -34q27 -29 27 -68v-6q-10 -168 -12 -302v-32q0 -115 10 -201q4 -55 11 -91t13 -56q20 27 52 81t71 146q51 121 97 269.5t81 308.5q10 41 44 63q24 16 52 17q11 0 23 -3q40 -8 64 -40q20 -28 21 -62q0 -6 -1 -12l-4 -30 t-8 -80t-8.5 -116.5t-4.5 -140.5q0 -184 24 -319.5t71 -206.5q16 -25 16 -53q0 -12 -2 -24q-10 -42 -45 -65q-22 -16 -55 -16q-25 0 -47.5 12.5t-38.5 34.5q-78 119 -109 340q-2 -6 -6 -14q-63 -137 -127 -219q-85 -104 -178 -104q-10 0 -19 1q-29 4 -66.5 25.5t-68.5 81.5 q-31 70 -49 178q-17 121 -17 305q0 148 11 336z" />
<glyph unicode="v" horiz-adv-x="761" d="M20 961q-1 5 -1 11q0 36 23 64q26 34 67 39q8 1 16 1q33 0 61 -20q34 -26 39 -69q0 -8 6.5 -49t16.5 -102.5t24.5 -139.5t32.5 -157q27 -125 50.5 -201t39.5 -117q12 35 26.5 88t31.5 137q23 117 41 242t32 223q2 14 4 27.5t5 26.5q5 43 39 69q27 21 60 20q8 0 15 -1 q43 -6 69 -40q21 -28 20 -61q0 -8 -1 -16q-2 -12 -4 -25.5t-4 -27.5q-16 -115 -37.5 -259.5t-50.5 -279.5q-33 -147 -68 -235q-27 -61 -51 -93q-31 -39 -63.5 -50t-55.5 -11q-27 0 -62.5 13.5t-70.5 58.5q-33 41 -63 112q-23 55 -45.5 130t-44.5 169q-20 90 -38 179.5 t-30 162t-19 121.5t-10 60z" />
<glyph unicode="w" horiz-adv-x="1058" d="M23 950q0 43 29.5 73t72.5 30q41 0 71.5 -30t30.5 -73q0 -96 8.5 -224t22.5 -247q6 -43 11 -78.5t10 -66.5q10 37 16 77t14 81q10 66 22.5 128t28.5 115q6 14 16.5 43t30 57.5t48 52t71.5 30.5q12 2 24 2q39 0 75 -25q53 -39 76.5 -129t48.5 -252q4 -33 9 -65.5t11 -65.5 q6 53 11 114.5t12 127.5q8 84 15 168t17 170q4 41 38 67q30 23 64 24q5 0 11 -1q44 -4 70 -38q23 -30 23 -64q0 -5 -1 -11q-10 -84 -17 -168t-16 -166q-10 -111 -20 -210t-21 -177q-12 -84 -24 -131q-6 -18 -11.5 -31.5t-13.5 -25.5q-37 -59 -100 -60h-2q-25 0 -66 13.5 t-77 66.5q-33 49 -58 129q-18 66 -31.5 146t-25.5 157q-4 25 -7 47.5t-8 44.5q-6 -29 -11 -58.5t-11 -59.5q-12 -72 -25.5 -140.5t-32 -128t-46 -107.5t-66.5 -79q-28 -23 -62 -27q-6 -1 -13 -1q-27 0 -54 14q-37 18 -61.5 59t-45.5 119q-25 94 -43 246q-10 66 -17 137.5 t-11 142t-7 137t-3 121.5z" />
<glyph unicode="x" horiz-adv-x="892" d="M33 80q-1 8 -1 16q0 32 19 60q59 82 109.5 143t93.5 115q-78 129 -127 272t-68 297q-1 6 -1 11q0 36 24 66q27 34 68 38q5 1 11 1q35 1 63 -23q34 -26 38 -68q14 -113 47 -218.5t82 -201.5q51 72 97.5 159t99.5 226q16 39 54 57q19 9 39 8q19 0 40 -8q41 -14 57 -52 q9 -20 9 -41q0 -19 -7 -38q-37 -92 -69.5 -163.5t-65.5 -130t-65.5 -107.5t-69.5 -95q127 -161 299 -251q39 -18 51 -58q5 -16 5 -33q0 -24 -11 -47q-14 -27 -38.5 -41t-53.5 -14q-20 0 -47 10q-188 100 -336 273q-35 -43 -75 -93.5t-87 -113.5q-31 -41 -84 -41 q-33 0 -59 18q-35 27 -41 68z" />
<glyph unicode="y" horiz-adv-x="737" d="M24 964q9 37 42 60q26 19 56 19q10 0 20 -3q42 -8 65 -43q12 -16 19 -38.5t12.5 -58.5t9.5 -86t8 -124q4 -72 10 -150.5t17 -148.5q8 -53 15 -85t11 -50q18 14 42 42t48 77q16 33 33 80t29 110.5t17 142.5q2 35 2 75q0 47 -3 100v10q0 35 25 63q28 31 69 35h10 q37 0 65 -25q32 -28 34 -71q10 -162 17.5 -296t10.5 -247q2 -84 2 -158v-48q-1 -93 -5 -171q-10 -199 -47 -318.5t-103 -184.5q-29 -27 -72 -27t-73 31q-28 30 -28 71q0 44 32 74q12 12 24.5 36t24.5 67t21.5 107.5t15.5 156.5q2 39 3 82t1 92q-4 -4 -5 -7t-5 -8 q-96 -106 -205 -112q-14 0 -33.5 3t-41 14t-42 32.5t-37.5 58.5q-27 55 -45 158q-16 86 -23.5 184.5t-13.5 190.5q-2 31 -5 63.5t-6 63.5t-6 54.5t-5 35.5q-10 22 -10 45q0 13 3 26z" />
<glyph unicode="z" horiz-adv-x="868" d="M33 279q6 121 129 260q47 53 102 100t107 90q16 14 36.5 31.5t41.5 34.5q-37 -7 -81 -13q-34 -5 -69 -4h-23q-48 2 -97.5 15.5t-98.5 46.5q-35 24 -43 66q-2 11 -2 22q0 29 16 55q23 35 66 43q11 2 22 2q30 0 56 -16q42 -29 92 -29h12q57 4 117 14q27 4 51.5 8.5 t46.5 4.5h7q75 0 120 -39q56 -48 56 -138q0 -9 -1 -18q-2 -43 -25.5 -76.5t-52.5 -62.5q-23 -25 -53 -50.5t-63 -54.5q-47 -41 -96.5 -84t-90.5 -86q-49 -55 -63 -86.5t-14 -44.5q0 -10 3 -20t19 -27q4 -4 35 -17t113 -18h26q50 0 100 6q64 8 117 13q35 4 59.5 6t43.5 2 q43 0 72.5 -29.5t29.5 -72.5q0 -41 -29.5 -72t-72.5 -31q-10 0 -33 -2t-47 -6q-49 -4 -113.5 -11t-130.5 -7q-18 0 -29 2q-201 4 -288 94q-80 84 -80 185v14z" />
<glyph unicode="{" horiz-adv-x="647" d="M16 549q0 47 29 92q18 29 43 51.5t51 42.5q10 8 22.5 19.5t22.5 21.5l-4 4q-47 41 -76.5 118t-37.5 171q-4 43 -2 85t12 81q23 98 74 156q76 82 161 88q39 4 69 -4.5t52 -16.5q16 -4 21 -6q41 6 72.5 -15.5t41.5 -62.5t-12.5 -76.5t-62.5 -46.5q-37 -10 -69 -3t-54 18 q-10 4 -22.5 7t-16.5 1q-10 0 -27 -19q-16 -18 -26.5 -62t-6.5 -108q4 -61 20.5 -102t26.5 -51q84 -74 80 -162q-2 -68 -45 -115t-84 -80q-6 -4 -13 -10t-15 -12q16 -12 24 -21q39 -31 63.5 -51t39.5 -39q66 -90 28 -219q-14 -43 -34.5 -87t-43.5 -85q-14 -31 -27.5 -58.5 t-23.5 -49.5q-10 -27 -10 -37v-12q0 -4 1 -5.5t1 -3.5q2 0 12.5 -3t34.5 -1q27 2 57.5 7.5t65.5 11.5q20 4 39.5 8t42.5 8q41 6 76 -18.5t41 -67.5q6 -41 -18.5 -76t-67.5 -41q-16 -4 -36 -7t-38 -7q-45 -8 -89 -15.5t-87 -7.5h-17.5t-17.5 2q-152 12 -197 156q-23 78 7 156 t71 155q18 35 34.5 71t27.5 65q4 16 4 25v13q-10 8 -29.5 24.5t-36.5 29.5q-59 45 -80 67q0 2 -4 6q-37 49 -37 103z" />
<glyph unicode="}" horiz-adv-x="534" d="M23 1360q-4 41 22.5 74.5t67.5 38.5q6 2 16 2q57 8 100 10t84 -8q59 -16 94 -55.5t56 -75.5q57 -106 -4 -252q-23 -49 -53.5 -96.5t-59.5 -88.5q-23 -29 -41 -57.5t-24 -44.5q-4 -10 -5.5 -15.5t-3.5 -9.5q6 -4 12.5 -7t12.5 -7q35 -16 81 -49t75 -101q25 -59 15.5 -100 t-26.5 -65q-18 -29 -42.5 -42.5t-47.5 -23.5q-25 -10 -35 -20q-4 -6 -6 -17.5t-2 -17.5q0 -43 33 -108.5t68 -123.5q23 -43 44 -83t38 -76q16 -49 20 -91q4 -41 -7 -68.5t-24 -43.5q-47 -68 -157 -78h-39q-74 0 -179 18q-41 8 -65.5 43t-15.5 76q8 43 42.5 67.5t75.5 16.5 q63 -12 100.5 -15t57.5 -1q-4 4 -6 11t-6 15q-10 23 -25.5 50.5t-32.5 58.5q-47 82 -87 165t-40 167q0 106 62 172q18 23 39.5 36t40.5 23q-8 4 -17.5 10.5t-25.5 14.5q-27 14 -57.5 33.5t-53.5 56.5q-25 43 -24 98q0 47 20 101q12 35 37 71.5t53 77.5q25 37 50.5 77 t41.5 75q8 14 14.5 35.5t-1.5 33.5q-10 20 -15 25l-6 6q-10 4 -43 1t-65 -7q-4 0 -8.5 -1t-8.5 -1q-43 -4 -76.5 22.5t-37.5 67.5z" />
<glyph unicode="&#xa1;" horiz-adv-x="339" d="M47 -319q0 59 3 136t7 163q4 84 8.5 173t6.5 174t0 164.5t-11 145.5q-4 41 23 74.5t68 38.5h12q39 0 67.5 -25t32.5 -66q8 -72 11.5 -155.5t1 -172.5t-6.5 -181.5t-8 -180.5q-4 -82 -7 -156.5t-3 -131.5q0 -43 -29.5 -73t-72.5 -30q-41 0 -72 30t-31 73zM51 913 q0 49 41 80q31 43 82 43q45 0 74 -30q31 -29 31 -74v-8q-2 -16 -10.5 -37t-30.5 -41q-39 -35 -84 -35q-41 0 -72 29.5t-31 72.5z" />
<glyph unicode="&#xa3;" horiz-adv-x="931" d="M31 604q6 41 40.5 65.5t75.5 18.5q16 -4 34 -5t34 -3q2 16 3 32.5t3 32.5q12 125 29.5 219.5t34.5 170.5q35 156 98 245q45 66 93 86.5t83 22.5q39 2 91 -16.5t108 -83.5q70 -82 106 -201q12 -41 -7 -79t-60 -50t-78 7t-49 60q-12 35 -27.5 67t-34.5 54 q-14 18 -24.5 25.5t-14.5 9.5q-4 -2 -11 -9t-17 -26q-10 -18 -25.5 -56t-30.5 -101q-18 -82 -35.5 -177.5t-27.5 -224.5q25 2 48.5 4t47.5 6q61 8 124 13.5t124 5.5q43 0 72.5 -30t29.5 -73q0 -41 -29.5 -71.5t-72.5 -30.5q-53 0 -108.5 -5t-114.5 -11q-33 -4 -65 -7.5 t-66 -7.5q-2 -66 -1 -137.5t5 -153.5q18 -4 48 -6t66 0q59 4 100.5 13.5t57.5 19.5q37 23 78 13.5t63 -46.5q23 -35 14 -76.5t-46 -64.5q-29 -18 -65 -29.5t-71.5 -18.5t-68.5 -10t-57 -5h-35q-45 0 -105.5 7t-105.5 29q-49 27 -61.5 60t-14.5 49q-8 190 -6 350 q-23 2 -46.5 4t-45.5 6q-41 8 -66.5 42t-17.5 77z" />
<glyph unicode="&#xa8;" horiz-adv-x="661" d="M57 1202v12q2 16 10.5 36t30.5 40q39 37 84 37q43 0 73 -30.5t30 -71.5q0 -51 -41 -82q-31 -43 -82 -43q-45 0 -76 30q-29 29 -29 72zM385 1196q-12 41 8.5 78t61.5 47q25 8 49 3t45 -21q2 -2 4 -3.5t4 -3.5q20 -16 33.5 -43.5t3.5 -66.5q0 -2 -4 -19q-10 -35 -38 -54 t-60 -19q-12 0 -29 4q-63 20 -74 84q-2 4 -2 7t-2 7z" />
<glyph unicode="&#xad;" horiz-adv-x="931" d="M75.5 536q-16.5 39 0.5 78q16 41 55 57.5t78 0.5q4 -2 18.5 -6t45 -7.5t79.5 -5.5t123 0q92 4 168 11.5t105 13.5q41 8 75.5 -16.5t42.5 -65.5t-15.5 -77t-66.5 -44q-41 -8 -123.5 -15t-179.5 -11q-20 0 -40 -1.5t-38 -1.5q-29 0 -56.5 1.5t-51.5 3.5q-102 6 -162 30 q-41 16 -57.5 55z" />
<glyph unicode="&#xb4;" horiz-adv-x="499" d="M31.5 1154q7.5 42 42.5 67q66 47 116 106t74 121q16 41 54 57.5t79 -0.5q41 -16 57.5 -54t0.5 -79q-25 -63 -62 -115.5t-73.5 -92.5t-71.5 -68.5t-55 -42.5q-29 -19 -60 -19q-23 0 -45 10.5t-39 32.5q-25 35 -17.5 77z" />
<glyph unicode="&#xb8;" horiz-adv-x="524" d="M59 -471q10 41 47 62.5t78 11.5q47 -12 69.5 -8t27.5 8q0 6 -2 14q-6 14 -28 29.5t-65 19.5q-66 6 -98 62q-31 51 -16.5 107t34.5 104q10 23 15 34q12 41 49 60.5t78 7.5t61.5 -50t5.5 -79q-4 -12 -9 -24.5t-9 -26.5l-4 -8q39 -14 80 -41q68 -49 96 -121 q23 -59 13.5 -118.5t-50.5 -104.5q-51 -59 -131 -74q-14 -4 -28.5 -4h-30.5q-57 0 -109 14q-41 10 -62.5 47t-11.5 78z" />
<glyph unicode="&#xbf;" horiz-adv-x="880" d="M59 -111q23 57 61 112.5t85 117.5q37 49 75.5 102t73.5 113.5t62.5 129t44.5 150.5q8 37 36.5 59.5t63.5 22.5q14 0 21 -2q41 -8 65.5 -43t14.5 -76q-16 -90 -49 -173t-81 -166q-41 -72 -82.5 -130.5t-80.5 -111.5q-45 -59 -73 -99t-40 -68t-11 -48.5t13 -40.5 q16 -6 57 -6t95 22q80 33 141 112t100 197q14 41 51 60.5t78 5.5q41 -12 60.5 -49t7.5 -78q-70 -217 -211 -342q-57 -51 -122.5 -84t-137.5 -43q-37 -6 -78 -6t-79 8t-70 25.5t-50 44.5q-96 133 -41 284zM422 899q0 29 14.5 52.5t36.5 37.5q33 37 82 37q31 0 56.5 -16.5 t37.5 -44.5q8 -16 8 -41q0 -45 -34 -80q-16 -16 -41 -31.5t-58 -15.5q-43 0 -72.5 29.5t-29.5 72.5z" />
<glyph unicode="&#xc0;" horiz-adv-x="1136" d="M24.5 97q2.5 -42 34.5 -70q31 -29 73 -26t71 34q115 131 203 387q53 10 108 23.5t115 25.5q2 2 8 2q0 -2 1 -4t1 -6q35 -117 69.5 -207t69.5 -156q41 -82 90 -131q70 -70 148 -71h4q41 0 70.5 28.5t31.5 69.5t-25.5 71.5t-68.5 34.5q-6 4 -28.5 28t-59.5 101 q-25 55 -50.5 126t-53.5 161q18 4 36.5 7t36.5 7q41 8 65.5 43t16.5 76t-43 65.5t-76 16.5q-23 -4 -45 -8t-45 -8q-41 158 -70.5 307.5t-52.5 253.5q-8 37 -13 66.5t-9 52.5q-8 35 -15.5 58.5t-29.5 41.5q-20 20 -48 25.5t-55 -4.5q-55 -18 -69 -80q-4 -8 -5 -17.5t-5 -21.5 q-6 -41 -19 -111q-10 -59 -23.5 -138t-31 -170t-40 -187.5t-48.5 -190.5q-18 -4 -36.5 -5t-35.5 -3q-41 -4 -68.5 -37t-23.5 -76q4 -37 29.5 -62.5t62.5 -29.5q-29 -66 -59.5 -122t-65.5 -95q-29 -33 -26.5 -75zM164 1901q-16 41 0 78.5t57 54.5q41 16 79 -0.5t54 -57.5 q25 -61 75 -120.5t116 -106.5q35 -25 42 -67t-18 -76q-16 -23 -38.5 -33t-45.5 -10q-33 0 -59 18q-23 14 -56.5 43t-70.5 69t-74 92t-61 116zM473 647q16 63 30.5 126t26.5 124q10 -55 24 -111.5t28 -113.5q-29 -6 -55.5 -12.5t-53.5 -12.5z" />
<glyph unicode="&#xc1;" horiz-adv-x="1136" d="M24.5 97.5q-1.5 41.5 26.5 74.5q35 39 65.5 95.5t59.5 121.5q-37 4 -62.5 29.5t-29.5 62.5q-4 43 23.5 76t68.5 37q16 2 34.5 3t37.5 5q27 94 49 190.5t39.5 187.5t31 170t23.5 138q12 70 19 111q4 12 5 21.5t5 17.5q14 61 69 80q27 10 54.5 5t48.5 -26q23 -18 30 -41.5 t15 -58.5q4 -23 9 -52.5t13 -66.5q23 -104 52.5 -254t70.5 -307q23 4 45.5 8t44.5 8q41 8 76 -16.5t43 -65.5t-16.5 -75.5t-65.5 -43.5q-18 -4 -36.5 -7t-36.5 -7q29 -90 54 -160.5t50 -126.5q37 -78 59.5 -101.5t28.5 -27.5q41 -4 68.5 -34.5t25.5 -71.5t-31.5 -69.5 t-70.5 -28.5h-4q-78 2 -148 71q-49 49 -90 131q-35 66 -69.5 156t-69.5 207q0 4 -1 6t-1 4q-6 0 -8 -2q-59 -12 -114.5 -25.5t-108.5 -23.5q-88 -256 -203 -387q-29 -31 -71 -34t-73 26q-33 29 -34.5 70.5zM435 1682.5q7 41.5 42 66.5q66 47 116 106.5t75 120.5 q16 41 54 57.5t79 0.5t57 -54t0 -79q-25 -63 -61.5 -115.5t-73.5 -92.5t-72 -69t-55 -43q-28 -18 -59 -18q-23 0 -45.5 10t-38.5 33q-25 35 -18 76.5zM473 647q27 6 53.5 12.5t55.5 12.5q-14 57 -27.5 113.5t-24.5 111.5q-12 -61 -26.5 -123.5t-30.5 -126.5z" />
<glyph unicode="&#xc2;" horiz-adv-x="1136" d="M24.5 97q2.5 -42 34.5 -70q31 -29 73 -26t71 34q115 131 203 387q53 10 108 23.5t115 25.5q2 2 8 2q0 -2 1 -4t1 -6q35 -117 69.5 -207t69.5 -156q41 -82 90 -131q70 -70 148 -71h4q41 0 70.5 28.5t31.5 69.5t-25.5 71.5t-68.5 34.5q-6 4 -28.5 28t-59.5 101 q-25 55 -50.5 126t-53.5 161q18 4 36.5 7t36.5 7q41 8 65.5 43t16.5 76t-43 65.5t-76 16.5q-23 -4 -45 -8t-45 -8q-41 158 -70.5 307.5t-52.5 253.5q-8 37 -13 66.5t-9 52.5q-8 35 -15.5 58.5t-29.5 41.5q-20 20 -48 25.5t-55 -4.5q-55 -18 -69 -80q-4 -8 -5 -17.5t-5 -21.5 q-6 -41 -19 -111q-10 -59 -23.5 -138t-31 -170t-40 -187.5t-48.5 -190.5q-18 -4 -36.5 -5t-35.5 -3q-41 -4 -68.5 -37t-23.5 -76q4 -37 29.5 -62.5t62.5 -29.5q-29 -66 -59.5 -122t-65.5 -95q-29 -33 -26.5 -75zM233 1669q0 43 31 72q63 61 91 111.5t44 89.5q6 16 12.5 29.5 t16.5 27.5q25 37 53.5 49t46.5 14q57 4 101 -37q10 -10 20 -23t21 -32q14 -23 24.5 -51.5t22.5 -56.5q16 -41 32.5 -84t38.5 -68q27 -35 23 -76t-37 -69q-28 -25 -65 -25q-45 0 -78 37q-33 39 -55.5 85t-38.5 93q-23 -35 -52.5 -76t-76.5 -86q-31 -29 -74 -28.5t-72 30.5 q-29 31 -29 74zM473 647q16 63 30.5 126t26.5 124q10 -55 24 -111.5t28 -113.5q-29 -6 -55.5 -12.5t-53.5 -12.5z" />
<glyph unicode="&#xc3;" horiz-adv-x="1136" d="M24.5 97q2.5 -42 34.5 -70q31 -29 73 -26t71 34q115 131 203 387q53 10 108 23.5t115 25.5q2 2 8 2q0 -2 1 -4t1 -6q35 -117 69.5 -207t69.5 -156q41 -82 90 -131q70 -70 148 -71h4q41 0 70.5 28.5t31.5 69.5t-25.5 71.5t-68.5 34.5q-6 4 -28.5 28t-59.5 101 q-25 55 -50.5 126t-53.5 161q18 4 36.5 7t36.5 7q41 8 65.5 43t16.5 76t-43 65.5t-76 16.5q-23 -4 -45 -8t-45 -8q-41 158 -70.5 307.5t-52.5 253.5q-8 37 -13 66.5t-9 52.5q-8 35 -15.5 58.5t-29.5 41.5q-20 20 -48 25.5t-55 -4.5q-55 -18 -69 -80q-4 -8 -5 -17.5t-5 -21.5 q-6 -41 -19 -111q-10 -59 -23.5 -138t-31 -170t-40 -187.5t-48.5 -190.5q-18 -4 -36.5 -5t-35.5 -3q-41 -4 -68.5 -37t-23.5 -76q4 -37 29.5 -62.5t62.5 -29.5q-29 -66 -59.5 -122t-65.5 -95q-29 -33 -26.5 -75zM230 1631.5q-11 39.5 12 76.5q20 33 42.5 65.5t49 59.5 t58.5 42t69 15h4q35 0 63.5 -13t49 -31.5t34 -37t19.5 -28.5q10 -16 26 -25q0 4 1 8t1 11q0 41 30 71.5t73 30.5q41 0 71.5 -30.5t30.5 -71.5q0 -78 -33 -138q-37 -66 -104 -84q-24 -8 -53 -8q-53 0 -105 27q-70 31 -108 96q-8 -10 -18.5 -25.5t-24.5 -37.5 q-23 -37 -64 -47.5t-78 12.5q-35 23 -46 62.5zM473 647q16 63 30.5 126t26.5 124q10 -55 24 -111.5t28 -113.5q-29 -6 -55.5 -12.5t-53.5 -12.5z" />
<glyph unicode="&#xc4;" horiz-adv-x="1136" d="M24.5 97.5q-1.5 41.5 26.5 74.5q35 39 65.5 95.5t59.5 121.5q-37 4 -62.5 29.5t-29.5 62.5q-4 43 23.5 76t68.5 37q16 2 34.5 3t37.5 5q27 94 49 190.5t39.5 187.5t31 170t23.5 138q12 70 19 111q4 12 5 21.5t5 17.5q14 61 69 80q27 10 54.5 5t48.5 -26q23 -18 30 -41.5 t15 -58.5q4 -23 9 -52.5t13 -66.5q23 -104 52.5 -254t70.5 -307q23 4 45.5 8t44.5 8q41 8 76 -16.5t43 -65.5t-16.5 -75.5t-65.5 -43.5q-18 -4 -36.5 -7t-36.5 -7q29 -90 54 -160.5t50 -126.5q37 -78 59.5 -101.5t28.5 -27.5q41 -4 68.5 -34.5t25.5 -71.5t-31.5 -69.5 t-70.5 -28.5h-4q-78 2 -148 71q-49 49 -90 131q-35 66 -69.5 156t-69.5 207q0 4 -1 6t-1 4q-6 0 -8 -2q-59 -12 -114.5 -25.5t-108.5 -23.5q-88 -256 -203 -387q-29 -31 -71 -34t-73 26q-33 29 -34.5 70.5zM279 1645v12q2 16 10 35.5t30 40.5q39 36 84 36q43 0 73 -30.5 t30 -71.5q0 -51 -41 -82q-31 -43 -82 -43q-45 0 -76 31q-29 29 -28 72zM473 647q27 6 53.5 12.5t55.5 12.5q-14 57 -27.5 113.5t-24.5 111.5q-12 -61 -26.5 -123.5t-30.5 -126.5zM606 1638q-12 41 8.5 78t61.5 47q25 8 49.5 3t44.5 -21q2 -2 4 -3t4 -3q20 -16 33.5 -44 t3.5 -67q0 -2 -4 -18q-10 -35 -38 -54.5t-60 -19.5q-12 0 -29 4q-63 20 -74 84q-2 4 -2 7t-2 7z" />
<glyph unicode="&#xc5;" horiz-adv-x="1136" d="M24.5 97.5q-1.5 41.5 26.5 74.5q35 39 65.5 95.5t59.5 121.5q-37 4 -62.5 29.5t-29.5 62.5q-4 43 23.5 76t68.5 37q16 2 34.5 3t37.5 5q27 94 49 190.5t39.5 187.5t31 170t23.5 138q12 70 19 111q4 12 5 21.5t5 17.5q14 61 69 80q27 10 54.5 5t48.5 -26q23 -18 30 -41.5 t15 -58.5q4 -23 9 -52.5t13 -66.5q23 -104 52.5 -254t70.5 -307q23 4 45.5 8t44.5 8q41 8 76 -16.5t43 -65.5t-16.5 -75.5t-65.5 -43.5q-18 -4 -36.5 -7t-36.5 -7q29 -90 54 -160.5t50 -126.5q37 -78 59.5 -101.5t28.5 -27.5q41 -4 68.5 -34.5t25.5 -71.5t-31.5 -69.5 t-70.5 -28.5h-4q-78 2 -148 71q-49 49 -90 131q-35 66 -69.5 156t-69.5 207q0 4 -1 6t-1 4q-6 0 -8 -2q-59 -12 -114.5 -25.5t-108.5 -23.5q-88 -256 -203 -387q-29 -31 -71 -34t-73 26q-33 29 -34.5 70.5zM307 1802q4 49 24.5 98.5t53.5 87t76 61.5t96 24q10 0 18.5 -1.5 t18.5 -3.5q82 -14 127 -81.5t37 -165.5q-4 -47 -20.5 -93.5t-45.5 -80.5q-70 -96 -178 -97q-20 0 -45 6q-90 18 -135 99q-37 61 -27 147zM469 1786q-4 -47 11.5 -57.5t23.5 -12.5q2 0 4 -1t6 -1q31 0 53.5 39t26.5 82q0 6 1 17.5t-2 22.5t-9 20.5t-19 11.5q-2 2 -8 2 q-29 0 -56.5 -38t-31.5 -85zM473 647q27 6 53.5 12.5t55.5 12.5q-14 57 -27.5 113.5t-24.5 111.5q-12 -61 -26.5 -123.5t-30.5 -126.5z" />
<glyph unicode="&#xc6;" horiz-adv-x="1521" d="M26.5 97.5q-1.5 41.5 26.5 74.5q35 39 66 95.5t59 121.5q-37 4 -62.5 29.5t-29.5 62.5q-4 43 23.5 76t68.5 37q16 2 34.5 3t37.5 5q27 94 49.5 190.5t39.5 187.5t30.5 170t23.5 138q12 70 19 111q4 12 5 21.5t5 17.5q14 61 70 80q27 10 54 5t48 -26q23 -18 30 -41.5 t15 -58.5q4 -23 9 -52.5t14 -66.5q6 -29 12 -62.5t14 -68.5v64.5t-2 66.5q0 70 45 108q31 29 65.5 35t61.5 6q23 0 49.5 -2t55.5 -6q66 -8 144.5 -11t154.5 19q41 12 77.5 -7t49.5 -60q12 -41 -7.5 -79t-60.5 -50q-106 -33 -205.5 -29t-177.5 15q-10 0 -22.5 1t-22.5 3 q0 -115 -5 -219.5t-14 -202.5h138q90 0 176 2t127 12t78 -12.5t47 -63.5t-12.5 -76.5t-63.5 -46.5q-59 -16 -152.5 -18t-199.5 -2h-154q-6 -113 -6 -214t18 -200q8 -2 22.5 -3t43.5 -1q37 2 81 6t93 11q68 8 142.5 15t150.5 7q43 -2 72.5 -31.5t29.5 -72.5q0 -41 -30.5 -71 t-71.5 -30q-66 0 -134.5 -6t-135.5 -14q-57 -8 -110.5 -13.5t-100.5 -5.5q-12 0 -23.5 1t-21.5 1q-74 6 -119 33q-70 39 -86 121q-16 86 -22.5 172t-2.5 176q-59 -16 -120.5 -28.5t-118.5 -24.5q-88 -256 -203 -387q-29 -31 -71 -34t-73 26q-33 29 -34.5 70.5zM475 647 q27 6 53.5 12.5t55.5 12.5q-14 57 -27.5 113.5t-24.5 111.5q-12 -61 -26 -123.5t-31 -126.5z" />
<glyph unicode="&#xc7;" horiz-adv-x="997" d="M31 547q6 88 21.5 174t41.5 168q49 147 127 272q80 123 175.5 198t191.5 85q98 12 178 -45q35 -29 61.5 -69t42.5 -93q14 -41 -5 -79t-60 -50t-79 7.5t-50 60.5q-10 29 -19.5 42t-13.5 17t-11 6t-20 0q-39 -4 -98 -51t-119 -139q-70 -106 -109.5 -239.5t-49.5 -279.5 q-8 -125 18.5 -206.5t81.5 -104.5q70 -27 176 31q139 72 276 248q27 35 68 39t76 -23t39 -67.5t-23 -75.5q-82 -104 -168 -180t-172 -121q-35 -16 -66.5 -29.5t-62.5 -22.5q-4 -8 -6 -15t-6 -17l-4 -8q39 -14 80 -41q68 -49 96 -121q23 -59 13.5 -118.5t-50.5 -105.5 q-51 -59 -131 -73q-14 -4 -28.5 -4h-30.5q-57 0 -109 14q-41 10 -62.5 47t-11.5 78t47 62.5t78 11.5q47 -12 69.5 -8t27.5 8q0 6 -2 14q-6 14 -28 29.5t-65 19.5q-66 6 -98 62q-27 41 -19.5 88t23.5 88q-129 51 -188 190q-55 131 -43 326z" />
<glyph unicode="&#xc8;" horiz-adv-x="952" d="M31 670q10 -47 47 -72q-8 -123 -6 -239.5t24 -231.5q16 -82 86 -121q45 -27 119 -33q10 0 21.5 -1t23.5 -1q47 0 100.5 5.5t110.5 13.5q68 8 136.5 14t133.5 6q41 0 72 30t31 71q0 43 -30 72.5t-73 31.5q-76 0 -150.5 -7t-141.5 -15q-49 -6 -93.5 -10.5t-81.5 -6.5 q-29 0 -43 1t-22 3q-18 98 -18.5 199.5t6.5 214.5h153q106 0 199.5 2t152.5 18q41 10 63.5 46t12.5 77t-47 63.5t-78 12.5t-127 -12t-176 -2h-137q8 98 13 202.5t5 219.5q10 -2 22.5 -3t22.5 -1q78 -10 177.5 -14.5t205.5 28.5q41 12 60.5 50t7.5 79t-49 60.5t-78 6.5 q-76 -23 -154.5 -19.5t-144.5 11.5q-29 4 -55.5 6t-48.5 2q-27 0 -62 -6t-65 -35q-45 -39 -45 -108q4 -135 -2.5 -258t-16.5 -240q-33 -14 -49 -44.5t-12 -65.5zM182 1808q-16 41 0.5 79t57.5 55q41 16 78.5 -0.5t54.5 -57.5q25 -61 75 -120.5t115 -106.5q35 -25 42 -67 t-17 -77q-16 -23 -38.5 -33t-45.5 -10q-33 0 -60 19q-23 14 -56.5 43t-70 68.5t-73.5 92t-62 115.5z" />
<glyph unicode="&#xc9;" horiz-adv-x="952" d="M31 670q-4 35 12 65.5t49 44.5q10 117 16.5 240t2.5 258q0 70 45 108q31 29 65.5 35t61.5 6q23 0 49 -2t55 -6q66 -8 144.5 -11t154.5 19q41 12 78 -7t49 -60t-7.5 -79t-60.5 -50q-106 -33 -205.5 -29t-177.5 15q-10 0 -22 1t-23 3q0 -115 -5 -219.5t-13 -202.5h137 q90 0 176 2t127 12t78 -12.5t47 -63.5t-12.5 -76.5t-63.5 -46.5q-59 -16 -152 -18t-200 -2h-153q-6 -113 -6.5 -214t18.5 -200q8 -2 22.5 -3t42.5 -1q37 2 81 6t94 11q68 8 142 15t150 7q43 -2 73 -31.5t30 -72.5q0 -41 -31 -71t-72 -30q-66 0 -134 -6t-136 -14 q-57 -8 -110.5 -13.5t-100.5 -5.5q-12 0 -23.5 1t-21.5 1q-74 6 -119 33q-70 39 -86 121q-23 115 -24.5 231.5t6.5 239.5q-37 25 -47 72zM398.5 1586q7.5 42 41.5 67q66 47 116 106.5t75 120.5q16 41 54 57.5t79 -0.5q41 -16 57.5 -54t-0.5 -79q-25 -63 -61.5 -115.5 t-73.5 -92.5t-71.5 -68.5t-55.5 -42.5q-28 -19 -59 -19q-23 0 -45.5 10.5t-38.5 32.5q-25 35 -17.5 77z" />
<glyph unicode="&#xca;" horiz-adv-x="952" d="M31 670q10 -47 47 -72q-8 -123 -6 -239.5t24 -231.5q16 -82 86 -121q45 -27 119 -33q10 0 21.5 -1t23.5 -1q47 0 100.5 5.5t110.5 13.5q68 8 136.5 14t133.5 6q41 0 72 30t31 71q0 43 -30 72.5t-73 31.5q-76 0 -150.5 -7t-141.5 -15q-49 -6 -93.5 -10.5t-81.5 -6.5 q-29 0 -43 1t-22 3q-18 98 -18.5 199.5t6.5 214.5h153q106 0 199.5 2t152.5 18q41 10 63.5 46t12.5 77t-47 63.5t-78 12.5t-127 -12t-176 -2h-137q8 98 13 202.5t5 219.5q10 -2 22.5 -3t22.5 -1q78 -10 177.5 -14.5t205.5 28.5q41 12 60.5 50t7.5 79t-49 60.5t-78 6.5 q-76 -23 -154.5 -19.5t-144.5 11.5q-29 4 -55.5 6t-48.5 2q-27 0 -62 -6t-65 -35q-45 -39 -45 -108q4 -135 -2.5 -258t-16.5 -240q-33 -14 -49 -44.5t-12 -65.5zM166 1616q0 43 31 72q63 61 90.5 111t44.5 89q6 16 12 29.5t16 28.5q25 37 53.5 49t47.5 14q57 4 100 -37 q10 -10 20.5 -23.5t20.5 -31.5q14 -23 24.5 -51.5t22.5 -57.5q16 -41 32.5 -84t39.5 -67q27 -35 22.5 -76t-36.5 -70q-29 -24 -66 -24q-45 0 -78 37q-33 39 -55.5 85t-38.5 93q-23 -35 -52.5 -76t-76.5 -86q-31 -29 -74 -29t-71 31q-29 31 -29 74z" />
<glyph unicode="&#xcb;" horiz-adv-x="952" d="M31 670q-4 35 12 65.5t49 44.5q10 117 16.5 240t2.5 258q0 70 45 108q31 29 65.5 35t61.5 6q23 0 49 -2t55 -6q66 -8 144.5 -11t154.5 19q41 12 78 -7t49 -60t-7.5 -79t-60.5 -50q-106 -33 -205.5 -29t-177.5 15q-10 0 -22 1t-23 3q0 -115 -5 -219.5t-13 -202.5h137 q90 0 176 2t127 12t78 -12.5t47 -63.5t-12.5 -76.5t-63.5 -46.5q-59 -16 -152 -18t-200 -2h-153q-6 -113 -6.5 -214t18.5 -200q8 -2 22.5 -3t42.5 -1q37 2 81 6t94 11q68 8 142 15t150 7q43 -2 73 -31.5t30 -72.5q0 -41 -31 -71t-72 -30q-66 0 -134 -6t-136 -14 q-57 -8 -110.5 -13.5t-100.5 -5.5q-12 0 -23.5 1t-21.5 1q-74 6 -119 33q-70 39 -86 121q-23 115 -24.5 231.5t6.5 239.5q-37 25 -47 72zM205 1587v12q2 16 10 36t31 40q39 37 84 37q43 0 72.5 -30.5t29.5 -71.5q0 -51 -41 -82q-31 -43 -82 -43q-45 0 -76 31q-29 29 -28 71z M532 1581q-12 41 8.5 78t61.5 47q25 8 49.5 3t44.5 -21q2 -2 4.5 -3.5t4.5 -3.5q20 -16 33.5 -43.5t2.5 -66.5q0 -2 -4 -19q-10 -35 -37.5 -54t-60.5 -19q-12 0 -29 4q-63 20 -73 84q-2 4 -2 7t-3 7z" />
<glyph unicode="&#xcc;" horiz-adv-x="792" d="M29 1327q0 -43 29.5 -72.5t72.5 -29.5h121q14 -106 21.5 -240.5t9.5 -276t-1 -282.5t-12 -262q-27 4 -54.5 7t-55.5 9q-41 10 -76 -14.5t-45 -65.5q-8 -41 15.5 -75.5t64.5 -44.5q119 -23 221 -23q82 0 165 12.5t175 40.5q41 12 61.5 49t8.5 78q-10 41 -48 61.5t-79 8.5 q-39 -12 -75 -20.5t-71 -14.5q6 123 9 261t1 277.5t-9 271.5t-21 243h205q43 0 72.5 29.5t29.5 72.5q0 41 -29.5 72t-72.5 31h-531q-43 0 -72.5 -31t-29.5 -72zM121 1823q-16 41 0 78.5t57 54.5q41 16 79 -0.5t54 -57.5q25 -61 75 -120.5t116 -106.5q35 -25 42 -66.5 t-18 -76.5q-16 -23 -38.5 -33t-45.5 -10q-33 0 -59 18q-23 14 -56.5 43t-70.5 69t-74 92t-61 116z" />
<glyph unicode="&#xcd;" horiz-adv-x="792" d="M29 1327q0 41 29.5 72t72.5 31h531q43 0 72.5 -31t29.5 -72q0 -43 -29.5 -72.5t-72.5 -29.5h-205q14 -111 21 -243t9 -271.5t-1 -277.5t-9 -261q35 6 71 14.5t75 20.5q41 12 78.5 -8.5t48.5 -61.5q12 -41 -8.5 -77.5t-61.5 -49.5q-92 -29 -175 -41t-165 -12 q-102 0 -221 23q-41 10 -64.5 44.5t-15.5 75.5q10 41 45 65.5t76 14.5q29 -6 56.5 -9t53.5 -7q8 121 11.5 262t1.5 282.5t-9.5 275.5t-21.5 241h-121q-43 0 -72.5 29.5t-29.5 72.5zM252.5 1600.5q7.5 41.5 42.5 66.5q66 47 116 106.5t74 120.5q16 41 54.5 57.5t78.5 0.5 q41 -16 57.5 -54t0.5 -79q-25 -63 -61.5 -115.5t-73.5 -92.5t-72 -69t-55 -43q-29 -18 -60 -18q-23 0 -45 10t-39 33q-25 35 -17.5 76.5z" />
<glyph unicode="&#xce;" horiz-adv-x="792" d="M29 1327q0 -43 29.5 -72.5t72.5 -29.5h121q14 -106 21.5 -240.5t9.5 -276t-1 -282.5t-12 -262q-27 4 -54.5 7t-55.5 9q-41 10 -76 -14.5t-45 -65.5q-8 -41 15.5 -75.5t64.5 -44.5q119 -23 221 -23q82 0 165 12.5t175 40.5q41 12 61.5 49t8.5 78q-10 41 -48 61.5t-79 8.5 q-39 -12 -75 -20.5t-71 -14.5q6 123 9 261t1 277.5t-9 271.5t-21 243h205q43 0 72.5 29.5t29.5 72.5q0 41 -29.5 72t-72.5 31h-531q-43 0 -72.5 -31t-29.5 -72zM118.5 1612q0.5 43 31.5 71q63 61 90.5 111.5t44.5 89.5q6 16 12 29.5t16 28.5q25 37 53.5 49t47.5 14 q57 4 100 -37q10 -10 20.5 -23.5t20.5 -31.5q14 -23 24.5 -51.5t22.5 -57.5q16 -41 32.5 -84t39.5 -67q27 -35 22.5 -76t-37.5 -70q-28 -24 -65 -24q-45 0 -78 37q-33 39 -55.5 85t-38.5 93q-23 -35 -52.5 -76t-76.5 -86q-31 -29 -74 -29t-72 31t-28.5 74z" />
<glyph unicode="&#xcf;" horiz-adv-x="792" d="M29 1327q0 41 29.5 72t72.5 31h531q43 0 72.5 -31t29.5 -72q0 -43 -29.5 -72.5t-72.5 -29.5h-205q14 -111 21 -243t9 -271.5t-1 -277.5t-9 -261q35 6 71 14.5t75 20.5q41 12 78.5 -8.5t48.5 -61.5q12 -41 -8.5 -77.5t-61.5 -49.5q-92 -29 -175 -41t-165 -12 q-102 0 -221 23q-41 10 -64.5 44.5t-15.5 75.5q10 41 45 65.5t76 14.5q29 -6 56.5 -9t53.5 -7q8 121 11.5 262t1.5 282.5t-9.5 275.5t-21.5 241h-121q-43 0 -72.5 29.5t-29.5 72.5zM123 1591v13q2 16 10 35.5t31 39.5q39 37 84 37q43 0 72.5 -30.5t29.5 -71.5q0 -51 -41 -82 q-31 -43 -82 -43q-45 0 -75 31q-29 29 -29 71zM451 1585q-12 41 8 78t61 47q25 8 49.5 3t44.5 -21q2 -2 4.5 -3t4.5 -3q20 -16 33.5 -44t2.5 -67q0 -2 -4 -19q-10 -35 -37.5 -54t-60.5 -19q-12 0 -29 4q-63 20 -73 84q-2 4 -2 7t-2 7z" />
<glyph unicode="&#xd0;" horiz-adv-x="1058" d="M-29 784q16 41 55.5 57.5t77.5 0.5q4 -2 21.5 -7.5t58.5 -9.5v19q0 57 -2 95t-5 60.5t-5 33.5t-4 16q-16 41 0 78.5t55 54.5q41 16 80 0.5t55 -56.5q18 -47 25.5 -123.5t5.5 -179.5q37 2 57.5 5t31.5 6.5t18.5 6.5t21.5 7q41 8 76 -16.5t43 -65.5t-15.5 -77t-66.5 -44 q-20 -4 -32.5 -8t-29 -7t-42 -6t-70.5 -6q-2 -29 -3 -57.5t-3 -58.5q-4 -53 -6 -98.5t-4 -79.5v-68q160 66 271.5 172.5t160.5 241.5q43 123 27.5 238.5t-87.5 197.5q-76 90 -202.5 118.5t-288.5 -5.5q-41 -8 -76 15t-45 64q-8 41 15.5 77t64.5 44q223 47 403 -2 q174 -51 285 -176q108 -127 133 -301q25 -170 -37 -338q-41 -113 -113.5 -211t-173.5 -178q-227 -174 -550 -227q-6 -2 -19 -2q-37 0 -65.5 23.5t-34.5 62.5q-6 41 18.5 75.5t65.5 40.5q14 4 26.5 5.5t26.5 5.5q-10 20 -10 43v88q2 37 4 84t6 102q2 27 3 52.5t3 54.5 q-49 4 -85 11t-62 19q-41 16 -57.5 55t-0.5 78z" />
<glyph unicode="&#xd1;" horiz-adv-x="1130" d="M43 133q41 127 61.5 240.5t28.5 227.5t7 234.5t-3 262.5q-2 57 -3 117.5t-1 125.5q-2 41 29 72t71 31h3q41 0 70.5 -30t31.5 -71q0 -53 4 -122.5t12 -150.5t20.5 -167t31.5 -172q41 -197 98 -327t125 -183q53 -41 116 -26q4 0 12.5 5t20.5 27q25 45 37 140 q12 98 12 216.5t-4 241.5q-4 117 -5 216.5t8.5 179t34 136t71.5 87.5q35 23 77 14.5t66 -43.5q23 -35 15.5 -75t-39.5 -64q-4 -6 -12.5 -35t-12.5 -106q-4 -66 -3 -143t5 -163q4 -127 4 -252.5t-14 -236.5q-18 -131 -60 -207q-35 -72 -82 -100.5t-83 -38.5q-20 -4 -41 -6 t-41 -2q-115 0 -209 73q-109 84 -191 273q-2 4 -2 6t-2 6q-12 -66 -29.5 -133.5t-39.5 -138.5q-12 -41 -50 -60.5t-79 -7.5q-41 14 -60.5 51t-5.5 78zM304 1557.5q-11 39.5 11 76.5q20 33 43 66t49.5 59.5t58.5 42t69 15.5h4q35 0 63.5 -13.5t49 -32t33.5 -37t20 -28.5 q10 -16 26 -25q0 4 1 8.5t1 10.5q0 41 30 71.5t73 30.5q41 0 71.5 -30.5t30.5 -71.5q0 -78 -33 -137q-37 -66 -104 -84q-24 -9 -53 -9q-53 0 -105 27q-70 31 -108 96q-8 -10 -18.5 -25.5t-24.5 -37.5q-23 -37 -64 -47t-78 12q-35 23 -46 62.5z" />
<glyph unicode="&#xd2;" horiz-adv-x="944" d="M29 562q2 -50 8 -104.5t20.5 -110.5t36.5 -109q47 -109 124 -169.5t175 -66.5h25q106 0 194 57q88 55 154 160q63 100 104 240q18 66 29.5 133t15.5 139q4 70 0 137.5t-14 130.5q-23 141 -76 238q-45 86 -116 137q-49 33 -99 47q-29 25 -65 25q-125 4 -232 -82 q-45 -35 -82.5 -83t-70.5 -107q-57 -106 -91 -241.5t-40 -277.5q-2 -43 0 -93zM213 1833q-16 41 0 79t57 54t79 0t54 -57q25 -61 75 -120.5t116 -107.5q35 -25 42 -66.5t-18 -76.5q-16 -23 -38 -33t-45 -10q-33 0 -60 18q-23 14 -56.5 43t-70.5 69t-73.5 92t-61.5 116z M233 647q4 121 32 232.5t75 197.5q25 47 62.5 93.5t91.5 62.5q14 -6 34 -6q6 0 19.5 -1t29 -9.5t33 -27t35.5 -50.5q39 -70 55.5 -174.5t10.5 -223.5q-8 -123 -39 -229t-78 -184q-80 -127 -188 -121q-6 0 -20.5 3t-32 13t-36 33t-36.5 63q-27 61 -39.5 145.5t-8.5 182.5z " />
<glyph unicode="&#xd3;" horiz-adv-x="944" d="M29 562q-2 50 0 93q6 141 39.5 276.5t91.5 242.5q33 59 70.5 107t82.5 83q106 86 232 82q37 0 65 -25q49 -14 99 -47q72 -51 116 -137q53 -97 76 -238q10 -63 14.5 -130.5t-0.5 -137.5q-4 -72 -15 -139.5t-30 -132.5q-41 -139 -104 -240q-66 -104 -154 -160 q-88 -57 -194 -57h-25q-98 6 -175 66.5t-124 169.5q-23 53 -37 109t-20 110.5t-8 104.5zM233 647q-4 -98 8.5 -182t39.5 -146q18 -41 36.5 -63.5t36 -32.5t31.5 -13t21 -3q109 -6 188 121q47 78 78 184t39 229q6 119 -10.5 223.5t-55.5 174.5q-18 33 -35.5 51t-33 26.5 t-28.5 9.5t-20 1q-20 0 -34 6q-53 -16 -91 -62.5t-63 -93.5q-47 -86 -74.5 -197.5t-32.5 -232.5zM367.5 1603q7.5 42 42.5 66q66 47 115.5 106.5t74.5 120.5q16 41 54 57.5t79 0.5t57.5 -54t0.5 -79q-25 -63 -62 -115.5t-74 -92.5t-71.5 -68.5t-55.5 -43.5q-28 -18 -59 -18 q-23 0 -45.5 10t-38.5 33q-25 35 -17.5 77z" />
<glyph unicode="&#xd4;" horiz-adv-x="944" d="M29 562q2 -50 8 -104.5t20.5 -110.5t36.5 -109q47 -109 124 -169.5t175 -66.5h25q106 0 194 57q88 55 154 160q63 100 104 240q18 66 29.5 133t15.5 139q4 70 0 137.5t-14 130.5q-23 141 -76 238q-45 86 -116 137q-49 33 -99 47q-29 25 -65 25q-125 4 -232 -82 q-45 -35 -82.5 -83t-70.5 -107q-57 -106 -91 -241.5t-40 -277.5q-2 -43 0 -93zM221 1612q0 43 31 71q63 61 91 111.5t44 89.5q6 16 12.5 29.5t16.5 28.5q25 37 53.5 49t46.5 14q57 4 100 -37q10 -10 20.5 -23.5t20.5 -31.5q14 -23 24.5 -51.5t23.5 -57.5q16 -41 32.5 -84 t38.5 -67q27 -35 23 -76t-37 -70q-29 -24 -66 -24q-45 0 -78 37q-33 39 -55 85t-39 93q-23 -35 -52.5 -76t-76.5 -86q-31 -29 -73.5 -29t-71.5 31t-29 74zM233 647q4 121 32 232.5t75 197.5q25 47 62.5 93.5t91.5 62.5q14 -6 34 -6q6 0 19.5 -1t29 -9.5t33 -27t35.5 -50.5 q39 -70 55.5 -174.5t10.5 -223.5q-8 -123 -39 -229t-78 -184q-80 -127 -188 -121q-6 0 -20.5 3t-32 13t-36 33t-36.5 63q-27 61 -39.5 145.5t-8.5 182.5z" />
<glyph unicode="&#xd5;" horiz-adv-x="944" d="M29 562q2 -50 8 -104.5t20.5 -110.5t36.5 -109q47 -109 124 -169.5t175 -66.5h25q106 0 194 57q88 55 154 160q63 100 104 240q18 66 29.5 133t15.5 139q4 70 0 137.5t-14 130.5q-23 141 -76 238q-45 86 -116 137q-49 33 -99 47q-29 25 -65 25q-125 4 -232 -82 q-45 -35 -82.5 -83t-70.5 -107q-57 -106 -91 -241.5t-40 -277.5q-2 -43 0 -93zM175 1576q-11 40 11 77q20 33 43 65.5t49.5 59t58.5 42t69 15.5h4q35 0 63.5 -13.5t49 -31.5t33.5 -36.5t19 -29.5q10 -16 27 -24q0 4 1 8t1 10q0 41 30 72t73 31q41 0 71.5 -31t30.5 -72 q0 -78 -33 -137q-37 -66 -104 -84q-25 -8 -54 -8q-53 0 -104 27q-70 31 -108 96q-8 -10 -18.5 -25.5t-25.5 -38.5q-23 -37 -63.5 -47t-77.5 12q-35 23 -46 63zM233 647q4 121 32 232.5t75 197.5q25 47 62.5 93.5t91.5 62.5q14 -6 34 -6q6 0 19.5 -1t29 -9.5t33 -27 t35.5 -50.5q39 -70 55.5 -174.5t10.5 -223.5q-8 -123 -39 -229t-78 -184q-80 -127 -188 -121q-6 0 -20.5 3t-32 13t-36 33t-36.5 63q-27 61 -39.5 145.5t-8.5 182.5z" />
<glyph unicode="&#xd6;" horiz-adv-x="944" d="M29 562q-2 50 0 93q6 141 39.5 276.5t91.5 242.5q33 59 70.5 107t82.5 83q106 86 232 82q37 0 65 -25q49 -14 99 -47q72 -51 116 -137q53 -97 76 -238q10 -63 14.5 -130.5t-0.5 -137.5q-4 -72 -15 -139.5t-30 -132.5q-41 -139 -104 -240q-66 -104 -154 -160 q-88 -57 -194 -57h-25q-98 6 -175 66.5t-124 169.5q-23 53 -37 109t-20 110.5t-8 104.5zM233 647q-4 -98 8.5 -182t39.5 -146q18 -41 36.5 -63.5t36 -32.5t31.5 -13t21 -3q109 -6 188 121q47 78 78 184t39 229q6 119 -10.5 223.5t-55.5 174.5q-18 33 -35.5 51t-33 26.5 t-28.5 9.5t-20 1q-20 0 -34 6q-53 -16 -91 -62.5t-63 -93.5q-47 -86 -74.5 -197.5t-32.5 -232.5zM244 1585v12q2 16 10 36t31 40q39 37 84 37q43 0 72.5 -30.5t29.5 -71.5q0 -51 -41 -82q-31 -43 -82 -43q-45 0 -76 30q-29 29 -28 72zM571 1579q-12 41 8.5 78t61.5 47 q25 8 49.5 3t44.5 -21q2 -2 4 -3.5t4 -3.5q20 -16 34 -43.5t3 -66.5q0 -2 -4 -19q-10 -35 -37.5 -54t-60.5 -19q-12 0 -29 4q-63 20 -74 84q-2 4 -2 7t-2 7z" />
<glyph unicode="&#xd8;" horiz-adv-x="944" d="M29 562q-2 50 0 93q6 141 39.5 276.5t91.5 242.5q33 59 70.5 107t82.5 83q106 86 232 82h4q33 23 76 16q35 -6 57.5 -30.5t26.5 -57.5q72 -51 116 -137q53 -97 76 -238q10 -63 14.5 -130.5t-0.5 -137.5q-4 -72 -15 -139.5t-30 -132.5q-41 -139 -104 -240 q-66 -104 -154 -160q-88 -57 -194 -57h-25q-49 2 -92 18q-20 -4 -33 -4q-23 0 -39 9q-29 10 -47 36.5t-18 57.5q-43 51 -70 119q-23 53 -37 109t-20 110.5t-8 104.5zM233 647q-4 -74 2.5 -140.5t22.5 -121.5q37 102 67.5 202.5t58.5 204t50.5 211t44.5 224.5 q-47 -20 -82 -63.5t-57 -86.5q-47 -86 -74.5 -197.5t-32.5 -232.5zM412 207q102 -2 182 121q47 78 78 184t39 229q4 102 -7.5 194.5t-39.5 162.5q-47 -242 -107.5 -455t-144.5 -436z" />
<glyph unicode="&#xd9;" horiz-adv-x="1245" d="M31 1317q4 -41 6 -92t4 -107q2 -80 6 -169t11.5 -179t17.5 -179t26 -169q37 -188 105 -293q29 -47 61.5 -76.5t65.5 -46t63.5 -21.5t57.5 -5q47 0 111.5 25.5t123.5 107.5t98 209q57 -213 156 -295q63 -51 141 -52q27 0 56 7q41 10 63.5 45.5t12.5 76.5t-46 63.5 t-77 12.5h-9.5t-11.5 6q-10 6 -28.5 33t-40 90.5t-42 171t-34.5 277.5q-8 94 -11.5 182t-4.5 158.5t-1 121v66.5q2 49 -29.5 77t-68.5 30q-43 2 -72.5 -28t-33.5 -71q-20 -567 -95 -845q-33 -127 -74.5 -196t-84.5 -69q-31 0 -56.5 32t-44 76t-31 91t-18.5 78 q-16 76 -25.5 160t-15.5 171t-10 172t-6 162q-4 55 -5 107.5t-5 97.5q-2 41 -34 70t-75 26q-41 -4 -69.5 -35.5t-26.5 -74.5zM227 1778q-16 41 0.5 78.5t57.5 54.5q41 16 78.5 -0.5t54.5 -57.5q25 -61 75 -120.5t115 -106.5q35 -25 42 -66.5t-17 -76.5q-16 -23 -38.5 -33 t-45.5 -10q-33 0 -60 18q-23 14 -56.5 43t-70 69t-73.5 92t-62 116z" />
<glyph unicode="&#xda;" horiz-adv-x="1245" d="M31 1317q-2 43 26.5 74.5t69.5 35.5q43 2 74.5 -26.5t34.5 -69.5q4 -45 5 -97t5 -108q2 -78 6 -162.5t10 -171.5t15.5 -171t25.5 -160q6 -31 18.5 -78t31 -91t44 -76t56.5 -32q43 0 85 69t74 196q74 279 95 845q4 41 33.5 71t72.5 28q37 -2 68.5 -30t29.5 -77v-66.5 t1 -121t4.5 -158.5t11.5 -182q14 -170 34.5 -277.5t42 -171t40 -90t28.5 -33.5q8 -6 11 -6h10q41 10 77 -12.5t46 -63.5t-12.5 -76.5t-63.5 -45.5q-29 -6 -56 -7q-78 0 -141 52q-98 82 -156 295q-39 -127 -98 -209t-123.5 -107.5t-111.5 -25.5q-27 0 -57.5 5t-63.5 21.5 t-65.5 46t-61.5 76.5q-68 104 -105 293q-16 80 -26 169t-17.5 179t-11.5 179t-6 169q-2 55 -4 106.5t-6 92.5zM306 1560q7 42 42 66q66 47 116 106.5t75 120.5q16 41 54 57.5t79 0.5t57 -54t0 -79q-25 -63 -61.5 -115.5t-73.5 -92.5t-72 -68.5t-55 -43.5q-28 -18 -59 -18 q-23 0 -45.5 10t-38.5 33q-25 35 -18 77z" />
<glyph unicode="&#xdb;" horiz-adv-x="1245" d="M31 1317q4 -41 6 -92t4 -107q2 -80 6 -169t11.5 -179t17.5 -179t26 -169q37 -188 105 -293q29 -47 61.5 -76.5t65.5 -46t63.5 -21.5t57.5 -5q47 0 111.5 25.5t123.5 107.5t98 209q57 -213 156 -295q63 -51 141 -52q27 0 56 7q41 10 63.5 45.5t12.5 76.5t-46 63.5 t-77 12.5h-9.5t-11.5 6q-10 6 -28.5 33t-40 90.5t-42 171t-34.5 277.5q-8 94 -11.5 182t-4.5 158.5t-1 121v66.5q2 49 -29.5 77t-68.5 30q-43 2 -72.5 -28t-33.5 -71q-20 -567 -95 -845q-33 -127 -74.5 -196t-84.5 -69q-31 0 -56.5 32t-44 76t-31 91t-18.5 78 q-16 76 -25.5 160t-15.5 171t-10 172t-6 162q-4 55 -5 107.5t-5 97.5q-2 41 -34 70t-75 26q-41 -4 -69.5 -35.5t-26.5 -74.5zM188 1563q0 43 31 71q63 61 91 111.5t44 89.5q6 16 12.5 29.5t16.5 27.5q25 37 53.5 49.5t46.5 14.5q57 4 101 -37q10 -10 20 -23.5t21 -31.5 q14 -23 24 -51.5t23 -57.5q16 -41 32.5 -84t38.5 -67q27 -35 23 -76t-37 -70q-28 -24 -65 -24q-45 0 -78 36q-33 39 -55.5 85.5t-38.5 93.5q-23 -35 -52.5 -76t-77.5 -86q-31 -29 -73.5 -29t-71.5 31t-29 74z" />
<glyph unicode="&#xdc;" horiz-adv-x="1245" d="M31 1317q-2 43 26.5 74.5t69.5 35.5q43 2 74.5 -26.5t34.5 -69.5q4 -45 5 -97t5 -108q2 -78 6 -162.5t10 -171.5t15.5 -171t25.5 -160q6 -31 18.5 -78t31 -91t44 -76t56.5 -32q43 0 85 69t74 196q74 279 95 845q4 41 33.5 71t72.5 28q37 -2 68.5 -30t29.5 -77v-66.5 t1 -121t4.5 -158.5t11.5 -182q14 -170 34.5 -277.5t42 -171t40 -90t28.5 -33.5q8 -6 11 -6h10q41 10 77 -12.5t46 -63.5t-12.5 -76.5t-63.5 -45.5q-29 -6 -56 -7q-78 0 -141 52q-98 82 -156 295q-39 -127 -98 -209t-123.5 -107.5t-111.5 -25.5q-27 0 -57.5 5t-63.5 21.5 t-65.5 46t-61.5 76.5q-68 104 -105 293q-16 80 -26 169t-17.5 179t-11.5 179t-6 169q-2 55 -4 106.5t-6 92.5zM221 1544v12q2 16 10.5 36t30.5 40q39 37 84 37q43 0 73 -30.5t30 -71.5q0 -51 -41 -82q-31 -43 -82 -43q-45 0 -76 31q-29 29 -29 71zM549 1538q-12 41 8.5 78 t60.5 47q25 8 49.5 3t45.5 -21q2 -2 4 -3.5t4 -3.5q20 -16 33.5 -43.5t3.5 -66.5q0 -2 -4 -19q-10 -35 -38 -54t-61 -19q-12 0 -28 4q-63 20 -74 84q-2 4 -2 7t-2 7z" />
<glyph unicode="&#xdd;" horiz-adv-x="796" d="M25 1041.5q2 150.5 18 338.5q4 41 37 69t76 24q41 -4 68.5 -37t23.5 -74q-33 -344 -8 -549q10 -80 24.5 -115.5t22.5 -46.5q8 4 22.5 15.5t36.5 38.5q55 66 107 176q55 123 85.5 260t30.5 266q0 43 31 72.5t72 29.5q43 0 72.5 -29.5t29.5 -72.5q0 -96 -2 -185t-9 -181.5 t-22.5 -191.5t-42 -216t-66.5 -256t-97 -309q-10 -33 -37 -51.5t-60 -18.5q-12 0 -32 4q-41 14 -59.5 52t-4.5 79q37 115 67.5 212t53.5 183q-39 -37 -78 -55q-53 -29 -106.5 -28t-100.5 32q-109 70 -139 303q-16 111 -14 261.5zM291.5 1660q7.5 42 42.5 66q66 47 116 106.5 t74 121.5q16 41 54 57.5t79 -0.5q41 -16 57.5 -54t0.5 -79q-25 -63 -62 -115.5t-73.5 -92.5t-71.5 -68.5t-55 -42.5q-29 -19 -60 -19q-23 0 -45 10.5t-39 32.5q-25 35 -17.5 77z" />
<glyph unicode="&#xde;" horiz-adv-x="886" d="M25 1079q0 29 10 56v21t-2 24q-2 33 -3 66.5t-5 68.5q-2 41 26.5 72.5t69.5 33.5q43 4 74.5 -24.5t33.5 -71.5q2 -35 4.5 -66.5t4.5 -64.5q178 -6 313 -70q172 -82 256 -229q59 -109 53 -224.5t-76 -207.5q-88 -117 -252 -158q-78 -16 -159 -16h-48.5t-50.5 4 q0 -57 1 -117.5t1 -126.5q0 -43 -30.5 -72.5t-71.5 -29.5q-43 0 -72.5 29.5t-29.5 72.5q0 158 -2 290t-6.5 249t-10.5 225.5t-12 218.5q-14 23 -16 47zM250 987q6 -119 11 -235.5t9 -251.5q61 -8 114.5 -7t98.5 13q93 21 138 80q35 45 35.5 100t-29.5 111q-51 92 -162 141 q-92 43 -215 49z" />
<glyph unicode="&#xdf;" horiz-adv-x="1089" d="M39 78q18 109 27.5 224.5t12.5 230t3 223v200.5q0 74 -1 135.5t1 106.5q2 29 4 49.5t6 36.5q12 61 43 81.5t53 25.5q106 16 185.5 23t140.5 3q72 -2 125 -24q68 -29 102 -84q33 -57 27 -133q-6 -59 -37 -129q-20 -45 -50 -96.5t-71 -110.5q162 -76 285 -199 q43 -43 75.5 -88t55.5 -90q55 -109 39 -209q-10 -72 -55 -123q-43 -55 -115 -88q-123 -59 -326 -59q-10 0 -18 1t-19 1q-43 0 -72.5 30.5t-27.5 73.5q2 41 33 70.5t72 29.5q8 0 15 -1t15 -1q129 0 209 26t86 71q4 29 -19.5 85t-92.5 128q-68 68 -155 119t-173 75q-2 2 -6 2 l-4 2q-2 0 -2 1t-2 1h-2l-3 2h-2l-2 2l-2 3h-2l-4 2l-4 4l-4 2q0 2 -1 2t-1 2h-2l-4 4l-2 2l-2 2v2q-2 0 -2 2l-4 4l-7 12q-2 2 -2 5l-2 2v2q0 2 -2 2v6q-2 0 -2 2v4q0 2 -1 2t-1 2q0 4 -1 7t-1 7v11q0 2 2 4v8q0 4 2 4v6q0 2 2 4v2l2 4q0 2 2 5v2l2 2v2l2 2v2q2 0 2 2l3 2 v2l2 4q59 78 101 141.5t64 110.5q23 43 28 65.5t5 28.5q-6 4 -26.5 8t-61.5 6q-37 0 -83 -3t-105 -13q-4 -43 -3 -109.5t1 -130.5v-207.5t-4 -229.5t-14.5 -239.5t-28.5 -236.5q-6 -39 -35 -62.5t-66 -23.5q-10 0 -16 2q-41 6 -66.5 41t-17.5 76z" />
<glyph unicode="&#xe0;" d="M29 442q-16 -180 63 -297q39 -59 95.5 -95t125.5 -46q10 0 21.5 -1t21.5 -1q68 0 134.5 26.5t121.5 77.5q16 12 29 29q10 -20 21.5 -36.5t23.5 -30.5q51 -55 119 -52q41 0 70.5 31t27.5 74q0 35 -21.5 60.5t-52.5 35.5q-12 23 -27.5 85.5t-6.5 166.5q4 39 -18.5 68.5 t-59.5 37.5q33 16 48 51.5t5 71.5q-29 88 -62.5 155t-76.5 114q-61 66 -120.5 81t-102.5 11q-74 -8 -141.5 -60.5t-121.5 -144.5q-98 -170 -116 -412zM231 424q8 109 33 188.5t54.5 133t60.5 81t51 29.5h2q29 0 68 -52t73 -165q8 -29 29 -47.5t47 -22.5q-47 -24 -57 -73 q-14 -78 -42 -134.5t-62.5 -92.5t-73.5 -51t-74 -9q-51 6 -78 49q-41 59 -31 166zM250 1372q-16 41 0 79t57 54t79 0t54 -57q25 -61 75 -120.5t116 -106.5q35 -25 42 -67t-18 -77q-16 -23 -38.5 -33t-45.5 -10q-33 0 -59 19q-23 14 -56.5 42.5t-70.5 68.5t-74 92.5 t-61 115.5z" />
<glyph unicode="&#xe1;" d="M29 442q18 242 116 412q76 131 181 182q-39 6 -64 41t-17.5 77t42.5 67q66 47 116 106t74 121q16 41 54 57.5t79 -0.5q41 -16 57.5 -54t0.5 -79q-25 -59 -59 -109.5t-69.5 -89t-69.5 -67.5t-56 -47q43 4 100 -12.5t117 -79.5q43 -47 76.5 -114t62.5 -155q10 -37 -5 -71.5 t-48 -51.5q37 -8 59.5 -37.5t18.5 -68.5q-8 -104 7 -166.5t27 -85.5q31 -10 52.5 -35.5t21.5 -60.5q2 -43 -27.5 -74t-70.5 -31q-68 -4 -119 52q-12 14 -23.5 30.5t-21.5 36.5q-12 -16 -29 -29q-55 -51 -121.5 -77.5t-134.5 -26.5q-10 0 -21 1t-22 1q-70 10 -126 46t-95 95 q-80 117 -63 297zM231 424q-10 -106 31 -166q27 -43 78 -49q35 -6 74 9t73.5 51t62.5 92.5t42 134.5q10 49 57 73q-27 4 -47 22.5t-29 47.5q-35 113 -73.5 165t-67.5 52h-2q-20 -2 -51 -29.5t-60.5 -81t-54 -133.5t-33.5 -188z" />
<glyph unicode="&#xe2;" d="M29 442q-16 -180 63 -297q39 -59 95.5 -95t125.5 -46q10 0 21.5 -1t21.5 -1q68 0 134.5 26.5t121.5 77.5q16 12 29 29q10 -20 21.5 -36.5t23.5 -30.5q51 -55 119 -52q41 0 70.5 31t27.5 74q0 35 -21.5 60.5t-52.5 35.5q-12 23 -27.5 85.5t-6.5 166.5q4 39 -18.5 68.5 t-59.5 37.5q33 16 48 51.5t5 71.5q-29 88 -62.5 155t-76.5 114q-61 66 -120.5 81t-102.5 11q-74 -8 -141.5 -60.5t-121.5 -144.5q-98 -170 -116 -412zM149.5 1194q0.5 43 30.5 72q63 61 91 111t44 89q6 16 12.5 29.5t16.5 28.5q25 37 53.5 49t46.5 14q57 4 101 -37 q10 -10 20 -23.5t21 -31.5q14 -23 24.5 -51.5t22.5 -57.5q16 -41 32.5 -83.5t39.5 -67.5q27 -35 22.5 -76t-37.5 -69q-28 -25 -65 -25q-45 0 -78 37q-33 39 -55.5 85t-38.5 93q-23 -35 -52.5 -76t-76.5 -86q-31 -29 -74 -28.5t-72 30.5q-29 31 -28.5 74zM231 424 q8 109 33 188.5t54.5 133t60.5 81t51 29.5h2q29 0 68 -52t73 -165q8 -29 29 -47.5t47 -22.5q-47 -24 -57 -73q-14 -78 -42 -134.5t-62.5 -92.5t-73.5 -51t-74 -9q-51 6 -78 49q-41 59 -31 166z" />
<glyph unicode="&#xe3;" d="M29 442q-16 -180 63 -297q39 -59 95.5 -95t125.5 -46q10 0 21.5 -1t21.5 -1q68 0 134.5 26.5t121.5 77.5q16 12 29 29q10 -20 21.5 -36.5t23.5 -30.5q51 -55 119 -52q41 0 70.5 31t27.5 74q0 35 -21.5 60.5t-52.5 35.5q-12 23 -27.5 85.5t-6.5 166.5q4 39 -18.5 68.5 t-59.5 37.5q33 16 48 51.5t5 71.5q-29 88 -62.5 155t-76.5 114q-61 66 -120.5 81t-102.5 11q-74 -8 -141.5 -60.5t-121.5 -144.5q-98 -170 -116 -412zM117.5 1191q-11.5 40 11.5 77q20 33 43 65.5t49.5 59t58 42t68.5 15.5h4q35 0 63.5 -13.5t49 -32t34 -36.5t19.5 -29 q10 -16 27 -24q0 4 1 8t1 10q0 41 29.5 72t72.5 31q41 0 72 -31t31 -72q0 -78 -33 -137q-37 -66 -105 -84q-24 -8 -53 -8q-53 0 -104 26q-70 31 -109 97q-8 -10 -18.5 -25.5t-24.5 -38.5q-23 -37 -63.5 -47t-77.5 12q-35 23 -46.5 63zM231 424q8 109 33 188.5t54.5 133 t60.5 81t51 29.5h2q29 0 68 -52t73 -165q8 -29 29 -47.5t47 -22.5q-47 -24 -57 -73q-14 -78 -42 -134.5t-62.5 -92.5t-73.5 -51t-74 -9q-51 6 -78 49q-41 59 -31 166z" />
<glyph unicode="&#xe4;" d="M29 442q18 242 116 412q53 92 121 144.5t142 60.5q43 4 102 -11.5t121 -80.5q43 -47 76.5 -114t62.5 -155q10 -37 -5 -71.5t-48 -51.5q37 -8 59.5 -37.5t18.5 -68.5q-8 -104 7 -166.5t27 -85.5q31 -10 52.5 -35.5t21.5 -60.5q2 -43 -27.5 -74t-70.5 -31q-68 -4 -119 52 q-12 14 -23.5 30.5t-21.5 36.5q-12 -16 -29 -29q-55 -51 -121.5 -77.5t-134.5 -26.5q-10 0 -21 1t-22 1q-70 10 -126 46t-95 95q-80 117 -63 297zM150 1192v12q2 16 10 36t30 40q39 37 84 37q43 0 73 -31t30 -72q0 -51 -41 -81q-31 -43 -82 -43q-45 0 -76 30q-29 29 -28 72z M231 424q-10 -106 31 -166q27 -43 78 -49q35 -6 74 9t73.5 51t62.5 92.5t42 134.5q10 49 57 73q-27 4 -47 22.5t-29 47.5q-35 113 -73.5 165t-67.5 52h-2q-20 -2 -51 -29.5t-60.5 -81t-54 -133.5t-33.5 -188zM477 1186q-12 41 8.5 77.5t61.5 47.5q25 8 49.5 3t44.5 -22 q2 -2 4 -3t4 -3q20 -16 33.5 -44t3.5 -66q0 -2 -4 -19q-10 -35 -38 -54.5t-60 -19.5q-12 0 -29 4q-63 20 -74 84q-2 4 -2 7.5t-2 7.5z" />
<glyph unicode="&#xe5;" d="M29 442q18 242 116 412q53 92 121 144.5t142 60.5q43 4 102 -11.5t121 -80.5q43 -47 76.5 -114t62.5 -155q10 -37 -5 -71.5t-48 -51.5q37 -8 59.5 -37.5t18.5 -68.5q-8 -104 7 -166.5t27 -85.5q31 -10 52.5 -35.5t21.5 -60.5q2 -43 -27.5 -74t-70.5 -31q-68 -4 -119 52 q-12 14 -23.5 30.5t-21.5 36.5q-12 -16 -29 -29q-55 -51 -121.5 -77.5t-134.5 -26.5q-10 0 -21 1t-22 1q-70 10 -126 46t-95 95q-80 117 -63 297zM225 1339q4 49 24.5 98.5t53.5 87.5t76 61.5t96 23.5q10 0 18.5 -1t18.5 -3q82 -14 127 -82t37 -166q-4 -47 -20.5 -93 t-45.5 -81q-70 -96 -178 -97q-20 0 -45 7q-90 18 -135 98q-37 61 -27 147zM231 424q-10 -106 31 -166q27 -43 78 -49q35 -6 74 9t73.5 51t62.5 92.5t42 134.5q10 49 57 73q-27 4 -47 22.5t-29 47.5q-35 113 -73.5 165t-67.5 52h-2q-20 -2 -51 -29.5t-60.5 -81t-54 -133.5 t-33.5 -188zM387 1323q-4 -47 11.5 -57.5t23.5 -12.5q2 0 4 -1t6 -1q31 0 53.5 39t26.5 82q0 6 1 17.5t-2 22.5t-9 20.5t-19 11.5q-2 2 -8 2q-29 0 -56.5 -38t-31.5 -85z" />
<glyph unicode="&#xe6;" horiz-adv-x="1349" d="M31 442q18 242 116 412q53 92 121 144.5t142 60.5q43 4 102 -11.5t121 -80.5q14 -16 28.5 -34t26.5 -40q14 25 31 41q55 66 125.5 102.5t148.5 40.5q74 4 133.5 -25.5t94.5 -84.5t34.5 -125t-36.5 -137q-59 -117 -203 -185q-96 -47 -228 -69q2 -10 2.5 -21.5t2.5 -23.5 q14 -106 47.5 -157.5t64.5 -55.5q18 -2 46 12t56.5 49t58.5 91t52 138q12 41 49 61.5t78 8.5q41 -10 61.5 -47t8.5 -78q-55 -205 -166 -322q-53 -59 -115 -88.5t-125 -29.5h-18q-59 4 -109.5 41t-97.5 84q-12 12 -17 18t-10.5 6t-13.5 -7t-29 -24q-55 -51 -121.5 -77.5 t-134.5 -26.5q-10 0 -21 1t-22 1q-70 10 -126 46t-95 95q-80 117 -63 297zM233 424q-10 -106 31 -166q27 -43 78 -49q33 -6 67.5 6t67.5 42t60.5 77t46.5 112v13q-37 29 -41 78q0 55 39 84l-7 18q-35 113 -73.5 165t-67.5 52h-2q-20 -2 -51 -29.5t-60.5 -81t-54 -133.5 t-33.5 -188zM805 662q98 23 154.5 60.5t78.5 78.5q20 41 9 57q-10 14 -41 14h-5q-70 -4 -127 -69q-45 -53 -69 -141z" />
<glyph unicode="&#xe7;" horiz-adv-x="651" d="M31 526q10 92 32.5 170t57.5 138q68 123 176 161q66 23 129 5.5t111 -68.5q29 -31 27.5 -73t-32.5 -71t-73.5 -27.5t-71.5 32.5q-10 10 -15 10t-10 -2q-12 -4 -30.5 -21.5t-37 -53.5t-35.5 -90t-26 -132q-6 -61 2.5 -118.5t30.5 -104.5q18 -37 35.5 -53.5t28.5 -16.5 q6 0 17 9t25.5 35t29 69t24.5 108q6 43 41 67.5t76 18.5t66.5 -41t19.5 -76q-31 -190 -109 -292q-39 -53 -96 -82q-14 -8 -33 -13q-4 -8 -8 -20l-4 -8q39 -14 80 -41q68 -49 96 -121q23 -59 13.5 -118.5t-50.5 -104.5q-51 -59 -131 -74q-14 -4 -28.5 -4h-30.5q-57 0 -109 14 q-41 10 -62.5 47t-11.5 78t47 62.5t78 11.5q47 -12 69.5 -8t27.5 8q0 6 -2 14q-6 14 -28 29.5t-65 19.5q-66 6 -98 62q-29 47 -18.5 99t30.5 97q-61 49 -104 133q-35 72 -48.5 158t-2.5 178z" />
<glyph unicode="&#xe8;" horiz-adv-x="819" d="M16 537q0 59 47 90q25 184 130 307q55 66 125.5 102.5t148.5 40.5q74 4 133 -25.5t94 -84.5t35 -125t-37 -137q-59 -117 -203 -185q-96 -47 -227 -69q2 -10 2 -21.5t2 -23.5q14 -106 48 -157.5t65 -55.5q18 -2 46 12t56.5 49t58 91t52.5 138q12 41 49 61.5t78 8.5 q41 -10 61.5 -47t7.5 -78q-55 -205 -165 -322q-53 -59 -115 -88.5t-125 -29.5h-18q-123 10 -207 125q-72 100 -95 268q-6 39 -6 78q-37 29 -41 78zM129 1468q-16 41 0 79t57 55q41 16 79 -0.5t54 -57.5q25 -61 75 -120.5t116 -106.5q35 -25 42 -67t-17 -76 q-16 -23 -38.5 -33.5t-45.5 -10.5q-33 0 -60 19q-23 14 -56.5 43t-70.5 68.5t-73.5 92t-61.5 115.5zM279 662q98 23 154 60.5t79 78.5q20 41 8 57q-10 14 -41 14h-4q-70 -4 -127 -69q-45 -53 -69 -141z" />
<glyph unicode="&#xe9;" horiz-adv-x="819" d="M16 537q0 59 47 90q25 184 130 307q55 66 125.5 102.5t148.5 40.5q74 4 133 -25.5t94 -84.5t35 -125t-37 -137q-59 -117 -203 -185q-96 -47 -227 -69q2 -10 2 -21.5t2 -23.5q14 -106 48 -157.5t65 -55.5q18 -2 46 12t56.5 49t58 91t52.5 138q12 41 49 61.5t78 8.5 q41 -10 61.5 -47t7.5 -78q-55 -205 -165 -322q-53 -59 -115 -88.5t-125 -29.5h-18q-123 10 -207 125q-72 100 -95 268q-6 39 -6 78q-37 29 -41 78zM279 662q98 23 154 60.5t79 78.5q20 41 8 57q-10 14 -41 14h-4q-70 -4 -127 -69q-45 -53 -69 -141zM322.5 1244 q7.5 42 42.5 67q66 47 115.5 106.5t74.5 120.5q16 41 54 57.5t79 -0.5q41 -16 57.5 -54t-0.5 -79q-25 -63 -61.5 -115.5t-73.5 -92.5t-71.5 -68.5t-55.5 -42.5q-28 -19 -59 -19q-23 0 -45.5 10.5t-38.5 32.5q-25 35 -17.5 77z" />
<glyph unicode="&#xea;" horiz-adv-x="819" d="M16 537q0 59 47 90q25 184 130 307q55 66 125.5 102.5t148.5 40.5q74 4 133 -25.5t94 -84.5t35 -125t-37 -137q-59 -117 -203 -185q-96 -47 -227 -69q2 -10 2 -21.5t2 -23.5q14 -106 48 -157.5t65 -55.5q18 -2 46 12t56.5 49t58 91t52.5 138q12 41 49 61.5t78 8.5 q41 -10 61.5 -47t7.5 -78q-55 -205 -165 -322q-53 -59 -115 -88.5t-125 -29.5h-18q-123 10 -207 125q-72 100 -95 268q-6 39 -6 78q-37 29 -41 78zM159.5 1229q0.5 43 30.5 71q63 61 91 111.5t45 89.5q6 16 12 29.5t16 28.5q25 37 53.5 49t47.5 14q57 4 100 -37 q10 -10 20.5 -23.5t20.5 -31.5q14 -23 24.5 -51.5t22.5 -57.5q16 -41 32.5 -84t39.5 -67q27 -35 22.5 -76t-37.5 -70q-28 -24 -65 -24q-45 0 -78 37q-33 39 -55.5 85t-38.5 93q-23 -35 -52.5 -76t-76.5 -86q-31 -29 -74 -29t-72 31t-28.5 74zM279 662q98 23 154 60.5 t79 78.5q20 41 8 57q-10 14 -41 14h-4q-70 -4 -127 -69q-45 -53 -69 -141z" />
<glyph unicode="&#xeb;" horiz-adv-x="819" d="M16 537q0 59 47 90q25 184 130 307q55 66 125.5 102.5t148.5 40.5q74 4 133 -25.5t94 -84.5t35 -125t-37 -137q-59 -117 -203 -185q-96 -47 -227 -69q2 -10 2 -21.5t2 -23.5q14 -106 48 -157.5t65 -55.5q18 -2 46 12t56.5 49t58 91t52.5 138q12 41 49 61.5t78 8.5 q41 -10 61.5 -47t7.5 -78q-55 -205 -165 -322q-53 -59 -115 -88.5t-125 -29.5h-18q-123 10 -207 125q-72 100 -95 268q-6 39 -6 78q-37 29 -41 78zM164 1214v13q2 16 10 35.5t31 40.5q39 36 84 36q43 0 72.5 -30.5t29.5 -71.5q0 -51 -41 -82q-31 -43 -82 -43q-45 0 -75 31 q-29 29 -29 71zM279 662q98 23 154 60.5t79 78.5q20 41 8 57q-10 14 -41 14h-4q-70 -4 -127 -69q-45 -53 -69 -141zM492 1208q-12 41 8 78t61 47q25 8 49.5 3t44.5 -21q2 -2 4.5 -3t4.5 -3q20 -16 33.5 -44t2.5 -67q0 -2 -4 -18q-10 -35 -37.5 -54.5t-60.5 -19.5 q-12 0 -29 4q-63 20 -73 84q-2 4 -2 7t-2 7z" />
<glyph unicode="&#xec;" horiz-adv-x="491" d="M27 1372q-16 41 0 79t57 54t79 0t54 -57q25 -61 75 -120.5t116 -106.5q35 -25 42 -67t-18 -77q-16 -23 -38.5 -33t-45.5 -10q-33 0 -59 19q-23 14 -56.5 42.5t-70.5 68.5t-74 92.5t-61 115.5zM213 638q-2 -114 2 -228q2 -59 6 -110.5t10 -92.5q14 -109 45 -154 q29 -47 86 -47q33 0 56 14q35 23 45 64t-12 78q-6 10 -17.5 72.5t-15.5 197.5q-4 104 -1 206.5t11 176.5q4 43 -22.5 76t-67.5 37q-43 4 -76 -21.5t-37 -68.5q-10 -86 -12 -200z" />
<glyph unicode="&#xed;" horiz-adv-x="479" d="M21 638.5q2 113.5 12 199.5q4 43 36.5 68.5t75.5 21.5q41 -4 68 -37t23 -76q-8 -74 -11.5 -176.5t0.5 -206.5q4 -135 15.5 -197.5t17.5 -72.5q23 -37 12.5 -78t-45.5 -64q-23 -14 -55 -14q-57 0 -86 47q-31 45 -45 154q-6 41 -10 92t-6 111q-4 115 -2 228.5zM29.5 1154 q7.5 42 42.5 67q66 47 116 106t74 121q16 41 54 57.5t79 -0.5q41 -16 57.5 -54t0.5 -79q-25 -63 -62 -115.5t-73.5 -92.5t-71.5 -68.5t-56 -42.5q-28 -19 -59 -19q-23 0 -45.5 10.5t-38.5 32.5q-25 35 -17.5 77z" />
<glyph unicode="&#xee;" horiz-adv-x="616" d="M18 1104q0 43 31 72q63 61 91 111t44 89q6 16 12.5 29.5t16.5 28.5q25 37 53.5 49t46.5 14q57 4 101 -37q10 -10 20 -23.5t21 -31.5q14 -23 24 -51.5t23 -57.5q16 -41 32.5 -84t38.5 -67q27 -35 23 -76t-37 -70q-28 -24 -65 -24q-45 0 -78 37q-33 39 -55.5 85t-38.5 93 q-23 -35 -52.5 -76t-76.5 -86q-31 -29 -74 -29t-72 31t-29 74zM176 638q-2 -114 2 -228q2 -59 6 -110.5t11 -92.5q14 -109 45 -154q29 -47 86 -47q33 0 55 14q35 23 45 64t-12 78q-6 10 -17.5 72.5t-15.5 197.5q-4 104 -1 206.5t11 176.5q4 43 -22.5 76t-67.5 37 q-43 4 -75.5 -21.5t-37.5 -68.5q-10 -86 -12 -200z" />
<glyph unicode="&#xef;" horiz-adv-x="575" d="M12 1202v12q2 16 10.5 36t30.5 40q39 37 84 37q43 0 73 -30.5t30 -71.5q0 -51 -41 -82q-31 -43 -82 -43q-45 0 -76 30q-29 29 -29 72zM156 638.5q2 113.5 12 199.5q4 43 37 68.5t76 21.5q41 -4 67.5 -37t22.5 -76q-8 -74 -11.5 -176.5t0.5 -206.5q4 -135 15.5 -197.5 t17.5 -72.5q23 -37 12.5 -78t-45.5 -64q-23 -14 -55 -14q-57 0 -86 47q-31 45 -45 154q-6 41 -10 92t-6 111q-4 115 -2 228.5zM340 1196q-12 41 8.5 78t61.5 47q25 8 49 3t45 -21q2 -2 4 -3.5t4 -3.5q20 -16 33.5 -43.5t3.5 -66.5q0 -2 -4 -19q-10 -35 -38 -54t-61 -19 q-12 0 -28 4q-63 20 -74 84q-2 4 -2 7t-2 7z" />
<glyph unicode="&#xf0;" horiz-adv-x="860" d="M37 638q14 97 59 175q80 135 232 176q53 14 111.5 14.5t123.5 -10.5q-8 25 -18 45q-14 29 -28.5 53.5t-31.5 47.5q-8 -8 -15 -14.5t-15 -12.5q-41 -35 -76 -56.5t-66 -31.5q-41 -16 -78.5 2t-52.5 55q-16 41 1.5 81t56.5 55q4 2 21.5 15t41.5 34q-35 4 -70 -6 q-41 -10 -77.5 11t-46.5 62t11 78t62 47q50 15 103 15q96 0 186 -48q23 23 41 43.5t27 30.5q27 35 67.5 40t75.5 -19q35 -25 42 -67t-22 -79q-14 -20 -30.5 -42.5t-38.5 -47.5q55 -72 98 -160q59 -125 85 -269t15 -286q-12 -164 -71.5 -287.5t-159.5 -195.5 q-98 -72 -200.5 -65.5t-190.5 83.5q-61 55 -105.5 141.5t-60.5 186.5q-20 109 -6 206zM238 601.5q-7 -62.5 6 -132.5q12 -66 39.5 -123t62.5 -90q33 -31 68 -31q33 0 67 27q47 35 79 90t49.5 124t19.5 146.5t-8 157.5q-150 45 -240 21q-72 -18 -109 -82q-27 -45 -34 -107.5z " />
<glyph unicode="&#xf1;" horiz-adv-x="888" d="M35 950.5q-12 -41.5 10 -78.5q37 -72 58.5 -151.5t30.5 -174.5t8 -207t-7 -243q-4 -41 22.5 -71.5t67.5 -34.5h13q37 0 65.5 23.5t34.5 62.5q29 188 66.5 340.5t82.5 263.5q27 68 50.5 107.5t40.5 58.5q4 -10 7 -27.5t5 -40.5q12 -102 -10 -252q-18 -111 -14.5 -194.5 t22 -144t45 -100.5t55.5 -64q33 -29 75 -26t71 34q29 33 25.5 74.5t-36.5 70.5q-39 35 -50 118t7 200q31 184 13 321q-23 156 -99 217q-78 61 -168 27q-125 -49 -223 -287q-27 106 -80 199q-20 37 -60 49t-77 -8q-39 -20 -51 -61.5zM146.5 1217.5q-11.5 39.5 11.5 76.5 q20 33 42.5 66t49 59.5t58.5 42t69 15.5h4q35 0 63.5 -13.5t49 -32t34 -37t19.5 -28.5q10 -16 26 -25q0 4 1 8.5t1 10.5q0 41 30 71.5t73 30.5q41 0 71.5 -30.5t30.5 -71.5q0 -78 -32 -137q-37 -66 -105 -84q-24 -9 -53 -9q-53 0 -105 27q-70 31 -108 96q-8 -10 -18.5 -25.5 t-24.5 -37.5q-23 -37 -64 -47t-77 12q-35 23 -46.5 62.5z" />
<glyph unicode="&#xf2;" horiz-adv-x="710" d="M27 374q6 -81 28 -147q29 -82 76 -135q59 -61 139 -84q41 -10 76 -10q25 0 59.5 7t72.5 28.5t75 62.5t68 109q66 152 69 356q0 84 -13 158t-36 133q-23 57 -51.5 92t-58 53.5t-57.5 24.5t-48 6h-4q-92 0 -164 -51q-68 -45 -115 -119q-43 -63 -71.5 -144t-40.5 -173 q-10 -86 -4 -167zM117 1419q-16 41 0 79t57 54t79 0t54 -57q25 -61 75 -120.5t116 -106.5q35 -25 42 -67t-18 -77q-16 -23 -38.5 -33t-45.5 -10q-33 0 -59 19q-23 14 -56.5 42.5t-70.5 68.5t-74 92.5t-61 115.5zM228 402.5q-3 52.5 5 111.5q8 63 28 119.5t45.5 98.5t55 66.5 t60.5 24.5q8 -4 25.5 -36.5t29.5 -110.5q10 -72 6 -151.5t-20 -149.5q-8 -31 -19.5 -61.5t-27 -55.5t-32.5 -40t-38 -15q-14 0 -22 2q-27 8 -47.5 34.5t-33 68.5t-15.5 94.5z" />
<glyph unicode="&#xf3;" horiz-adv-x="710" d="M26 374q-6 81 5 167q12 92 40.5 173t71.5 144q47 74 115 119q72 51 164 51h4q20 0 48 -6t57.5 -24.5t58 -53.5t51.5 -92q23 -59 36 -133t13 -158q-4 -205 -69 -356q-31 -68 -68 -109t-75 -62.5t-72.5 -28.5t-59.5 -7q-35 0 -76 10q-80 23 -139 84q-47 53 -76 135 q-23 66 -29 147zM222 1185q7 42 42 66q66 47 116 106.5t75 121.5q16 41 54 57t79 0t57.5 -54t-0.5 -79q-25 -63 -61.5 -115.5t-73.5 -92.5t-72 -68.5t-55 -43.5q-28 -18 -59 -18q-23 0 -45.5 10t-38.5 33q-25 35 -18 77zM228 402.5q3 -52.5 15.5 -94.5t33 -68.5t47.5 -34.5 q8 -2 22 -2q20 0 37.5 15t33 40t27 55.5t19.5 61.5q16 70 20 149.5t-6 151.5q-12 78 -29.5 110.5t-25.5 36.5q-31 0 -60.5 -24.5t-55 -66.5t-45 -98t-28.5 -120q-8 -59 -5 -111.5z" />
<glyph unicode="&#xf4;" horiz-adv-x="710" d="M27 374q6 -81 28 -147q29 -82 76 -135q59 -61 139 -84q41 -10 76 -10q25 0 59.5 7t72.5 28.5t75 62.5t68 109q66 152 69 356q0 84 -13 158t-36 133q-23 57 -51.5 92t-58 53.5t-57.5 24.5t-48 6h-4q-92 0 -164 -51q-68 -45 -115 -119q-43 -63 -71.5 -144t-40.5 -173 q-10 -86 -4 -167zM94 1178q0 43 31 71q63 61 91 111.5t44 89.5q6 16 12.5 29.5t16.5 27.5q25 37 53.5 49.5t46.5 14.5q57 4 100 -37q10 -10 20.5 -23.5t20.5 -31.5q14 -23 24.5 -51.5t23.5 -57.5q16 -41 32.5 -84t38.5 -67q27 -35 23 -76t-37 -70q-29 -24 -66 -24 q-45 0 -77 36q-33 39 -55.5 85.5t-39.5 93.5q-23 -35 -52.5 -76t-76.5 -86q-31 -29 -73.5 -29t-71.5 31t-29 74zM228 402.5q-3 52.5 5 111.5q8 63 28 119.5t45.5 98.5t55 66.5t60.5 24.5q8 -4 25.5 -36.5t29.5 -110.5q10 -72 6 -151.5t-20 -149.5q-8 -31 -19.5 -61.5 t-27 -55.5t-32.5 -40t-38 -15q-14 0 -22 2q-27 8 -47.5 34.5t-33 68.5t-15.5 94.5z" />
<glyph unicode="&#xf5;" horiz-adv-x="710" d="M27 374q6 -81 28 -147q29 -82 76 -135q59 -61 139 -84q41 -10 76 -10q25 0 59.5 7t72.5 28.5t75 62.5t68 109q66 152 69 356q0 84 -13 158t-36 133q-23 57 -51.5 92t-58 53.5t-57.5 24.5t-48 6h-4q-92 0 -164 -51q-68 -45 -115 -119q-43 -63 -71.5 -144t-40.5 -173 q-10 -86 -4 -167zM74.5 1162.5q-11.5 39.5 11.5 76.5q20 33 43 65.5t49.5 59.5t58 42t68.5 15h4q35 0 63.5 -13t49 -31.5t34 -37t19.5 -28.5q10 -16 27 -25q0 4 1 8t1 11q0 41 29.5 71.5t72.5 30.5q41 0 72 -30.5t31 -71.5q0 -78 -33 -138q-37 -66 -105 -84q-24 -8 -53 -8 q-53 0 -104 27q-70 31 -109 96q-8 -10 -18.5 -25.5t-24.5 -37.5q-23 -37 -63.5 -47.5t-77.5 12.5q-35 23 -46.5 62.5zM228 402.5q-3 52.5 5 111.5q8 63 28 119.5t45.5 98.5t55 66.5t60.5 24.5q8 -4 25.5 -36.5t29.5 -110.5q10 -72 6 -151.5t-20 -149.5q-8 -31 -19.5 -61.5 t-27 -55.5t-32.5 -40t-38 -15q-14 0 -22 2q-27 8 -47.5 34.5t-33 68.5t-15.5 94.5z" />
<glyph unicode="&#xf6;" horiz-adv-x="710" d="M26 374q-6 81 5 167q12 92 40.5 173t71.5 144q47 74 115 119q72 51 164 51h4q20 0 48 -6t57.5 -24.5t58 -53.5t51.5 -92q23 -59 36 -133t13 -158q-4 -205 -69 -356q-31 -68 -68 -109t-75 -62.5t-72.5 -28.5t-59.5 -7q-35 0 -76 10q-80 23 -139 84q-47 53 -76 135 q-23 66 -29 147zM125 1167v13q2 16 10 35.5t31 39.5q39 37 84 37q43 0 72.5 -30.5t29.5 -71.5q0 -51 -41 -82q-31 -43 -82 -43q-45 0 -75 31q-29 29 -29 71zM228 402.5q3 -52.5 15.5 -94.5t33 -68.5t47.5 -34.5q8 -2 22 -2q20 0 37.5 15t33 40t27 55.5t19.5 61.5 q16 70 20 149.5t-6 151.5q-12 78 -29.5 110.5t-25.5 36.5q-31 0 -60.5 -24.5t-55 -66.5t-45 -98t-28.5 -120q-8 -59 -5 -111.5zM453 1161q-12 41 8 78t61 47q25 8 49.5 3t44.5 -21q2 -2 4.5 -3t4.5 -3q20 -16 33.5 -44t3.5 -67q0 -2 -5 -18q-10 -35 -37.5 -54.5t-60.5 -19.5 q-12 0 -29 4q-63 20 -73 84q-2 4 -2 7t-2 7z" />
<glyph unicode="&#xf8;" horiz-adv-x="710" d="M26 374q-6 81 5 167q12 92 40.5 173t71.5 144q47 74 115 119q70 51 162 51q27 16 55 10q43 -6 62 -45q29 -18 55 -53t49 -88q23 -59 36 -133t13 -158q-4 -205 -69 -356q-31 -68 -68 -109t-75 -62.5t-72.5 -28.5t-59.5 -7q-35 0 -76 10q-16 4 -26 8q-6 -2 -19 -2 q-16 0 -28 6q-41 16 -52 56q-4 4 -7 8t-7 8q-47 53 -76 135q-23 66 -29 147zM233 354q35 106 64 212t51 222q-41 -41 -72.5 -112.5t-42.5 -161.5q-12 -90 0 -160zM354 203q37 8 65 60.5t44 111.5q14 59 19 126.5t-1 133.5q-27 -113 -56.5 -217.5t-70.5 -214.5z" />
<glyph unicode="&#xf9;" horiz-adv-x="886" d="M37 936q2 43 33.5 71.5t74.5 24.5q41 -2 70 -33.5t27 -74.5q-10 -168 -11.5 -302.5t9.5 -232.5q4 -55 11 -91t13 -56q20 27 52 81t71 146q51 121 97 269.5t81 308.5q10 41 44 63.5t75 13.5q41 -8 64.5 -40.5t19.5 -73.5l-4 -30t-8 -80t-8.5 -116.5t-4.5 -140.5 q0 -184 24 -319.5t71 -206.5q23 -35 13.5 -77t-44.5 -65q-22 -16 -55 -16q-25 0 -47.5 12.5t-38.5 34.5q-78 119 -109 340q-2 -6 -6 -14q-63 -137 -127 -219q-94 -115 -197 -103q-29 4 -66.5 25.5t-68.5 81.5q-31 70 -49 178q-31 219 -6 641zM86 1446q-16 41 0 79t57 54 t79 0t54 -57q25 -61 75 -121t116 -107q35 -25 42 -66.5t-17 -76.5q-16 -23 -38.5 -33t-45.5 -10q-33 0 -60 18q-23 14 -56.5 43t-70.5 69t-73.5 92t-61.5 116z" />
<glyph unicode="&#xfa;" horiz-adv-x="886" d="M37 936q2 43 33.5 71.5t74.5 24.5q41 -2 70 -33.5t27 -74.5q-10 -168 -11.5 -302.5t9.5 -232.5q4 -55 11 -91t13 -56q20 27 52 81t71 146q51 121 97 269.5t81 308.5q10 41 44 63.5t75 13.5q41 -8 64.5 -40.5t19.5 -73.5l-4 -30t-8 -80t-8.5 -116.5t-4.5 -140.5 q0 -184 24 -319.5t71 -206.5q23 -35 13.5 -77t-44.5 -65q-22 -16 -55 -16q-25 0 -47.5 12.5t-38.5 34.5q-78 119 -109 340q-2 -6 -6 -14q-63 -137 -127 -219q-94 -115 -197 -103q-29 4 -66.5 25.5t-68.5 81.5q-31 70 -49 178q-31 219 -6 641zM244.5 1197q7.5 42 42.5 67 q66 47 116 106.5t74 120.5q16 41 54 57.5t79 -0.5q41 -16 57.5 -54t0.5 -79q-25 -63 -62 -115.5t-73.5 -92.5t-71.5 -68.5t-55 -42.5q-29 -19 -60 -19q-23 0 -45 10.5t-39 32.5q-25 35 -17.5 77z" />
<glyph unicode="&#xfb;" horiz-adv-x="886" d="M37 936q2 43 33.5 71.5t74.5 24.5q41 -2 70 -33.5t27 -74.5q-10 -168 -11.5 -302.5t9.5 -232.5q4 -55 11 -91t13 -56q20 27 52 81t71 146q51 121 97 269.5t81 308.5q10 41 44 63.5t75 13.5q41 -8 64.5 -40.5t19.5 -73.5l-4 -30t-8 -80t-8.5 -116.5t-4.5 -140.5 q0 -184 24 -319.5t71 -206.5q23 -35 13.5 -77t-44.5 -65q-22 -16 -55 -16q-25 0 -47.5 12.5t-38.5 34.5q-78 119 -109 340q-2 -6 -6 -14q-63 -137 -127 -219q-94 -115 -197 -103q-29 4 -66.5 25.5t-68.5 81.5q-31 70 -49 178q-31 219 -6 641zM69.5 1260q0.5 43 30.5 71 q63 61 91 111.5t45 89.5q6 16 12 29.5t16 27.5q25 37 53.5 49.5t47.5 14.5q57 4 100 -37q10 -10 20.5 -23.5t20.5 -31.5q14 -23 24.5 -51.5t22.5 -57.5q16 -41 32.5 -84t39.5 -68q27 -35 22.5 -75.5t-37.5 -69.5q-28 -25 -65 -25q-45 0 -78 37q-33 39 -55.5 85t-38.5 94 q-23 -35 -52.5 -76t-76.5 -86q-31 -29 -74 -29t-72 31t-28.5 74z" />
<glyph unicode="&#xfc;" horiz-adv-x="886" d="M37 936q2 43 33.5 71.5t74.5 24.5q41 -2 70 -33.5t27 -74.5q-10 -168 -11.5 -302.5t9.5 -232.5q4 -55 11 -91t13 -56q20 27 52 81t71 146q51 121 97 269.5t81 308.5q10 41 44 63.5t75 13.5q41 -8 64.5 -40.5t19.5 -73.5l-4 -30t-8 -80t-8.5 -116.5t-4.5 -140.5 q0 -184 24 -319.5t71 -206.5q23 -35 13.5 -77t-44.5 -65q-22 -16 -55 -16q-25 0 -47.5 12.5t-38.5 34.5q-78 119 -109 340q-2 -6 -6 -14q-63 -137 -127 -219q-94 -115 -197 -103q-29 4 -66.5 25.5t-68.5 81.5q-31 70 -49 178q-31 219 -6 641zM78 1262v12q2 16 10 35.5 t31 40.5q39 36 84 36q43 0 72.5 -30.5t29.5 -71.5q0 -51 -41 -82q-31 -43 -82 -43q-45 0 -76 31q-29 29 -28 72zM406 1255q-12 41 8 78t61 47q25 8 49.5 3t44.5 -21q2 -2 4.5 -3t4.5 -3q20 -16 33.5 -44t2.5 -67q0 -2 -4 -18q-10 -35 -37.5 -54.5t-60.5 -19.5q-12 0 -29 4 q-63 20 -73 84q-2 4 -2 7t-2 7z" />
<glyph unicode="&#xfd;" horiz-adv-x="737" d="M24 964.5q9 36.5 42 59.5q35 25 76.5 16.5t64.5 -43.5q12 -16 19 -38.5t12.5 -58.5t9.5 -86t8 -124q4 -72 10 -150.5t17 -148.5q8 -53 15 -85t11 -50q18 14 42 42t48 77q16 33 33 80t29 110.5t17 142t-1 175.5q-4 41 24.5 72.5t69.5 35.5q43 4 75 -24.5t34 -71.5 q10 -162 17.5 -296t10.5 -246.5t2 -206t-5 -171.5q-10 -199 -47 -318.5t-103 -184.5q-29 -27 -72 -27t-73 31q-29 31 -28 73.5t32 71.5q12 12 24.5 36t24.5 67t21.5 107.5t15.5 156.5q2 39 3 82t1 92q-4 -4 -5 -7t-5 -8q-96 -106 -205 -112q-14 0 -33.5 3t-41 14t-42 32.5 t-37.5 58.5q-27 55 -45 158q-16 86 -23.5 184.5t-13.5 190.5q-2 31 -5 63.5t-6 63.5t-6 54.5t-5 35.5q-16 35 -7 71.5zM238.5 1193q7.5 42 42.5 67q66 47 115.5 106t74.5 121q16 41 54 57.5t79 -0.5q41 -16 57.5 -54t0.5 -79q-25 -63 -62 -115.5t-74 -92.5t-71.5 -68.5 t-55.5 -42.5q-28 -19 -59 -19q-23 0 -45.5 10.5t-38.5 32.5q-25 35 -17.5 77z" />
<glyph unicode="&#xfe;" horiz-adv-x="819" d="M31 1307q-6 43 20.5 76.5t67.5 37.5q43 6 76.5 -20.5t37.5 -67.5q14 -127 25 -272q135 2 252 -47q143 -66 225 -205q41 -76 60.5 -165t9.5 -183q-8 -92 -40 -175t-85 -149q-90 -113 -221 -149q-61 -18 -127 -19q-12 0 -24.5 1t-24.5 3q2 -66 3 -129t5 -129 q4 -41 -24.5 -72.5t-71.5 -33.5h-7q-41 0 -69.5 27.5t-30.5 68.5q-10 174 -12 346t-4 340q-2 141 -4 277.5t-9 265.5v2q-4 12 0 22q-4 92 -11 179.5t-17 169.5zM268 856q4 -111 5 -226.5t3 -236.5v-106.5t3 -106.5q151 -25 241 86q35 43 55.5 99.5t25.5 116t-6 117.5 t-38 108q-88 150 -289 149z" />
<glyph unicode="&#xff;" horiz-adv-x="737" d="M24 964.5q9 36.5 42 59.5q35 25 76.5 16.5t64.5 -43.5q12 -16 19 -38.5t12.5 -58.5t9.5 -86t8 -124q4 -72 10 -150.5t17 -148.5q8 -53 15 -85t11 -50q18 14 42 42t48 77q16 33 33 80t29 110.5t17 142t-1 175.5q-4 41 24.5 72.5t69.5 35.5q43 4 75 -24.5t34 -71.5 q10 -162 17.5 -296t10.5 -246.5t2 -206t-5 -171.5q-10 -199 -47 -318.5t-103 -184.5q-29 -27 -72 -27t-73 31q-29 31 -28 73.5t32 71.5q12 12 24.5 36t24.5 67t21.5 107.5t15.5 156.5q2 39 3 82t1 92q-4 -4 -5 -7t-5 -8q-96 -106 -205 -112q-14 0 -33.5 3t-41 14t-42 32.5 t-37.5 58.5q-27 55 -45 158q-16 86 -23.5 184.5t-13.5 190.5q-2 31 -5 63.5t-6 63.5t-6 54.5t-5 35.5q-16 35 -7 71.5zM123 1194v12q2 16 10 36t31 40q39 37 84 37q43 0 72.5 -31t29.5 -71q0 -51 -41 -82q-31 -43 -82 -43q-45 0 -75 30q-29 29 -29 72zM451 1188q-12 41 8 78 t61 47q25 8 49.5 3t44.5 -22q2 -2 4.5 -3t4.5 -3q20 -16 33.5 -43.5t2.5 -66.5q0 -2 -4 -19q-10 -35 -37.5 -54.5t-60.5 -19.5q-12 0 -29 5q-63 20 -73 84q-2 4 -2 7t-2 7z" />
<glyph unicode="&#x152;" horiz-adv-x="1636" d="M25 562q-2 50 0 93q6 141 39.5 276.5t91.5 242.5q33 59 70.5 107t82.5 83q106 86 232 82q37 0 65 -25q49 -14 99 -47q25 -18 48 -42.5t44 -53.5q0 70 45 108q31 29 65.5 35t61.5 6q23 0 49 -2t55 -6q66 -8 144.5 -11t154.5 19q41 12 78 -7t49 -60t-7 -79t-60 -50 q-106 -33 -206 -29t-177 15q-10 0 -22.5 1t-22.5 3q0 -115 -5.5 -219.5t-13.5 -202.5h137q90 0 176 2t127 12t78 -12.5t47 -63.5t-12 -76.5t-63 -46.5q-59 -16 -152.5 -18t-200.5 -2h-153q-6 -113 -6 -214t18 -200q8 -2 22.5 -3t43.5 -1q37 2 80.5 6t93.5 11q68 8 142 15 t150 7q43 -2 73 -31.5t30 -72.5q0 -41 -31 -71t-72 -30q-66 0 -134 -6t-136 -14q-57 -8 -110.5 -13.5t-100.5 -5.5q-12 0 -23.5 1t-21.5 1q-74 6 -119 33q-70 39 -86 121q-4 25 -8 49.5t-8 48.5q-4 -4 -4 -6q-66 -104 -154 -160q-88 -57 -194 -57h-25q-98 6 -175 66.5 t-124 169.5q-23 53 -37 109t-20 110.5t-8 104.5zM229 647q-4 -98 8.5 -182t38.5 -146q18 -41 37 -63.5t36.5 -32.5t31.5 -13t20 -3q109 -6 189 121q47 78 78 184t39 229q6 119 -10.5 223.5t-55.5 174.5q-18 33 -35.5 51t-33 26.5t-29 9.5t-19.5 1q-20 0 -35 6 q-53 -16 -91 -62.5t-62 -93.5q-47 -86 -75 -197.5t-32 -232.5z" />
<glyph unicode="&#x153;" horiz-adv-x="1316" d="M30.5 374q-5.5 81 4.5 167q12 92 40.5 173t71.5 144q47 74 115 119q72 51 164 51h4q20 0 47 -6t54.5 -23.5t56 -49t51.5 -83.5q10 18 21.5 35t25.5 33q55 66 126 102.5t149 40.5q74 4 133 -25.5t94 -84.5t35 -125t-37 -137q-59 -117 -203 -185q-96 -47 -227 -69 q2 -10 2 -21.5t2 -23.5q14 -106 48 -157.5t64 -55.5q18 -2 46 12t57 49t58.5 91t51.5 138q12 41 49 61.5t78 8.5q41 -10 61.5 -47t8.5 -78q-55 -205 -166 -322q-53 -59 -114.5 -88.5t-124.5 -29.5h-19q-123 10 -207 125q-10 14 -20 30.5t-19 34.5q-31 -59 -66.5 -95 t-71.5 -54.5t-67.5 -24.5t-56.5 -6q-35 0 -76 10q-80 23 -139 84q-47 53 -76 135q-23 66 -28.5 147zM233 402.5q3 -52.5 15 -94.5t32.5 -68.5t47.5 -34.5q8 -2 22 -2q20 0 38 15t33 40t26.5 55.5t19.5 61.5q16 70 20.5 149.5t-6.5 151.5q-12 78 -29.5 110.5t-25.5 36.5 q-31 0 -60.5 -24.5t-55 -66.5t-45 -98t-27.5 -120q-8 -59 -5 -111.5zM772 662q98 23 154.5 60.5t79.5 78.5q20 41 8 57q-10 14 -41 14h-4q-70 -4 -127 -69q-45 -53 -70 -141z" />
<glyph unicode="&#x178;" horiz-adv-x="796" d="M25 1041.5q2 150.5 18 338.5q4 41 37 69t76 24q41 -4 68.5 -37t23.5 -74q-33 -344 -8 -549q10 -80 24.5 -115.5t22.5 -46.5q8 4 22.5 15.5t36.5 38.5q55 66 107 176q55 123 85.5 260t30.5 266q0 43 31 72.5t72 29.5q43 0 72.5 -29.5t29.5 -72.5q0 -96 -2 -185t-9 -181.5 t-22.5 -191.5t-42 -216t-66.5 -256t-97 -309q-10 -33 -37 -51.5t-60 -18.5q-12 0 -32 4q-41 14 -59.5 52t-4.5 79q37 115 67.5 212t53.5 183q-39 -37 -78 -55q-53 -29 -106.5 -28t-100.5 32q-109 70 -139 303q-16 111 -14 261.5zM102 1651v12q2 16 10.5 35.5t30.5 40.5 q39 37 84 37q43 0 73 -31t30 -72q0 -51 -41 -82q-31 -43 -82 -43q-45 0 -76 31q-29 29 -29 72zM430 1645q-12 41 8.5 77.5t61.5 46.5q25 8 49 3t45 -21q2 -2 4 -3t4 -3q20 -16 33.5 -44t3.5 -67q0 -2 -4 -18q-10 -35 -38 -54.5t-60 -19.5q-12 0 -29 4q-63 20 -74 84 q-2 4 -2 7t-2 8z" />
<glyph unicode="&#x2c6;" horiz-adv-x="667" d="M41 1157q0 43 31 72q63 61 90.5 111.5t44.5 89.5q6 16 12 29.5t17 27.5q25 37 53 49t47 14q57 4 100 -37q10 -10 20.5 -23t20.5 -32q14 -23 24.5 -51.5t22.5 -56.5q16 -41 32.5 -84t39.5 -68q27 -35 22.5 -76t-36.5 -69q-29 -25 -66 -25q-45 0 -78 37q-33 39 -55.5 85 t-38.5 93q-23 -35 -52.5 -76t-76.5 -86q-31 -29 -74 -28.5t-71 30.5q-29 31 -29 74z" />
<glyph unicode="&#x2dc;" horiz-adv-x="753" d="M62.5 1142q-11.5 40 11.5 77q20 33 42.5 65.5t49.5 59t58.5 42t68.5 15.5h4q35 0 63.5 -13.5t49 -32t34 -37t19.5 -28.5q10 -16 26 -24q0 4 1.5 8t1.5 10q0 41 29.5 71.5t72.5 30.5q41 0 71.5 -30.5t30.5 -71.5q0 -78 -32 -137q-37 -66 -105 -84q-24 -8 -53 -8 q-53 0 -105 26q-70 31 -108 97q-8 -10 -18.5 -25.5t-24.5 -38.5q-23 -37 -64 -47t-77 12q-35 23 -46.5 63z" />
<glyph unicode="&#x2000;" horiz-adv-x="1036" />
<glyph unicode="&#x2001;" horiz-adv-x="2073" />
<glyph unicode="&#x2002;" horiz-adv-x="1036" />
<glyph unicode="&#x2003;" horiz-adv-x="2073" />
<glyph unicode="&#x2004;" horiz-adv-x="691" />
<glyph unicode="&#x2005;" horiz-adv-x="518" />
<glyph unicode="&#x2006;" horiz-adv-x="345" />
<glyph unicode="&#x2007;" horiz-adv-x="345" />
<glyph unicode="&#x2008;" horiz-adv-x="259" />
<glyph unicode="&#x2009;" horiz-adv-x="414" />
<glyph unicode="&#x200a;" horiz-adv-x="115" />
<glyph unicode="&#x2010;" horiz-adv-x="931" d="M75.5 536q-16.5 39 0.5 78q16 41 55 57.5t78 0.5q4 -2 18.5 -6t45 -7.5t79.5 -5.5t123 0q92 4 168 11.5t105 13.5q41 8 75.5 -16.5t42.5 -65.5t-15.5 -77t-66.5 -44q-41 -8 -123.5 -15t-179.5 -11q-20 0 -40 -1.5t-38 -1.5q-29 0 -56.5 1.5t-51.5 3.5q-102 6 -162 30 q-41 16 -57.5 55z" />
<glyph unicode="&#x2011;" horiz-adv-x="931" d="M75.5 536q-16.5 39 0.5 78q16 41 55 57.5t78 0.5q4 -2 18.5 -6t45 -7.5t79.5 -5.5t123 0q92 4 168 11.5t105 13.5q41 8 75.5 -16.5t42.5 -65.5t-15.5 -77t-66.5 -44q-41 -8 -123.5 -15t-179.5 -11q-20 0 -40 -1.5t-38 -1.5q-29 0 -56.5 1.5t-51.5 3.5q-102 6 -162 30 q-41 16 -57.5 55z" />
<glyph unicode="&#x2012;" horiz-adv-x="931" d="M75.5 536q-16.5 39 0.5 78q16 41 55 57.5t78 0.5q4 -2 18.5 -6t45 -7.5t79.5 -5.5t123 0q92 4 168 11.5t105 13.5q41 8 75.5 -16.5t42.5 -65.5t-15.5 -77t-66.5 -44q-41 -8 -123.5 -15t-179.5 -11q-20 0 -40 -1.5t-38 -1.5q-29 0 -56.5 1.5t-51.5 3.5q-102 6 -162 30 q-41 16 -57.5 55z" />
<glyph unicode="&#x2013;" horiz-adv-x="1153" d="M77 536q-21 39 1 78q20 41 70 57.5t100 0.5q5 -2 23.5 -6t57.5 -7.5t102 -5.5t157 0q118 4 215 11.5t134 13.5q53 8 97 -16.5t54 -65.5q11 -41 -19 -77t-85 -44q-53 -8 -158.5 -15t-229.5 -11q-26 0 -51.5 -1.5t-48.5 -1.5q-37 0 -72 1.5t-66 3.5q-130 6 -207 30 q-53 16 -74 55z" />
<glyph unicode="&#x2014;" horiz-adv-x="2176" d="M88 536q-42 39 1 78q41 41 141 57.5t199 0.5q10 -2 47.5 -6t115.5 -7.5t203 -5.5t315 0q235 4 429.5 11.5t268.5 13.5q105 8 193 -16.5t109 -65.5q20 -41 -40 -77t-170 -44q-105 -8 -316 -15t-459 -11q-51 0 -102 -1.5t-98 -1.5q-74 0 -144 1.5t-132 3.5q-261 6 -414 30 q-105 16 -147 55z" />
<glyph unicode="&#x202f;" horiz-adv-x="414" />
<glyph unicode="&#x205f;" horiz-adv-x="518" />
<glyph unicode="&#x20ac;" horiz-adv-x="1163" d="M41 803q-10 41 11.5 78t62.5 47q35 8 69.5 12t71.5 8q10 100 29.5 184.5t54.5 149.5q41 78 96 127q63 53 135 66q135 25 263 -80q53 -47 98 -114t80 -151q16 -41 -0.5 -78.5t-57.5 -54.5q-41 -16 -78.5 0.5t-54.5 57.5q-47 121 -121 182q-14 12 -38.5 26.5t-53.5 10.5 q-45 -8 -88 -89t-57 -241q18 -2 36.5 -2t37.5 -2q45 -4 87 -6t78 -2q43 0 73 -31t30 -72q0 -43 -30 -72.5t-73 -29.5q-41 0 -87 2t-93 6q-16 2 -32.5 3t-32.5 1v-43t2 -43q96 2 185 1t159 -7q41 -4 68.5 -36.5t23.5 -73.5t-32.5 -68t-67.5 -27h-11q-59 4 -140 6.5t-167 0.5 q4 -29 10.5 -56.5t12.5 -50.5q16 -59 38.5 -95t47.5 -46q23 -8 58.5 4t80.5 41q100 66 213 200q29 33 69.5 37.5t73.5 -24.5q35 -29 38 -71t-25 -75q-49 -57 -106.5 -114.5t-120 -102.5t-129 -73.5t-132.5 -28.5q-23 0 -47 3t-47 13q-147 57 -209 275q-10 35 -18.5 74.5 t-14.5 84.5q-23 0 -44 -1t-42 -1q-43 -2 -73.5 28t-32.5 71q-2 43 27.5 73.5t70.5 32.5q20 0 38.5 1t39.5 1q-2 23 -2 46.5v45.5q-47 -4 -86 -12q-16 -4 -27 -4q-35 0 -61.5 21.5t-36.5 56.5z" />
</font>
</defs>
</svg>
